<?xml version="1.0" standalone="no"?>
<!DOCTYPE svg PUBLIC "-//W3C//DTD SVG 1.1//EN" "http://www.w3.org/Graphics/SVG/1.1/DTD/svg11.dtd" >
<!--
2012-11-8: Created.
-->
<svg>
<metadata>
Created by FontForge 20120731 at Thu May 19 15:39:17 2016
 By Coos,,,
Created by Coos Baakman,,,, with FontForge 2.0 (http://fontforge.sf.net)
</metadata>
<defs>
<font id="Lumean" horiz-adv-x="44" >
  <font-face 
    font-family="Lumean"
    font-weight="700"
    font-stretch="normal"
    units-per-em="64"
    panose-1="2 0 6 3 0 0 0 0 0 0"
    ascent="50"
    descent="-14"
    x-height="32"
    cap-height="50"
    bbox="-15.998 -14.0684 69 76.1211"
    underline-thickness="3"
    underline-position="-6"
    unicode-range="U+000D-1FFE"
  />
    <missing-glyph />
    <glyph glyph-name="A" unicode="A" 
d="M8 18v-18h-8v19q0 17 11 25q7 5 17 6h8v-50h-8v24h-19q-1 -3 -1 -6zM11 32h17v9q-10 0 -17 -9z" />
    <glyph glyph-name="A" unicode="&#x410;" 
d="M8 18v-18h-8v19q0 17 11 25q7 5 17 6h8v-50h-8v24h-19q-1 -3 -1 -6zM11 32h17v9q-10 0 -17 -9z" />
    <glyph glyph-name="A" unicode="&#x391;" 
d="M8 18v-18h-8v19q0 17 11 25q7 5 17 6h8v-50h-8v24h-19q-1 -3 -1 -6zM11 32h17v9q-10 0 -17 -9z" />
    <glyph glyph-name="B" unicode="B" 
d="M8 24v-14q20 5 20 10q0 3 -4 4h-16zM8 41v-9h8q2.0001 2 2 5q0 4.0002 -10 4zM0 50q26 0 26 -12q0 -3 -2 -6q12 -4 12 -12q0 -14 -36 -20v50z" />
    <glyph glyph-name="B" unicode="&#x412;" 
d="M8 24v-14q20 5 20 10q0 3 -4 4h-16zM8 41v-9h8q2.0001 2 2 5q0 4.0002 -10 4zM0 50q26 0 26 -12q0 -3 -2 -6q12 -4 12 -12q0 -14 -36 -20v50z" />
    <glyph glyph-name="B" unicode="&#x392;" 
d="M8 24v-14q20 5 20 10q0 3 -4 4h-16zM8 41v-9h8q2.0001 2 2 5q0 4.0002 -10 4zM0 50q26 0 26 -12q0 -3 -2 -6q12 -4 12 -12q0 -14 -36 -20v50z" />
    <glyph glyph-name="a" unicode="a" horiz-adv-x="37" 
d="M0 21h21q0 4 -13 4h-8v7h8q21 0 21 -11v-21q-15 0 -20 2q-9 4 -9 12v7zM21 14h-13q0 -3 1 -4q3 -3 12 -3v7z" />
    <glyph glyph-name="a" unicode="&#x430;" horiz-adv-x="37" 
d="M0 21h21q0 4 -13 4h-8v7h8q21 0 21 -11v-21q-15 0 -20 2q-9 4 -9 12v7zM21 14h-13q0 -3 1 -4q3 -3 12 -3v7z" />
    <glyph glyph-name="b" unicode="b" horiz-adv-x="37" 
d="M0 0v50h8v-18h15q6 -5 6 -13q0 -11 -21 -19h-8zM21 19q0 3.0001 -2 5h-11v-14q13 4 13 9z" />
    <glyph glyph-name="c" unicode="c" horiz-adv-x="33" 
d="M26 32v-8h-11q-7 -1 -7 -5t6 -8q4 -3 12 -3v-8q-11 0 -18.5 5t-7.5 15t15 12h11z" />
    <glyph glyph-name="c" unicode="&#x441;" horiz-adv-x="33" 
d="M26 32v-8h-11q-7 -1 -7 -5t6 -8q4 -3 12 -3v-8q-11 0 -18.5 5t-7.5 15t15 12h11z" />
    <glyph glyph-name="d" unicode="d" horiz-adv-x="37" 
d="M8 20q0 -8 13 -11v15h-11q-2.00004 -2 -2 -4zM29 0h-8q-21 5 -21 20q0 7 6 12h15v18h8v-50z" />
    <glyph glyph-name="C" unicode="C" 
d="M36 50v-8h-18q-10 -2 -10 -8q0 -9 8 -17t20 -9v-8q-16 1 -26 11t-10 23t18 16h18z" />
    <glyph glyph-name="C" unicode="&#x421;" 
d="M36 50v-8h-18q-10 -2 -10 -8q0 -9 8 -17t20 -9v-8q-16 1 -26 11t-10 23t18 16h18z" />
    <glyph glyph-name="D" unicode="D" 
d="M0 50h27q9 -5 9 -17.5t-10.5 -22t-25.5 -10.5v50zM8 42v-32q8 1 14 8t6 14q0 6 -5 10h-15z" />
    <glyph glyph-name="I" unicode="I" horiz-adv-x="16" 
d="M0 50h8v-50h-8v50z" />
    <glyph glyph-name="I" unicode="&#x399;" horiz-adv-x="16" 
d="M0 50h8v-50h-8v50z" />
    <glyph glyph-name="I" unicode="&#x406;" horiz-adv-x="16" 
d="M0 50h8v-50h-8v50z" />
    <glyph glyph-name="E" unicode="E" 
d="M36 50v-8h-28v-6h28v-8h-28v-20h28v-8h-36v50h36z" />
    <glyph glyph-name="E" unicode="&#x415;" 
d="M36 50v-8h-28v-6h28v-8h-28v-20h28v-8h-36v50h36z" />
    <glyph glyph-name="E" unicode="&#x395;" 
d="M36 50v-8h-28v-6h28v-8h-28v-20h28v-8h-36v50h36z" />
    <glyph glyph-name="F" unicode="F" 
d="M8 0h-8v50h36v-8h-28v-6h28v-8h-28v-28z" />
    <glyph glyph-name="H" unicode="H" 
d="M8 36h20v14h8v-50h-8v28h-20v-28h-8v50h8v-14z" />
    <glyph glyph-name="H" unicode="&#x41d;" 
d="M8 36h20v14h8v-50h-8v28h-20v-28h-8v50h8v-14z" />
    <glyph glyph-name="H" unicode="&#x397;" 
d="M8 36h20v14h8v-50h-8v28h-20v-28h-8v50h8v-14z" />
    <glyph glyph-name="G" unicode="G" 
d="M28 10v18h-8v8h16v-36q-16 3 -26 12t-10 18q-0 17 17 20h19v-8h-18q-10 -2 -10 -12q0 -13 20 -20z" />
    <glyph glyph-name="J" unicode="J" horiz-adv-x="40" 
d="M32 50v-28q0 -12 -10 -17q-8.3333 -5 -22 -5v8q25 0 25 14v28h7z" />
    <glyph glyph-name="J" unicode="&#x408;" horiz-adv-x="40" 
d="M32 50v-28q0 -12 -10 -17q-8.3333 -5 -22 -5v8q25 0 25 14v28h7z" />
    <glyph glyph-name="K" unicode="K" 
d="M36 -0h-10l-18 25v-25h-8v50h8v-12l15 12h13l-23 -18z" />
    <glyph glyph-name="K" unicode="&#x41a;" 
d="M36 -0h-10l-18 25v-25h-8v50h8v-12l15 12h13l-23 -18z" />
    <glyph glyph-name="K" unicode="&#x39a;" 
d="M36 -0h-10l-18 25v-25h-8v50h8v-12l15 12h13l-23 -18z" />
    <glyph glyph-name="L" unicode="L" 
d="M8 8h24l4 -8h-36v50h8v-42z" />
    <glyph glyph-name="M" unicode="M" horiz-adv-x="60" 
d="M52 0h-8v26q0 16 -17 16v-42h-8v42h-11v-42h-8v50h27q25.0001 0 25 -24v-26z" />
    <glyph glyph-name="M" unicode="&#x41c;" horiz-adv-x="60" 
d="M52 0h-8v26q0 16 -17 16v-42h-8v42h-11v-42h-8v50h27q25.0001 0 25 -24v-26z" />
    <glyph glyph-name="M" unicode="&#x39c;" horiz-adv-x="60" 
d="M52 0h-8v26q0 16 -17 16v-42h-8v42h-11v-42h-8v50h27q25.0001 0 25 -24v-26z" />
    <glyph glyph-name="N" unicode="N" 
d="M8 41v-41h-8v50h8q16.0001 -8 20 -21v21h8v-50h-8q0 28.0001 -20 41z" />
    <glyph glyph-name="N" unicode="&#x39d;" 
d="M8 41v-41h-8v50h8q16.0001 -8 20 -21v21h8v-50h-8q0 28.0001 -20 41z" />
    <glyph glyph-name="O" unicode="O" horiz-adv-x="48" 
d="M8 20q0 -12 12 -12t12 12q0 22 -12 22t-12 -22zM0 20q0 14 5 21q6 9 15 9q11 0 15 -9q5 -9 5 -21q0 -20 -20 -20t-20 20z" />
    <glyph glyph-name="O" unicode="&#x41e;" horiz-adv-x="48" 
d="M8 20q0 -12 12 -12t12 12q0 22 -12 22t-12 -22zM0 20q0 14 5 21q6 9 15 9q11 0 15 -9q5 -9 5 -21q0 -20 -20 -20t-20 20z" />
    <glyph glyph-name="O" unicode="&#x39f;" horiz-adv-x="48" 
d="M8 20q0 -12 12 -12t12 12q0 22 -12 22t-12 -22zM0 20q0 14 5 21q6 9 15 9q11 0 15 -9q5 -9 5 -21q0 -20 -20 -20t-20 20z" />
    <glyph glyph-name="Q" unicode="Q" horiz-adv-x="48" 
d="M16 0q-16 2 -16 20q0 14 5 21q6 9 15 9q10 0 15 -8.5t5 -21.5q0 -18 -16 -20v-8h-8v8zM16 8v8h8v-8q8 2 8 12q0 22 -12 22t-12 -22q0 -10 8 -12z" />
    <glyph glyph-name="P" unicode="P" 
d="M22 33q6 0 6 5q0 4 -6 4h-14v-9h14zM8 24v-24h-8v50h22q14 0 14 -13t-15 -13h-13z" />
    <glyph glyph-name="P" unicode="&#x420;" 
d="M22 33q6 0 6 5q0 4 -6 4h-14v-9h14zM8 24v-24h-8v50h22q14 0 14 -13t-15 -13h-13z" />
    <glyph glyph-name="P" unicode="&#x3a1;" 
d="M22 33q6 0 6 5q0 4 -6 4h-14v-9h14zM8 24v-24h-8v50h22q14 0 14 -13t-15 -13h-13z" />
    <glyph glyph-name="R" unicode="R" horiz-adv-x="49" 
d="M21 33q6 0 6 5q0 4 -6 4h-13v-9h13zM41 -0h-10l-12 24h-11v-24h-8v50h24q12 0 12 -13q0 -7 -8 -12z" />
    <glyph glyph-name="S" unicode="S" horiz-adv-x="51" 
d="M36 50v-8q-25 0 -25 -4t12 -4q20 0 20 -13q0 -21 -43 -21v8q35 0 35 13q0 5 -15 5q-17 0 -17 12t33 12z" />
    <glyph glyph-name="S" unicode="&#x405;" horiz-adv-x="51" 
d="M36 50v-8q-25 0 -25 -4t12 -4q20 0 20 -13q0 -21 -43 -21v8q35 0 35 13q0 5 -15 5q-17 0 -17 12t33 12z" />
    <glyph glyph-name="T" unicode="T" 
d="M11 0v42h-11v8h36l-4 -8h-13v-42h-8z" />
    <glyph glyph-name="T" unicode="&#x422;" 
d="M11 0v42h-11v8h36l-4 -8h-13v-42h-8z" />
    <glyph glyph-name="T" unicode="&#x3a4;" 
d="M11 0v42h-11v8h36l-4 -8h-13v-42h-8z" />
    <glyph glyph-name="U" unicode="U" 
d="M8 32q0 -18 20 -23v41h8v-50q-16 0 -26 9t-10 23v18h8v-18z" />
    <glyph glyph-name="V" unicode="V" 
d="M0 50h8v-39q20 15 20 39h8q0 -32 -28 -50h-8v50z" />
    <glyph glyph-name="W" unicode="W" horiz-adv-x="66" 
d="M58 30q0 -30 -29 -30t-29 30v20h8v-20q0 -22 17 -22v42h8v-42q17 0 17 22v20h8v-20z" />
    <glyph glyph-name="X" unicode="X" horiz-adv-x="48" 
d="M31 0l-11 21l-11 -21h-9l15 30l-10 20h9l6 -11l6 11h9l-10 -20l15 -30h-9z" />
    <glyph glyph-name="X" unicode="&#x425;" horiz-adv-x="48" 
d="M31 0l-11 21l-11 -21h-9l15 30l-10 20h9l6 -11l6 11h9l-10 -20l15 -30h-9z" />
    <glyph glyph-name="X" unicode="&#x3a7;" horiz-adv-x="48" 
d="M31 0l-11 21l-11 -21h-9l15 30l-10 20h9l6 -11l6 11h9l-10 -20l15 -30h-9z" />
    <glyph glyph-name="Y" unicode="Y" horiz-adv-x="48" 
d="M20 39l10 11h10l-16 -18v-32h-8v32l-16 18h10z" />
    <glyph glyph-name="Y" unicode="&#x3a5;" horiz-adv-x="48" 
d="M20 39l10 11h10l-16 -18v-32h-8v32l-16 18h10z" />
    <glyph glyph-name="Z" unicode="Z" horiz-adv-x="48" 
d="M36 8l4 -8h-40l22 42h-13l-4 8h30l-22 -42h23z" />
    <glyph glyph-name="Z" unicode="&#x396;" horiz-adv-x="48" 
d="M36 8l4 -8h-40l22 42h-13l-4 8h30l-22 -42h23z" />
    <glyph glyph-name="l" unicode="l" horiz-adv-x="15" 
d="M0 50l8 -6v-44h-8v50z" />
    <glyph glyph-name="one" unicode="1" horiz-adv-x="16" 
d="M0 44l8 6v-50h-8v44z" />
    <glyph glyph-name="e" unicode="e" horiz-adv-x="38" 
d="M22 20v5q-13 0 -13 -5h13zM30 14h-21q2 -6 16 -6h5v-8h-5q-25 0 -25 17q0 15 17 15h13v-18z" />
    <glyph glyph-name="e" unicode="&#x435;" horiz-adv-x="38" 
d="M22 20v5q-13 0 -13 -5h13zM30 14h-21q2 -6 16 -6h5v-8h-5q-25 0 -25 17q0 15 17 15h13v-18z" />
    <glyph glyph-name="f" unicode="f" horiz-adv-x="28" 
d="M8 21h8v-8h-8v-20h-8v33q0 11 7.5 17.5t12.5 6.5v-8l-3.5 -1q-2.5 -1 -5.5 -5t-3 -10v-5z" />
    <glyph glyph-name="n" unicode="n" horiz-adv-x="36" 
d="M20 14q0 10 -12 10v-24h-8v32h8q20 0 20 -18v-14h-8v14z" />
    <glyph glyph-name="h" unicode="h" horiz-adv-x="36" 
d="M28 0h-8v14q0 10 -12 10v-24h-8v50h8v-18q20 0 20 -18v-14z" />
    <glyph glyph-name="g" unicode="g" horiz-adv-x="34" 
d="M18.7412 0q-6 2 -12 5q-9 5 -9 14q0 8 6 13h23v-32q0 -14 -18 -14h-11v8h11q9.99999 0 9.99999 6zM18.7412 24h-11q-2 -2 -2 -4q0 -4 4 -7q3.99999 -3 8.99999 -4v15z" />
    <glyph glyph-name="i" unicode="i" horiz-adv-x="16" 
d="M0 50.0039h7.99805v-8.00391h-7.99805v8.00391zM0 32h8v-32h-8v32z" />
    <glyph glyph-name="i" unicode="&#x456;" horiz-adv-x="16" 
d="M0 50.0039h7.99805v-8.00391h-7.99805v8.00391zM0 32h8v-32h-8v32z" />
    <glyph glyph-name="j" unicode="j" horiz-adv-x="32" 
d="M16 50.0039h7.99805v-8.00391h-7.99805v8.00391zM16 32h8v-19q0 -27 -24 -27v8q16 0 16 19v19z" />
    <glyph glyph-name="j" unicode="&#x2b2;" horiz-adv-x="32" 
d="M16 50.0039h7.99805v-8.00391h-7.99805v8.00391zM16 32h8v-19q0 -27 -24 -27v8q16 0 16 19v19z" />
    <glyph glyph-name="k" unicode="k" horiz-adv-x="40" 
d="M13 18l19 -18h-11l-13 12v-12h-8v50h8v-26l16 8l3 -7z" />
    <glyph glyph-name="m" unicode="m" horiz-adv-x="54" 
d="M46 13v-13h-8v13q-0.000198364 11 -11 11v-24h-8v24h-11v-24h-8v32h27q19 0 19 -19z" />
    <glyph glyph-name="o" unicode="o" horiz-adv-x="38" 
d="M8 14q0 -6 7 -6t7 6q-9.91821e-05 10 -7 10q-7 0 -7 -10zM0 13q0 8 4.5 13.5t10.5 5.5q6 -9.91821e-05 10.5 -5.5q4.5 -5.5 4.5 -13.5q0 -13 -15 -13t-15 13z" />
    <glyph glyph-name="o" unicode="&#x43e;" horiz-adv-x="38" 
d="M8 14q0 -6 7 -6t7 6q-9.91821e-05 10 -7 10q-7 0 -7 -10zM0 13q0 8 4.5 13.5t10.5 5.5q6 -9.91821e-05 10.5 -5.5q4.5 -5.5 4.5 -13.5q0 -13 -15 -13t-15 13z" />
    <glyph glyph-name="o" unicode="&#x3bf;" horiz-adv-x="38" 
d="M8 14q0 -6 7 -6t7 6q-9.91821e-05 10 -7 10q-7 0 -7 -10zM0 13q0 8 4.5 13.5t10.5 5.5q6 -9.91821e-05 10.5 -5.5q4.5 -5.5 4.5 -13.5q0 -13 -15 -13t-15 13z" />
    <glyph glyph-name="p" unicode="p" horiz-adv-x="37" 
d="M8 24v-15q4 0 8 3q5 4 5 7q0 3.0001 -2 5h-11zM8 -14h-8v46h23q6 -5 6 -12q0 -8 -9 -15q-4 -3 -12 -5v-14z" />
    <glyph glyph-name="p" unicode="&#x440;" horiz-adv-x="37" 
d="M8 24v-15q4 0 8 3q5 4 5 7q0 3.0001 -2 5h-11zM8 -14h-8v46h23q6 -5 6 -12q0 -8 -9 -15q-4 -3 -12 -5v-14z" />
    <glyph glyph-name="q" unicode="q" horiz-adv-x="37" 
d="M21 24h-11q-2.00001 -2 -2 -5q0 -3 5 -7q4 -3 8 -3v15zM21 -14v14q-8 2 -12 5q-9 7 -9 15q0 7 6 12h23v-46h-8z" />
    <glyph glyph-name="r" unicode="r" horiz-adv-x="34" 
d="M19 24q-11 -9.91821e-05 -11 -7v-17h-8v17q0 15 19 15h7v-8h-7z" />
    <glyph glyph-name="r" unicode="&#x2b3;" horiz-adv-x="34" 
d="M19 24q-11 -9.91821e-05 -11 -7v-17h-8v17q0 15 19 15h7v-8h-7z" />
    <glyph glyph-name="s" unicode="s" horiz-adv-x="37" 
d="M23 21q6 0 6 -6v-4q0 -11 -29 -11v8q21 0 21 5h-7q-14 0 -14 9.5t14 9.5h15v-7h-15q-5 0 -5 -2t5 -2h9z" />
    <glyph glyph-name="s" unicode="&#x17f;" horiz-adv-x="37" 
d="M23 21q6 0 6 -6v-4q0 -11 -29 -11v8q21 0 21 5h-7q-14 0 -14 9.5t14 9.5h15v-7h-15q-5 0 -5 -2t5 -2h9z" />
    <glyph glyph-name="s" unicode="&#x455;" horiz-adv-x="37" 
d="M23 21q6 0 6 -6v-4q0 -11 -29 -11v8q21 0 21 5h-7q-14 0 -14 9.5t14 9.5h15v-7h-15q-5 0 -5 -2t5 -2h9z" />
    <glyph glyph-name="period" unicode="." horiz-adv-x="16" 
d="M0 8.00391h7.99805v-8.00391h-7.99805v8.00391z" />
    <glyph glyph-name="colon" unicode=":" horiz-adv-x="16" 
d="M0 32.0039h7.99805v-8.00391h-7.99805v8.00391zM0 8.00391h7.99805v-8.00391h-7.99805v8.00391z" />
    <glyph glyph-name="u" unicode="u" horiz-adv-x="37" 
d="M8 32q0 -23 13 -23v23h8v-32h-8q-21 0 -21 32h8z" />
    <glyph glyph-name="t" unicode="t" horiz-adv-x="30" 
d="M17 24h-9q0 -7 4.5 -11.5t9.5 -4.5v-8q-7 0 -14.5 6.5t-7.5 17.5v26h8v-18h9v-8z" />
    <glyph glyph-name="v" unicode="v" horiz-adv-x="37" 
d="M29.001 31.998q0 -11.0155 -7.1928 -20.4247q-7.1928 -9.4092 -15.3082 -11.5733h-6.5v32h8.16667l-0.000649452 -22.167q5.09518 3.1164 8.96548 10.2169q3.8703 7.1004 3.8773 11.9501z" />
    <glyph glyph-name="w" unicode="w" horiz-adv-x="54" 
d="M46 21q0 -21 -23 -21t-23 21v11h8v-11q0 -13 11 -13v24h8v-24q11 0 11 13v11h8v-11z" />
    <glyph glyph-name="w" unicode="&#x2b7;" horiz-adv-x="54" 
d="M46 21q0 -21 -23 -21t-23 21v11h8v-11q0 -13 11 -13v24h8v-24q11 0 11 13v11h8v-11z" />
    <glyph glyph-name="x" unicode="x" horiz-adv-x="40" 
d="M6 32l10 -10l10 10l6 -6l-10 -10l10 -10l-6 -6l-10 10l-10 -10l-6 6l10 10l-10 10z" />
    <glyph glyph-name="x" unicode="&#x445;" horiz-adv-x="40" 
d="M6 32l10 -10l10 10l6 -6l-10 -10l10 -10l-6 -6l-10 10l-10 -10l-6 6l10 10l-10 10z" />
    <glyph glyph-name="y" unicode="y" horiz-adv-x="36" 
d="M20 5q-20 0 -20 27h8q0 -18 12 -18v18h8v-27q0 -19 -18 -19h-5v8h5q10 0 10 11z" />
    <glyph glyph-name="y" unicode="&#x2b8;" horiz-adv-x="36" 
d="M20 5q-20 0 -20 27h8q0 -18 12 -18v18h8v-27q0 -19 -18 -19h-5v8h5q10 0 10 11z" />
    <glyph glyph-name="y" unicode="&#x443;" horiz-adv-x="36" 
d="M20 5q-20 0 -20 27h8q0 -18 12 -18v18h8v-27q0 -19 -18 -19h-5v8h5q10 0 10 11z" />
    <glyph glyph-name="z" unicode="z" horiz-adv-x="39" 
d="M0 32h29l-16 -24h18v-8h-33l16 24h-14v8z" />
    <glyph glyph-name="backslash" unicode="\" horiz-adv-x="50" 
d="M9 50.0566l33 -64h-9l-33 64h9z" />
    <glyph glyph-name="comma" unicode="," horiz-adv-x="16" 
d="M8 8q0 -13 -7 -19l-5 6q4 4 4 13h8z" />
    <glyph glyph-name="semicolon" unicode=";" horiz-adv-x="16" 
d="M0 32.0039h7.99805v-8.00391h-7.99805v8.00391zM8 8q0 -13 -7 -19l-5 6q4 4 4 13h8z" />
    <glyph glyph-name="semicolon" unicode="&#x37e;" horiz-adv-x="16" 
d="M0 32.0039h7.99805v-8.00391h-7.99805v8.00391zM8 8q0 -13 -7 -19l-5 6q4 4 4 13h8z" />
    <glyph glyph-name="hyphen" unicode="-" horiz-adv-x="25" 
d="M0 12v8h17v-8h-17z" />
    <glyph glyph-name="exclam" unicode="!" horiz-adv-x="16" 
d="M0 49.8359h7.99805v-33.832h-7.99805v33.832zM0 8.00391h7.99805v-8.00391h-7.99805v8.00391z" />
    <glyph glyph-name="slash" unicode="/" horiz-adv-x="50" 
d="M9 -14h-9l33 64h9z" />
    <glyph glyph-name="equal" unicode="=" horiz-adv-x="30" 
d="M0 19v8h22v-8h-22zM0 5v8h22v-8h-22z" />
    <glyph glyph-name="quotesingle" unicode="'" horiz-adv-x="16" 
d="M0 50h8v-14h-8v14z" />
    <glyph glyph-name="quotesingle" unicode="&#x2bc;" horiz-adv-x="16" 
d="M0 50h8v-14h-8v14z" />
    <glyph glyph-name="quotesingle" unicode="&#x2b9;" horiz-adv-x="16" 
d="M0 50h8v-14h-8v14z" />
    <glyph glyph-name="quotedbl" unicode="&#x22;" horiz-adv-x="30" 
d="M14 50h8v-14h-8v14zM0 50h8v-14h-8v14z" />
    <glyph glyph-name="quotedbl" unicode="&#x30e;" horiz-adv-x="30" 
d="M14 50h8v-14h-8v14zM0 50h8v-14h-8v14z" />
    <glyph glyph-name="quotedbl" unicode="&#x30b;" horiz-adv-x="30" 
d="M14 50h8v-14h-8v14zM0 50h8v-14h-8v14z" />
    <glyph glyph-name="quotedbl" unicode="&#x2ba;" horiz-adv-x="30" 
d="M14 50h8v-14h-8v14zM0 50h8v-14h-8v14z" />
    <glyph glyph-name="underscore" unicode="_" horiz-adv-x="35" 
d="M-0 8h27v-8h-27v8z" />
    <glyph glyph-name="bracketleft" unicode="[" horiz-adv-x="24" 
d="M8 -6h8v-8h-16v64h16v-8h-8v-48z" />
    <glyph glyph-name="bracketright" unicode="]" horiz-adv-x="24" 
d="M8 42h-8v8h16v-64h-16v8h8v48z" />
    <glyph glyph-name="grave" unicode="`" horiz-adv-x="20" 
d="M0 46.0039h5.99805l7.99995 -10.0039h-9.998z" />
    <glyph glyph-name="percent" unicode="%" 
d="M26 8q0 -2 2 -2q2.0001 0 2 2q0 2 -2 2q-2 -9.53674e-06 -2 -2zM6 35q0 -2.0009 2 -2q2 0 2 2q-9.53674e-06 2 -2 2q-2 -0.000198364 -2 -2zM20 8q0 8 8 8t8 -8q-0.000198364 -8 -8 -8q-8 0 -8 8zM0 35q0 8 8 8q8 -0.000198364 8 -8q0 -8 -8 -8t-8 8zM7 -2l-7 5l29 42
l7 -5z" />
    <glyph glyph-name="zero" unicode="0" 
d="M8 20q0 -12 10 -12t10 12q0 22 -10 22t-10 -22zM0 20q0 12 5.5 21t12.5 9q8 0 13 -9t5 -21q0 -20 -18 -20t-18 20z" />
    <glyph glyph-name="two" unicode="2" horiz-adv-x="48" 
d="M4 50h15q16 -9.91821e-05 16 -11q0 -6 -22 -31h23l4 -8h-37l-3 7q27 27 27 32q0 3 -8 3h-12z" />
    <glyph glyph-name="three" unicode="3" 
d="M0 7q28 7 28 13q0 3 -4 4h-24v8h16q2.0001 2 2 5q0 6 -18 6v7q26 0 26 -12q0 -4 -2 -6q12 -4 12 -12q0 -14 -36 -20v7z" />
    <glyph glyph-name="four" unicode="4" 
d="M8 34q0 -14 20 -14v30h8v-50h-8v12q-28 2 -28 22v16h8v-16z" />
    <glyph glyph-name="five" unicode="5" horiz-adv-x="48" 
d="M16 36q24 -2 24 -14q0 -19 -40 -22v8q9 0 20.5 4t11.5 10t-24 6v22h27l-4 -8h-15v-6z" />
    <glyph glyph-name="six" unicode="6" horiz-adv-x="45" 
d="M11 31q2 1 8 1q18 0 18 -16t-18.5 -16t-18.5 19q0 11 8 21q7 9.0001 21 10v-8q-11 -1 -18 -11zM8 16q0 -8 10.5 -8t10.5 8t-10.5 8t-10.5 -8z" />
    <glyph glyph-name="seven" unicode="7" 
d="M23 0h-8q0 21 9 42h-24v8h36q-13 -27 -13 -50z" />
    <glyph glyph-name="plus" unicode="+" horiz-adv-x="32" 
d="M8 28h8v-8h8v-8h-8v-8h-8v8h-8v8h8v8z" />
    <glyph glyph-name="question" unicode="?" horiz-adv-x="35" 
d="M19 24l-8 -9l-6 5l8 9q5 6 5 9q0 4 -10 4h-8v8h8q19 0 19 -11q0 -6 -8 -15zM4 0v8l7.999 0.000980377l-0.000999451 -8.00098h-7.998z" />
    <glyph glyph-name="eight" unicode="8" horiz-adv-x="46" 
d="M14 28q-6 -5 -6 -13q0 -7 11 -7t11 7q0 8 -6 13h-10zM15 36h8q-9.91821e-05 6 -4 6q-4 0 -4 -6zM6 32q0 18 13 18t13 -18q6 -5 6 -18q0 -14 -19 -14t-19 13.5t6 18.5z" />
    <glyph glyph-name="nine" unicode="9" horiz-adv-x="45" 
d="M26 19q-2 -1 -8 -1q-18 0 -18 16t19 16q18 0 18 -19q0 -11 -7 -20q-8 -10 -22 -11v8q11 1 18 11zM29 34q0 8 -10 8q-11 -0.000198364 -11 -8q0 -8 10.5 -8t10.5 8z" />
    <glyph glyph-name="parenleft" unicode="(" horiz-adv-x="25" 
d="M17 -14h-9q-8 14 -8 32t8 32h9q-9 -16 -9 -32q0 -15 9 -32z" />
    <glyph glyph-name="parenright" unicode=")" horiz-adv-x="25" 
d="M0 50h9q8 -14 8 -32t-8 -32h-9q9 16 9 32q0 15 -9 32z" />
    <glyph glyph-name="asterisk" unicode="*" horiz-adv-x="36" 
d="M0 20h7l-4 7l7 4l4 -7l4 7l7 -4l-4 -7h7v-8h-7l4 -7l-7 -4l-4 7l-4 -7l-7 4l4 7h-7v8z" />
    <glyph glyph-name="at" unicode="@" horiz-adv-x="56" 
d="M35 42q-27 0 -27 -11q0 -7 8 -15q10 -8 24 -8v-8q-19 0 -30 11q-10 10 -10 20q0 19 38 19q10 -9 10 -38h-12q-10 0 -16 5t-6 12q0 9.0909 15.7025 9.0909q1.5702 0 3.2975 -0.0909004q3 -6 3 -18h4q0 14 -5 22zM29 21q0 5 -1 9q-6 0 -6 -2q0 -5 7 -7z" />
    <glyph glyph-name="ampersand" unicode="&#x26;" horiz-adv-x="50" 
d="M30 15h-5v8h17v-8h-4q0 -15 -19 -15t-19 11t6 14q0 17 13 17h10v-8h-10q-4 0 -4 -6h5v-8h-6q-6 0 -6 -6t11 -6t11 7z" />
    <glyph glyph-name="dollar" unicode="$" horiz-adv-x="43" 
d="M22 0h-9l-0.0286999 6.37092q-5.73282 -0.57112 -12.9713 -0.57112v9.6006q25.2002 0 25.2002 6h-8.4004q-16.7998 0 -16.7998 11.3994q0 9.9622 12.8291 11.2188l0.1709 5.9814h9l0.1143 -5.7998h12.6855v-8.4004h-18q-6 0 -6 -2.3994q0 -2.4004 6 -2.4004h10.7998
q7.2002 0 7.2002 -7.2002v-4.7998q0 -7.9698 -12.6856 -11.1277z" />
    <glyph glyph-name="less" unicode="&#x3c;" horiz-adv-x="28" 
d="M0 17l12 15h8l-10 -15l10 -17h-8z" />
    <glyph glyph-name="greater" unicode="&#x3e;" horiz-adv-x="28" 
d="M20 15l-12 -15h-8l10 15l-10 17h8z" />
    <glyph glyph-name="asciicircum" unicode="^" horiz-adv-x="32" 
d="M12 50l12 -14h-8l-4 3l-4 -3h-8z" />
    <glyph glyph-name="asciicircum" unicode="&#x302;" horiz-adv-x="32" 
d="M12 50l12 -14h-8l-4 3l-4 -3h-8z" />
    <glyph glyph-name="asciicircum" unicode="&#x2c6;" horiz-adv-x="32" 
d="M12 50l12 -14h-8l-4 3l-4 -3h-8z" />
    <glyph glyph-name="asciicircum" unicode="&#x2c4;" horiz-adv-x="32" 
d="M12 50l12 -14h-8l-4 3l-4 -3h-8z" />
    <glyph glyph-name="numbersign" unicode="#" horiz-adv-x="48" 
d="M32 24v-8h8v-8h-8v-8h-8v8h-8v-8h-8v8h-8v8h8v8h-8v8h8v8h8v-8h8v8h8v-8h8v-8h-8zM24 24h-8v-8h8v8z" />
    <glyph glyph-name="uni009C" horiz-adv-x="36" 
d="M0 66h28v-80h-28v80z" />
    <glyph glyph-name="Adieresis" unicode="&#xc4;" 
d="M25 62h8v-8h-8v8zM13 62h8v-8h-8v8zM8 18v-18h-8v19q0 17 11 25q7 5 17 6h8v-50h-8v24h-19q-1 -3 -1 -6zM11 32h17v9q-10 0 -17 -9z" />
    <glyph glyph-name="adieresis" unicode="&#xe4;" horiz-adv-x="37" 
d="M16 44h8v-8h-8v8zM4 44h8v-8h-8v8zM0 21h21q0 4 -13 4h-8v7h8q21 0 21 -11v-21q-15 0 -20 2q-9 4 -9 12v7zM21 14h-13q0 -3 1 -4q3 -3 12 -3v7z" />
    <glyph glyph-name="dieresis" unicode="&#xa8;" 
d="M24 63h8v-8h-8v8zM12 63h8v-8h-8v8z" />
    <glyph glyph-name="dieresis" unicode="&#x308;" 
d="M24 63h8v-8h-8v8zM12 63h8v-8h-8v8z" />
    <glyph glyph-name="degree" unicode="&#xb0;" horiz-adv-x="64" 
d="M12.0977 41.0171q0 -2.9888 1.9912 -2.9888t1.9912 2.9888t-1.9912 2.9888t-1.9912 -2.9888zM6.41699 40.9336q0 7 7.50001 7q7.5 0 7.5 -7t-7.5 -7q-7.50001 0 -7.50001 7z" />
    <glyph glyph-name="degree" unicode="&#x30a;" horiz-adv-x="64" 
d="M12.0977 41.0171q0 -2.9888 1.9912 -2.9888t1.9912 2.9888t-1.9912 2.9888t-1.9912 -2.9888zM6.41699 40.9336q0 7 7.50001 7q7.5 0 7.5 -7t-7.5 -7q-7.50001 0 -7.50001 7z" />
    <glyph glyph-name="aring" unicode="&#xe5;" horiz-adv-x="37" 
d="M13.1807 42.084q0 -2.98926 1.99121 -2.98926t1.99121 2.98926q0 2.98828 -1.99121 2.98828t-1.99121 -2.98828zM7.5 42q0 7 7.5 7t7.5 -7t-7.5 -7t-7.5 7zM0 21h21q0 4 -13 4h-8v7h8q21 0 21 -11v-21q-15 0 -20 2q-9 4 -9 12v7zM21 14h-13q0 -3 1 -4q3 -3 12 -3v7z" />
    <glyph glyph-name="Aring" unicode="&#xc5;" 
d="M21.1807 59.6172q0 -2.98926 1.99121 -2.98926t1.99121 2.98926q0 2.98828 -1.99121 2.98828t-1.99121 -2.98828zM15.5 59.5332q0 7 7.5 7t7.5 -7t-7.5 -7t-7.5 7zM8.10059 17.7998v-18h-8v19q0 17 11 25q7 5 17 6h8v-50h-8v24h-19q-1 -3 -1 -6zM11.1006 31.7998h17v9
q-10 0 -17 -9z" />
    <glyph glyph-name="egrave" unicode="&#xe8;" horiz-adv-x="38" 
d="M7.625 46.0039h5.99805l8 -10.0039h-9.99805zM22 20v5q-13 0 -13 -5h13zM30 14h-21q2 -6 16 -6h5v-8h-5q-25 0 -25 17q0 15 17 15h13v-18z" />
    <glyph glyph-name="acute" unicode="&#xb4;" horiz-adv-x="20" 
d="M0 36.3994h5.99805l7.99995 10.0039h-9.998z" />
    <glyph glyph-name="acute" unicode="&#x301;" horiz-adv-x="20" 
d="M0 36.3994h5.99805l7.99995 10.0039h-9.998z" />
    <glyph glyph-name="eacute" unicode="&#xe9;" horiz-adv-x="38" 
d="M12.5 35h5.99805l8 10.0039h-9.99805zM22 20v5q-13 0 -13 -5h13zM30 14h-21q2 -6 16 -6h5v-8h-5q-25 0 -25 17q0 15 17 15h13v-18z" />
    <glyph glyph-name="Egrave" unicode="&#xc8;" 
d="M10 63.0039h5.99805l8 -10.0039h-9.99805zM36 50v-8h-28v-6h28v-8h-28v-20h28v-8h-36v50h36z" />
    <glyph glyph-name="Eacute" unicode="&#xc9;" 
d="M14 53h5.99805l8 10.0039h-9.99805zM36 50v-8h-28v-6h28v-8h-28v-20h28v-8h-36v50h36z" />
    <glyph glyph-name="cedilla" unicode="&#xb8;" horiz-adv-x="35" 
d="M13 -3v3h6v-2q6 -3 6 -6q0 -6 -11 -6h-5v4h5q5 0 5 1.5t-6 5.5z" />
    <glyph glyph-name="Ccedilla" unicode="&#xc7;" 
d="M17.3027 1.13086v4.14258h7.19824v-2.76172q7.19824 -4.1416 7.19824 -8.28418q0 -8.28418 -13.1973 -8.28418h-5.99805v5.52246h5.99805q5.99902 0 5.99902 2.07129t-7.19824 7.59375zM36 50v-8h-18q-10 -2 -10 -8q0 -9 8 -17t20 -9v-8q-16 1 -26 11t-10 23t18 16h18z
" />
    <glyph glyph-name="ccedilla" unicode="&#xe7;" horiz-adv-x="33" 
d="M0 20q0 10 15 12h11v-8h-11q-7 -1 -7 -5t6 -8q4 -3 12 -3v-8q-4 0 -7 1v-1q7 -4 7 -7q0 -7 -13 -7h-5v5h5q7 0 7 2q0 1 -8 6v4q-12 7 -12 17z" />
    <glyph glyph-name="CYRILLI_CAPITAL_BE" unicode="&#x411;" 
d="M8 41v-9h16.001q11.999 -4 11.999 -12q0 -14 -36 -20v50l28.999 -0.00289917l0.000999451 -9.003zM8 24v-14q20 5 20 10q0 3 -4 4h-16z" />
    <glyph glyph-name="Ecircumflex" unicode="&#xca;" 
d="M19 67l12 -14h-8l-4 3l-4 -3h-8zM36 50v-8h-28v-6h28v-8h-28v-20h28v-8h-36v50h36z" />
    <glyph glyph-name="AE" unicode="&#xc6;" horiz-adv-x="60" 
d="M11 32h13v9q-6 0 -13 -9zM52 50v-8h-20v-6h20v-8h-20v-20h20v-8h-28v24h-15q-1 -3 -1 -6v-18h-8v19q0 15.2597 11 25q7.9053 6 13 6h28z" />
    <glyph glyph-name="ae" unicode="&#xe6;" horiz-adv-x="59" 
d="M26 29q3 3 9 3h16v-18h-21v-6h21v-8h-22q-15 0 -20 2q-9 4 -9 12v7h21q0 4 -13 4h-8v7h17q6 0 9 -3zM43 21v5q-13 0 -13 -5h13zM21 14h-13q0 -3 1 -4q3 -3 12 -3v7z" />
    <glyph glyph-name="Thorn" unicode="&#xde;" 
d="M22 23q6 0 6 4t-6 4h-14v-8h14zM8 14v-14h-8v50l8 0.00289917l-0.0009799 -11l14.001 -0.00289917q14 0 14 -12.5t-15 -12.5h-13z" />
    <glyph glyph-name="germandbls" unicode="&#xdf;" 
d="M26 32q10 -3 10 -11q0 -13 -20 -21v8q12 6 12 12q0 4.5 -10 7v5q0 9 -10 9v-41h-8v50q26 0 26 -18z" />
    <glyph glyph-name="Oslash" unicode="&#xd8;" horiz-adv-x="48" 
d="M14.4429 8.85714q2.35 -0.85714 5.5571 -0.85714q12 0 12 12q0 8.7335 -1.8911 14zM25.1006 40.7143q-2.1996 1.2857 -5.1006 1.2857q-12 0 -12 -22q0 -3.315 0.91579 -5.7143zM0 20q0 14 5 21q6 9 15 9q11 0 15 -9q5 -9 5 -21q0 -20 -20 -20t-20 20z" />
    <glyph glyph-name="Odieresis" unicode="&#xd6;" horiz-adv-x="48" 
d="M22 61h8v-8h-8v8zM10 61h8v-8h-8v8zM8 20q0 -12 12 -12t12 12q0 22 -12 22t-12 -22zM0 20q0 14 5 21q6 9 15 9q11 0 15 -9q5 -9 5 -21q0 -20 -20 -20t-20 20z" />
    <glyph glyph-name="odieresis" unicode="&#xf6;" horiz-adv-x="38" 
d="M17 44h8v-8h-8v8zM5 44h8v-8h-8v8zM8 14q0 -6 7 -6t7 6q0 10 -7 10t-7 -10zM0 13q0 8 4.5 13.5t10.5 5.5t10.5 -5.5t4.5 -13.5q0 -13 -15 -13t-15 13z" />
    <glyph glyph-name="oslash" unicode="&#xf8;" horiz-adv-x="38" 
d="M15.8792 23.9579q-0.4249 0.0421009 -0.8792 0.0421009q-7 0 -7 -10q0 -1.3093 0.33333 -2.3329zM14.0833 8.02756q0.442301 -0.0275602 0.9167 -0.0275602q7 0 7 6q0 3.2605 -0.744101 5.4579zM25.498 26.5068q4.502 -5.5068 4.502 -13.5068q0 -13 -15 -13
q-3.1151 0 -5.58333 0.56068l-0.424479 -0.571422l-7.9961 0.00781251l2.33724 3.6353q-3.33333 3.23937 -3.33333 9.36763q0 8 4.5 13.5t10.5 5.5q2.7868 0 5.25 -1.1865l0.747101 1.1933l8.0078 0.00299835z" />
    <glyph glyph-name="thorn" unicode="&#xfe;" horiz-adv-x="37" 
d="M23 0h-15v-14h-8v53h8v-15h15q6 -5 6 -12t-6 -12zM8 8h11q2 2 2 4t-2 4h-11v-8z" />
    <glyph glyph-name="plusminus" unicode="&#xb1;" horiz-adv-x="32" 
d="M0 0v8h24v-8h-24zM8 35h8v-8h8v-8h-8v-8h-8v8h-8v8h8v8z" />
    <glyph glyph-name="afii10020" unicode="&#x413;" 
d="M8 0h-8v50h36l-5 -8h-23v-42z" />
    <glyph glyph-name="afii10020" unicode="&#x393;" 
d="M8 0h-8v50h36l-5 -8h-23v-42z" />
    <glyph glyph-name="afii10021" unicode="&#x414;" 
d="M0 0v19q0 17 11 25q7 5 17 6h8v-50h-36zM28 8v33q-20 -1 -20 -23l0.00292969 -10.001z" />
    <glyph glyph-name="afii10024" unicode="&#x416;" horiz-adv-x="72" 
d="M36 0l-8.0049 0.000976562v25l-18 -25h-10l23.0049 31.999l-23 18h13l15 -12v12h8v-12l15 12h13l-23 -18l23 -32h-10l-18 25v-25z" />
    <glyph glyph-name="afii10042" unicode="&#x428;" horiz-adv-x="60" 
d="M27 8.00098h17v42h8l0.000999451 -49.999l-52.001 -0.000976558v50h8v-42h11v42h8v-42z" />
    <glyph glyph-name="afii10049" unicode="&#x42f;" horiz-adv-x="49" 
d="M20.0283 33h13v9h-13q-6 0 -6 -4q0 -5 6 -5zM0.0283203 0l13 25q-7.99998 5 -7.99998 12q0 13 12 13h24v-50h-8v24h-11l-12 -24h-9.99998z" />
    <glyph glyph-name="afii10025" unicode="&#x417;" 
d="M0 7q28 7 28 13q0 3 -4 4h-24v8h16q2 2 2 5q0 6 -18 6v7q26 0 26 -12q0 -4 -2 -6q12 -4 12 -12q0 -14 -36 -20v7z" />
    <glyph glyph-name="afii10033" unicode="&#x41f;" horiz-adv-x="41" 
d="M8 0h-8v50h33v-50l-8 0.00292969l-0.000999451 41.9981l-16.999 -0.000999451v-42z" />
    <glyph glyph-name="afii10043" unicode="&#x429;" horiz-adv-x="60" 
d="M0 0.000976562v50h8v-42h11v42h8v-42h17v42h8l0.00780106 -59.0117l-8.2187 0.0107403v9z" />
    <glyph glyph-name="afii10045" unicode="&#x42b;" horiz-adv-x="50" 
d="M34 50h8v-50h-8v50zM0 0v50h8v-18h15q6 -5 6 -13q0 -11 -21 -19h-8zM21 19q0 3 -2 5h-11v-14q13 4 13 9z" />
    <glyph glyph-name="afii10048" unicode="&#x42e;" horiz-adv-x="62" 
d="M8 15v-15h-8v50h8v-29h6q0 13 5 20q6 9 15 9q10 0 15 -9t5 -21q0 -20 -19 -20t-21 15h-6zM22 20q0 -12 12 -12t12 12q0 22 -12 22t-12 -22z" />
    <glyph glyph-name="afii10041" unicode="&#x427;" 
d="M8 34q0 -14 20 -14v30h8v-50h-8v12q-28 2 -28 22v16h8v-16z" />
    <glyph glyph-name="afii10026" unicode="&#x418;" 
d="M29 0v21q-6 -12 -21 -21h-8v50h8v-39q20 15 20 39h8v-50h-7z" />
    <glyph glyph-name="Pi" unicode="&#x3a0;" horiz-adv-x="41" 
d="M8 0h-8v50h33v-50l-8 0.00292969l-0.000976562 41.998l-16.999 -0.000976562v-42z" />
    <glyph glyph-name="Xi" unicode="&#x39e;" 
d="M0 50h36v-8h-36v8zM0 36h36v-8h-36v8zM0 8h36v-8h-36v8z" />
    <glyph glyph-name="Sigma" unicode="&#x3a3;" horiz-adv-x="48" 
d="M30.999 42.0059l-12.999 -0.00880051l5.9961 -11.9971l-9.9961 -22h22l4 -8h-40l15 30l-10 20h30z" />
    <glyph glyph-name="Sigma" unicode="&#x1a9;" horiz-adv-x="48" 
d="M30.999 42.0059l-12.999 -0.00880051l5.9961 -11.9971l-9.9961 -22h22l4 -8h-40l15 30l-10 20h30z" />
    <glyph glyph-name="afii10027" unicode="&#x419;" 
d="M29 61q0 -10 -11 -10t-11 10h7q0 -4 4 -4t4 4h7zM29 0v21q-6 -12 -21 -21h-8v50h8v-39q20 15 20 39h8v-50h-7z" />
    <glyph glyph-name="afii10040" unicode="&#x426;" 
d="M0 14v36h8v-28h20v28h8v-50h-8v14h-28z" />
    <glyph glyph-name="afii10037" unicode="&#x423;" horiz-adv-x="48" 
d="M20 39l10 11h10l-16 -18v-32h-8v32l-16 18h10z" />
    <glyph glyph-name="ecircumflex" unicode="&#xea;" horiz-adv-x="38" 
d="M16.5 50l12 -14h-8l-4 3l-4 -3h-8zM22 20v5q-13 0 -13 -5h13zM30 14h-21q2 -6 16 -6h5v-8h-5q-25 0 -25 17q0 15 17 15h13v-18z" />
    <glyph glyph-name="eta" unicode="&#x3b7;" horiz-adv-x="36" 
d="M20 14q0 10 -12 10v-24h-8v32h8q20 0 20 -18v-28h-8v28z" />
    <glyph glyph-name="bar" unicode="|" horiz-adv-x="16" 
d="M0 50h8v-64h-8v64z" />
    <glyph glyph-name="upsilon" unicode="&#x3c5;" horiz-adv-x="37" 
d="M8 14q0 -6 2 -6q11 0 11 24h8q0 -32 -21 -32q-8 0 -8 9v23h8v-18z" />
    <glyph glyph-name="questiondown" unicode="&#xbf;" horiz-adv-x="35" 
d="M8.00098 26.002l8 9.00098l6 -5.00098l-8 -9q-5 -6.00098 -5 -9.00098q0 -4 10 -4h8v-8.00098h-8q-19 0 -19 11.001q0 6 8 15.001zM23.001 50.0039v-8.00098l-7.99902 -0.000976562l0.000976562 8.00195h7.99805z" />
    <glyph glyph-name="afii10095" unicode="&#x44d;" horiz-adv-x="38" 
d="M0 19.998l21 0.00200081q0 5 -13 5l-8 -0.000999451v7.001h13q17 0 17 -15q0 -17 -25 -17h-5v8h5q14 0 16 6h-21v5.998z" />
    <glyph glyph-name="afii10047" unicode="&#x42d;" 
d="M27 36.1426q-2.1429 4.857 -8.999 5.8574h-18v8h18q18 -3 18 -16t-10 -23t-26 -11v8q12 1 20 9q6.5978 5.5068 6.999 11l-27 0.00779915l-0.00292969 8.1348h27.0029zM27 36.1426z" />
    <glyph glyph-name="afii10046" unicode="&#x42c;" horiz-adv-x="37" 
d="M0 0v50h8v-18h15q6 -5 6 -13q0 -11 -21 -19h-8zM21 19q0 3 -2 5h-11v-14q13 4 13 9z" />
    <glyph glyph-name="afii10044" unicode="&#x42a;" horiz-adv-x="37" 
d="M0 42.001h-6v7.999h14v-18h15q6 -5 6 -13q0 -11 -21 -19h-8v42.001zM21 19q0 3.0001 -2 5h-11v-14q13 4 13 9z" />
    <glyph glyph-name="afii10038" unicode="&#x424;" horiz-adv-x="58" 
d="M13.998 19h7v13h-7q-5.99995 0 -5.99995 -6.5t5.99995 -6.5zM36 19q6 0 6 6.5t-6 6.5h-7v-13h7zM21 0l-0.00200081 10h-7q-14 0 -14 15t14 15l7.001 0.0019989l0.000999451 9.998l7.9248 0.00680161l0.0741997 -10.0048l7.001 -0.0019989q14 0 14 -15t-14 -15h-7v-10h-8z
" />
    <glyph glyph-name="Phi" unicode="&#x3a6;" horiz-adv-x="58" 
d="M13.998 19h7v13h-7q-6 0 -6 -6.5t6 -6.5zM36 19q6 0 6 6.5t-6 6.5h-7v-13h7zM21 0l-0.00195312 10h-7q-14 0 -14 15t14 15l7.00098 0.00195312l0.000976562 9.99805l7.9248 0.00683594l0.0742188 -10.0049l7.00098 -0.00195312q14 0 14 -15t-14 -15h-7v-10h-8z" />
    <glyph glyph-name="afii10029" unicode="&#x41b;" horiz-adv-x="46" 
d="M13 50h25v-50l-8 0.00292969l-0.000999451 41.9981l-8.999 -0.000999451v-20q0 -12.2627 -6 -17q-6.33301 -5 -15 -5v8q13 0 13 14v28z" />
    <glyph glyph-name="Theta" unicode="&#x398;" horiz-adv-x="48" 
d="M8.46094 28.2842q-0.46094 -3.3447 -0.46094 -8.2842q0 -12 12 -12t12 12q0 4.6301 -0.5315 8.2857zM29.6587 35.1429q-2.9592 6.8571 -9.6587 6.8571q-6.1299 0 -9.9951 -6.9941zM0 20q0 14 5 21q6 9 15 9q11 0 15 -9q5 -9 5 -21q0 -20 -20 -20t-20 20z" />
    <glyph glyph-name="Delta" unicode="&#x394;" 
d="M0 10.001l25 39.999h11v-50h-36v10.001zM8.00293 7.99902l20 0.00196028l-0.00289917 32.999z" />
    <glyph glyph-name="Lambda" unicode="&#x39b;" 
d="M0 0.000976562l24 49.999h12v-50l-7.9971 0.000976562l-0.00289917 40.999l-18.9971 -41.001z" />
    <glyph glyph-name="pi" unicode="&#x3c0;" horiz-adv-x="37" 
d="M0 31.999h28.9951v-31.9961l-8.00488 -0.00878906l0.00488281 24.0049h-12.9951l-0.00195312 -23.999h-7.99805v31.999z" />
    <glyph glyph-name="afii10081" unicode="&#x43f;" horiz-adv-x="37" 
d="M0 31.999h28.9951v-31.9961l-8.0049 -0.00878907l0.00489998 24.0049h-12.9951l-0.00194979 -23.999h-7.99805v31.999z" />
    <glyph glyph-name="uni03F6" unicode="&#x3f6;" horiz-adv-x="38" 
d="M0 19.998l21 0.00195312q0 5 -13 5l-8 -0.000976562v7.00098h13q17 0 17 -15q0 -17 -25 -17h-5v8h5q14 0 16 6h-21v5.99805z" />
    <glyph glyph-name="uni03F5" unicode="&#x3f5;" horiz-adv-x="38" 
d="M30.0273 19.998v-5.998h-21q1.99996 -6 16 -6h5v-8h-5q-25 0 -25 17q0 15 17 15h13v-7.001l-8 0.000999451q-13 0 -13 -5z" />
    <glyph glyph-name="afii10084" unicode="&#x442;" horiz-adv-x="37" 
d="M28.9951 31.999l-5 -8h-7.9951l-0.00199986 -23.999h-7.998l-0.00391006 23.999l-7.99902 0.0019989l0.00292969 7.998h28.9951z" />
    <glyph glyph-name="tau" unicode="&#x3c4;" horiz-adv-x="37" 
d="M28.9951 31.999l-5 -8h-7.99512l-0.00195312 -23.999h-7.99805l-0.00390625 23.999l-7.99902 0.00195312l0.00292969 7.99805h28.9951z" />
    <glyph glyph-name="afii10088" unicode="&#x446;" horiz-adv-x="37" 
d="M-0.00195312 0.00390625v31.999h7.99804l0.00196028 -23.999h12.9951l-0.00489998 24.0049l8.0049 -0.00880051v-39.9961l-7.9991 -0.0009799l-0.000900269 8.00195z" />
    <glyph glyph-name="afii10089" unicode="&#x447;" horiz-adv-x="37" 
d="M21 -0q-21 4 -21 22v10h8v-9q0 -13 13 -15v24h8v-40h-8v8z" />
    <glyph glyph-name="afii10090" unicode="&#x448;" horiz-adv-x="54" 
d="M46.002 0l-46 0.00488281v32h8v-24h11.0001v24h8v-24h11v24h8v-32.0049z" />
    <glyph glyph-name="afii10091" unicode="&#x449;" horiz-adv-x="54" 
d="M46 -8h-9v8h-37v32h8l0.00195026 -23.9951h11.0001v24h8v-24h11v24h8z" />
    <glyph glyph-name="afii10092" unicode="&#x44a;" horiz-adv-x="32" 
d="M12 13h-4v-7h4q4 0 4 4q0 3 -4 3zM-6 26.0469v5.9531h14v-13h4q12 0 12 -9q0 -10 -12 -10h-12l-0.0351562 26.0459z" />
    <glyph glyph-name="afii10094" unicode="&#x44c;" horiz-adv-x="32" 
d="M12 13h-4v-7h4q4 0 4 4q0 3 -4 3zM0 0v32h8v-13h4q12 0 12 -9q0 -10 -12 -10h-12z" />
    <glyph glyph-name="afii10093" unicode="&#x44b;" horiz-adv-x="43" 
d="M27 32h8v-32h-8v32zM12 13h-4v-7h4q4 0 4 4q0 3 -4 3zM0 0v32h8v-13h4q12 0 12 -9q0 -10 -12 -10h-12z" />
    <glyph glyph-name="afii10076" unicode="&#x43a;" horiz-adv-x="40" 
d="M13 18l19 -18h-11l-13 12v-12h-8v32h8v-8l11 8h13z" />
    <glyph glyph-name="kappa" unicode="&#x3ba;" horiz-adv-x="40" 
d="M13 18l19 -18h-11l-13 12v-12h-8v32h8v-8l11 8h13z" />
    <glyph glyph-name="afii10072" unicode="&#x436;" horiz-adv-x="52" 
d="M26 0h-8v12l-9 -12h-9l13 18l-13 14h11l7 -8v8h8v-8l7 8h11l-13 -14l13 -18h-9l-9 12v-12z" />
    <glyph glyph-name="afii10068" unicode="&#x433;" horiz-adv-x="37" 
d="M29 32l-4 -8h-17v-24h-8v32h29z" />
    <glyph glyph-name="afii10069" unicode="&#x434;" horiz-adv-x="37" 
d="M0 0v5q0 18.9102 6.91406 24.9551q6.49374 6.0449 17.0859 6.0449h5v-36h-29zM21.0029 8.00098l-0.00289917 18.999q-12.999 -0.00390053 -12.999 -19.0039z" />
    <glyph glyph-name="afii10077" unicode="&#x43b;" horiz-adv-x="37" 
d="M7 31.999h21.9951v-31.9961l-8.0049 -0.00878907l0.00489998 24.0049h-5.9951v-7.999q0 -16 -15 -16v8q7 0 7 8v15.999z" />
    <glyph glyph-name="afii10078" unicode="&#x43c;" horiz-adv-x="54" 
d="M46 13v-13h-8v13q0 11 -11 11v-24h-8v24h-11v-24h-8v32h27q19 0 19 -19z" />
    <glyph glyph-name="afii10079" unicode="&#x43d;" horiz-adv-x="37" 
d="M8 23h13v9h8v-32h-8v15h-13v-15h-8v32h8v-9z" />
    <glyph glyph-name="afii10096" unicode="&#x44e;" horiz-adv-x="49" 
d="M8 10v-10h-8v32h8v-16h3q0.4195 5.7034 4 10q5 6 11 6t10.5 -5.5t4.5 -13.5q0 -13 -15 -13q-12 0 -15 10h-3zM19 14q0 -6 7 -6t7 6q0 10 -7 10t-7 -10z" />
    <glyph glyph-name="afii10097" unicode="&#x44f;" horiz-adv-x="37" 
d="M21 0v9h-7l-6 -9h-10l6 11q-4 4 -4 10q0 5 6 11h23v-32h-8zM21 17v7h-11q-2 -2 -2 -3.5t2 -3.5h11z" />
    <glyph glyph-name="afii10067" unicode="&#x432;" horiz-adv-x="37" 
d="M18 0h-18v32h12.9951q11.0049 0 11.0147 -12.083q5.084 -2.4121 4.9902 -8.9121q0 -11.0049 -11 -11.0049zM8 8.00098l9 -0.000980377q5 0 5.001 3.0039q0 2.9932 -4.9981 2.9941l-9.00388 0.00300026zM8.00391 20h8.99609q0 5.0029 -5 5.002l-3.99512 -0.00200081z" />
    <glyph glyph-name="afii10066" unicode="&#x431;" horiz-adv-x="37" 
d="M29 14q0 -14 -18 -14h-11v26q0 13 21 13h8v-7h-8q-13 0 -13 -6h21v-12zM11 7q10 0 10 7v5h-13v-12h3z" />
    <glyph glyph-name="afii10073" unicode="&#x437;" horiz-adv-x="37" 
d="M22.001 11.0039q0 2.9933 -4.9981 2.9941l-17.0039 0.00300026l0.00488281 5.999h16.9961q0 5.0028 -5 5.002l-11.9951 -0.00200081l-0.00488281 7h12.9951q11.0049 0 11.0147 -12.083q5.0836 -2.4121 4.9902 -8.9121q0 -11.0049 -11 -11.0049h-18v8.00098
l17 -0.000980377q5 -0.000289917 5.001 3.0039z" />
    <glyph glyph-name="afii10074" unicode="&#x438;" horiz-adv-x="37" 
d="M8 10q12 8.4502 13 22h8v-32h-8v11q-3.0943 -6 -14 -11h-7v32h8v-22z" />
    <glyph glyph-name="afii10075" unicode="&#x439;" horiz-adv-x="37" 
d="M14 32l-12 14h8l4 -3l4 3h8zM8 10q12 8.4502 13 22h8v-32h-8v11q-3.09473 -6 -14 -11h-7v32h8v-22z" />
    <glyph glyph-name="afii10086" unicode="&#x444;" horiz-adv-x="48" 
d="M24 8q8 0 8 6q0 10 -8 10v-16zM16 8v16q-8 0 -8 -10q0 -6 8 -6zM24 -7l-8.002 0.00194979l0.00199986 6.99805q-16 0 -16 13q0 8 4.5 13.5t11.5 5.5l-0.00199986 5.999l8.001 0.000999451l0.000999451 -6q7 0 11.5 -5.5t4.5 -13.5q0 -13 -16 -13v-7z" />
    <glyph glyph-name="edieresis" unicode="&#xeb;" horiz-adv-x="38" 
d="M18.5 44h8v-8h-8v8zM6.5 44h8v-8h-8v8zM22 20v5q-13 0 -13 -5h13zM30 14h-21q2 -6 16 -6h5v-8h-5q-25 0 -25 17q0 15 17 15h13v-18z" />
    <glyph glyph-name="afii10071" unicode="&#x451;" horiz-adv-x="38" 
d="M18.5 44h8v-8h-8v8zM6.5 44h8v-8h-8v8zM22 20v5q-13 0 -13 -5h13zM30 14h-21q2 -6 16 -6h5v-8h-5q-25 0 -25 17q0 15 17 15h13v-18z" />
    <glyph glyph-name="uni0450" unicode="&#x450;" horiz-adv-x="38" 
d="M7.625 46.0039h5.99805l8 -10.0039h-9.99805zM22 20v5q-13 0 -13 -5h13zM30 14h-21q2 -6 16 -6h5v-8h-5q-25 0 -25 17q0 15 17 15h13v-18z" />
    <glyph glyph-name="afii10101" unicode="&#x454;" horiz-adv-x="38" 
d="M30.0273 19.998v-5.99805h-21q2 -6 16 -6h5v-8h-5q-25 0 -25 17q0 15 17 15h13v-7.00098l-8 0.000976562q-13 0 -13 -5z" />
    <glyph glyph-name="napostrophe" unicode="&#x149;" 
d="M0 50h8v-14h-8v14zM28 14q0 10 -12 10v-24h-8v32h8q20 0 20 -18v-14h-8v14z" />
    <glyph glyph-name="Nacute" unicode="&#x143;" 
d="M15 53h5.99805l8 10.0039h-9.99805zM8 41v-41h-8v50h8q16 -8 20 -21v21h8v-50h-8q0 28 -20 41z" />
    <glyph glyph-name="afii10061" unicode="&#x40c;" 
d="M14 53h5.99805l8 10.0039h-9.99805zM36 0h-10l-18 25v-25h-8v50h8v-12l15 12h13l-23 -18z" />
    <glyph glyph-name="uni03F7" unicode="&#x3f7;" 
d="M22 23q6 0 6 4t-6 4h-14v-8h14zM8 14v-14h-8v50l8 0.00292969l-0.000976562 -11l14.001 -0.00292969q14 0 14 -12.5t-15 -12.5h-13z" />
    <glyph glyph-name="uni03F8" unicode="&#x3f8;" horiz-adv-x="37" 
d="M23 0h-15v-14h-8v53h8v-15h15q6 -5 6 -12t-6 -12zM8 8h11q2 2 2 4t-2 4h-11v-8z" />
    <glyph glyph-name="uni03F9" unicode="&#x3f9;" 
d="M36 50v-8h-18q-10 -2 -10 -8q0 -9 8 -17t20 -9v-8q-16 1 -26 11t-10 23t18 16h18z" />
    <glyph glyph-name="uni03F3" unicode="&#x3f3;" horiz-adv-x="32" 
d="M16 50.0039h7.99805v-8.00391h-7.99805v8.00391zM16 32h8v-19q0 -27 -24 -27v8q16 0 16 19v19z" />
    <glyph glyph-name="uni03F2" unicode="&#x3f2;" horiz-adv-x="33" 
d="M26 32v-8h-11q-7 -1 -7 -5t6 -8q4 -3 12 -3v-8q-11 0 -18.5 5t-7.5 15t15 12h11z" />
    <glyph glyph-name="rho" unicode="&#x3c1;" horiz-adv-x="37" 
d="M13 24q-5 0 -5 -15q4 0 8 3q5 4 5 7t-2 5h-6zM0 11q-0 21 10 21h13q6 -5 6 -12q0 -8 -9 -15q-4 -3 -12 -5v-14h-8v25z" />
    <glyph glyph-name="uni03FC" unicode="&#x3fc;" horiz-adv-x="37" 
d="M13 24q-5.0625 0.0254002 -5 -15q4 0 8 3q5 4 5 7t-2 5h-6zM0 11q0 21 10.0625 21h12.9375q6 -5 6 -12q0 -8 -9 -15q-4 -3 -12 -5v-2.975l12 -0.0250001v-5.97461l-12 -0.000390053v-5.025h-8v25z" />
    <glyph glyph-name="uni0400" unicode="&#x400;" 
d="M12 63.0039h5.99805l8 -10.0039h-9.99805zM36 50v-8h-28v-6h28v-8h-28v-20h28v-8h-36v50h36z" />
    <glyph glyph-name="afii10105" unicode="&#x458;" horiz-adv-x="32" 
d="M16 50.0039h7.99805v-8.00391h-7.99805v8.00391zM16 32h8v-19q0 -27 -24 -27v8q16 0 16 19v19z" />
    <glyph glyph-name="afii10109" unicode="&#x45c;" horiz-adv-x="40" 
d="M10 35h5.99805l8 10.0039h-9.99805zM13 18l19 -18h-11l-13 12v-12h-8v32h8v-8l11 8h13z" />
    <glyph glyph-name="uni045D" unicode="&#x45d;" horiz-adv-x="37" 
d="M6.5 45.0039h5.99805l8 -10.0039h-9.99805zM8 10q12 8.4502 13 22h8v-32h-8v11q-3.09473 -6 -14 -11h-7v32h8v-22z" />
    <glyph glyph-name="eng" unicode="&#x14b;" horiz-adv-x="36" 
d="M14 -14h-6v8h6q6 0 6 6v14q0 10 -12 10v-24h-8v32h8q20 0 20 -18v-14q0 -14 -14 -14z" />
    <glyph glyph-name="Edieresis" unicode="&#xcb;" 
d="M20 61h8v-8h-8v8zM8 61h8v-8h-8v8zM36 50v-8h-28v-6h28v-8h-28v-20h28v-8h-36v50h36z" />
    <glyph glyph-name="Eth" unicode="&#xd0;" 
d="M0 50h27q9 -5 9 -17.5t-10.5 -22t-25.5 -10.5v50zM8 42v-6h13l-0.000999451 -7.751l-12.999 0.000999451v-18.25q8 1 14 8t6 14q0 6 -5 10h-15z" />
    <glyph glyph-name="Yacute" unicode="&#xdd;" horiz-adv-x="48" 
d="M17 53h5.99805l8 10.0039h-9.99805zM20 39l10 11h10l-16 -18v-32h-8v32l-16 18h10z" />
    <glyph glyph-name="multiply" unicode="&#xd7;" horiz-adv-x="52" 
d="M6 44l16 -16l16 16l6 -6l-16 -16l16 -16l-6 -6l-16 16l-16 -16l-6 6l16 16l-16 16z" />
    <glyph glyph-name="OE" unicode="&#x152;" horiz-adv-x="51" 
d="M20 0q-20 0 -20 20q0 14 5 21q6 9 15 9h23v-8h-15v-6h15v-8h-15v-20h15v-8h-23zM20 42q-12 0 -12 -22q0 -12 12 -12v34z" />
    <glyph glyph-name="Racute" unicode="&#x154;" horiz-adv-x="49" 
d="M12 53h5.99805l8 10.0039h-9.99805zM21 33q6 0 6 5q0 4 -6 4h-13v-9h13zM41 0h-10l-12 24h-11v-24h-8v50h24q12 0 12 -13q0 -7 -8 -12z" />
    <glyph glyph-name="uni0182" unicode="&#x182;" 
d="M8 41v-9h16.001q11.999 -4 11.999 -12q0 -14 -36 -20v50l28.999 -0.00292969l0.000976562 -9.00293zM8 24v-14q20 5 20 10q0 3 -4 4h-16z" />
    <glyph glyph-name="uni0183" unicode="&#x183;" horiz-adv-x="37" 
d="M0 0v50h21v-8h-13v-10h15q6 -5 6 -13q0 -11 -21 -19h-8zM21 19q0 3 -2 5h-11v-14q13 4 13 9z" />
    <glyph glyph-name="oe" unicode="&#x153;" horiz-adv-x="54" 
d="M8 14q0 -6 6 -6t6 6q0 10 -6 10t-6 -10zM38 20v5q-9 0 -9 -5h9zM23.918 27.2979q3.9082 4.7021 12.082 4.7021h10v-18h-17q2 -6 12 -6h5v-8h-4q-11.4566 0 -16.957 3.73633q-3.8763 -3.73633 -11.043 -3.73633q-14 0 -14 13q0 8 4 13.5t9.9585 5.5t9.9595 -4.7021z" />
    <glyph glyph-name="racute" unicode="&#x155;" horiz-adv-x="34" 
d="M13 35h5.99805l8 10.0039h-9.99805zM19 24q-11 0 -11 -7v-17h-8v17q0 15 19 15h7v-8h-7z" />
    <glyph glyph-name="asciitilde" unicode="~" horiz-adv-x="29" 
d="M21 14q-4.3301 -4.625 -10.6782 -1.9644q-6.34817 2.6607 -10.3218 -2.0356v8q4.49609 4.625 10.916 1.9375q6.4199 -2.6875 10.084 2.0625v-8z" />
    <glyph glyph-name="asciitilde" unicode="&#x303;" horiz-adv-x="29" 
d="M21 14q-4.3301 -4.625 -10.6782 -1.9644q-6.34817 2.6607 -10.3218 -2.0356v8q4.49609 4.625 10.916 1.9375q6.4199 -2.6875 10.084 2.0625v-8z" />
    <glyph glyph-name="ntilde" unicode="&#xf1;" horiz-adv-x="36" 
d="M24.5 38.8037q-4.33008 -4.625 -10.6777 -1.96484q-6.34863 2.66113 -10.3223 -2.03516v8q4.49609 4.625 10.916 1.9375t10.084 2.0625v-8zM20 14q0 10 -12 10v-24h-8v32h8q20 0 20 -18v-14h-8v14z" />
    <glyph glyph-name="uni040D" unicode="&#x40d;" 
d="M11 63.0039h5.99805l8 -10.0039h-9.99805zM29 0v21q-6 -12 -21 -21h-8v50h8v-39q20 15 20 39h8v-50h-7z" />
    <glyph glyph-name="afii10056" unicode="&#x407;" horiz-adv-x="16" 
d="M6 61h8v-8h-8v8zM-6 61h8v-8h-8v8zM0 50h8v-50h-8v50z" />
    <glyph glyph-name="afii10058" unicode="&#x409;" horiz-adv-x="67" 
d="M51 19q0 3 -2 5h-11v-14q13 4 13 9zM30 0.00292969l-0.000999451 41.9981l-8.999 -0.000999451v-20q0 -12.2627 -6 -17q-6.33301 -5 -15 -5v8q13 0 13 14v28h25v-18h15q6 -5 6 -13q0 -11 -21 -19z" />
    <glyph glyph-name="afii10059" unicode="&#x40a;" horiz-adv-x="53" 
d="M39 19q0 3 -2 5h-11v-14q13 4 13 9zM18 0v28h-10v-28h-8v50h8v-14h10v14h8v-18h15q4 -5 4 -13q0 -11.7618 -19 -19h-8z" />
    <glyph glyph-name="afii10060" unicode="&#x40b;" horiz-adv-x="47" 
d="M19 32q20 0 20 -18v-14h-8v14q0 10 -12 10v-24h-8v42h-11v8h36l-4 -8h-13v-10z" />
    <glyph glyph-name="idieresis" unicode="&#xef;" horiz-adv-x="16" 
d="M5.99707 43.999l8.00093 -0.000999451v-8l-8.00093 0.000999451v8zM-6.00293 43.999l8.00098 -0.000999451v-8l-8.00098 0.000999451v8zM0 32h8v-32h-8v32z" />
    <glyph glyph-name="iota" unicode="&#x3b9;" horiz-adv-x="16" 
d="M0 32h8v-32h-8v32z" />
    <glyph glyph-name="afii10053" unicode="&#x404;" 
d="M8.99805 36.1426h27.0029l-0.00299835 -8.1348l-27 -0.00779915q0.401361 -5.4932 6.99905 -11q8 -8 20 -9v-8q-16 1 -26 11q-10 10 -10 23t18 16h18v-8h-18q-7.1019 -1 -8.99905 -5.8574z" />
    <glyph glyph-name="afii10145" unicode="&#x40f;" horiz-adv-x="41" 
d="M8 50v-42l16.999 -0.0009799l0.000999451 41.9981l8 0.00289917v-50h-11.9287l-0.0596008 -7.00098h-9.0068v7.00782l-12.0049 -0.00683594v50h8z" />
    <glyph glyph-name="periodcentered" unicode="&#xb7;" horiz-adv-x="16" 
d="M0 20h8v-8h-8v8z" />
    <glyph glyph-name="periodcentered" unicode="&#x387;" horiz-adv-x="16" 
d="M0 20h8v-8h-8v8z" />
    <glyph glyph-name="uni019E" unicode="&#x19e;" horiz-adv-x="36" 
d="M20 14q0 10 -12 10v-24h-8v32h8q20 0 20 -18v-28h-8v28z" />
    <glyph glyph-name="uni03F4" unicode="&#x3f4;" horiz-adv-x="48" 
d="M8.46094 28.2842q-0.460938 -3.34473 -0.460938 -8.28418q0 -12 12 -12t12 12q0 4.62988 -0.53125 8.28613zM29.6592 35.1426q-2.95996 6.85742 -9.65918 6.85742q-6.12988 0 -9.99512 -6.99414zM0 20q0 14 5 21q6 9 15 9q11 0 15 -9q5 -9 5 -21q0 -20 -20 -20t-20 20z
" />
    <glyph glyph-name="theta" unicode="&#x3b8;" horiz-adv-x="37" 
d="M21 17h-13q0 -9 6.5 -9t6.5 9zM20.8516 23.1426q0 18.916 -5.8536 18.8447q-6.85511 -0.0713005 -6.84956 -18.8447h12.7032zM0 20q0 12 3.5 21t11.5 9t11 -9t3 -21q0 -20 -14.5 -20t-14.5 20z" />
    <glyph glyph-name="epsilon" unicode="&#x3b5;" horiz-adv-x="37" 
d="M29.002 0h-18q-10.9844 0 -11.003 14l0.00292968 5.917q0 12.083 11.0048 12.083h17.9952l-0.00489998 -7l-16.9951 0.00200081q-5.00005 0.000898361 -5.00005 -5.002h21.996l0.00489998 -5.999l-22.0009 -0.0010004q0 -6 5.00005 -6l17 0.000980377v-8.00098z" />
    <glyph glyph-name="afii10052" unicode="&#x403;" 
d="M14 53h5.99805l8 10.0039h-9.99805zM8 0h-8v50h36l-5 -8h-23v-42z" />
    <glyph glyph-name="afii10051" unicode="&#x402;" horiz-adv-x="47" 
d="M39 14v-14q0 -14 -14 -14h-6v8h6q6 0 6 6v14q0 10 -12 10v-24h-8v42h-11v8h36l-4 -8h-13v-10q20 0 20 -18z" />
    <glyph glyph-name="afii10023" unicode="&#x401;" 
d="M20 61h8v-8h-8v8zM8 61h8v-8h-8v8zM36 50v-8h-28v-6h28v-8h-28v-20h28v-8h-36v50h36z" />
    <glyph glyph-name="psi" unicode="&#x3c8;" horiz-adv-x="50" 
d="M25 0v-7h-8v7q-17 2 -17 17v15h8v-15q0 -9 9 -9v24h8v-24q9 0 9 9v15h8v-15q0 -15 -17 -17z" />
    <glyph glyph-name="psi" unicode="&#x471;" horiz-adv-x="50" 
d="M25 0v-7h-8v7q-17 2 -17 17v15h8v-15q0 -9 9 -9v24h8v-24q9 0 9 9v15h8v-15q0 -15 -17 -17z" />
    <glyph glyph-name="Psi" unicode="&#x3a8;" horiz-adv-x="62" 
d="M23 13.0029q-23 1.9239 -23 23.9971v13h8v-13q0 -16 15 -16v29h8v-29q15 0 15 16v13h8v-13q0 -22.231 -23.001 -24l0.000999451 -13.0049l-8 0.00488281v13.0029z" />
    <glyph glyph-name="Psi" unicode="&#x470;" horiz-adv-x="62" 
d="M23 13.0029q-23 1.9239 -23 23.9971v13h8v-13q0 -16 15 -16v29h8v-29q15 0 15 16v13h8v-13q0 -22.231 -23.001 -24l0.000999451 -13.0049l-8 0.00488281v13.0029z" />
    <glyph glyph-name="Omega" unicode="&#x3a9;" horiz-adv-x="52" 
d="M0 0v8.00098h44v-8.00098h-44zM8 26q0 -8 14 -8t14 8q-2 16 -14 16q-14 0 -14 -16zM0 26q0 8 5 15q6 9 17 9q13 0 17 -9q5 -9 5 -15q0 -16 -22 -16t-22 16z" />
    <glyph glyph-name="omega" unicode="&#x3c9;" horiz-adv-x="50" 
d="M18 0q-18 0 -18 12.999q0 14.9981 12.167 19.001l0.0830002 -8.75q-4.25 -0.945299 -4.25 -9.25q0 -6.81826 9 -6v13h8v-13q9 -1 9 6q0 8.3047 -4.25 9.25l0.0830002 8.75q12.167 -4.0029 12.167 -19.002q0 -12.998 -17.9893 -12.998h-6.0107z" />
    <glyph glyph-name="iotadieresis" unicode="&#x3ca;" horiz-adv-x="16" 
d="M5.99707 43.7734l8.00098 -0.000976562v-8l-8.00098 0.000976562v8zM-6.00293 43.7734l8.00098 -0.000976562v-8l-8.00098 0.000976562v8zM0 31.7754h8v-32.001h-8v32.001z" />
    <glyph glyph-name="upsilondieresis" unicode="&#x3cb;" horiz-adv-x="37" 
d="M15.999 43.002h8v-8h-8v8zM3.99902 43.002h8v-8h-8v8zM8 14q0 -6 2 -6q11 0 11 24h8q0 -32 -21 -32q-8 0 -8 9v23h8v-18z" />
    <glyph glyph-name="phi" unicode="&#x3c6;" horiz-adv-x="48" 
d="M23.999 9.01562q8.001 -0.0156202 8.001 7.48438t-8 7.4971zM11.5986 32l0.00199986 -8.0078q-3.80194 0.00779915 -3.70223 -7.4922q0.0997 -7.5 8.10263 -7.49805l0.00100136 23.0049l7.998 -0.00680161q16 -0.0137005 16 -16q0 -16 -16 -16v-7l-8.002 0.00194979
v6.99805q-16 0 -15.999 16q0.000976562 16 11.5996 16z" />
    <glyph glyph-name="uni03CF" unicode="&#x3cf;" 
d="M26 0l-18 25v-25h-8v50h8v-12l15 12h13l-23 -18l23 -32l-7.8574 -9.14258l-11.002 0.000980377z" />
    <glyph glyph-name="afii10100" unicode="&#x453;" horiz-adv-x="37" 
d="M10.498 35h5.99805l7.99902 10.0039h-9.99707zM29 32l-4 -8h-17v-24h-8v32h29z" />
    <glyph glyph-name="afii10099" unicode="&#x452;" horiz-adv-x="36" 
d="M8 32q20 0 20 -18v-14q0 -14 -14 -14h-6v8h6q6 0 6 6v14q0 10 -12 10v-24h-8v24h-4l-2 7.875h6v18.125h8v-18z" />
    <glyph glyph-name="afii10104" unicode="&#x457;" horiz-adv-x="16" 
d="M5.99707 44.0234l8.00098 -0.000976562v-8l-8.00098 0.000976562v8zM-6.00293 44.0234l8.00098 -0.000976562v-8l-8.00098 0.000976562v8zM0 32.0254h8v-32.001h-8v32.001z" />
    <glyph glyph-name="lambda" unicode="&#x3bb;" horiz-adv-x="40" 
d="M0 0.000976562l13 28.997l-7.00098 21.004l8.00098 -0.0019989l18 -50l-7.9971 0.000976562l-7.0029 18.999l-7.99707 -19.001z" />
    <glyph glyph-name="afii10062" unicode="&#x40e;" horiz-adv-x="48" 
d="M31 60q0 -10 -11 -10t-11 10h7q0 -4 4 -4t4 4h7zM20 39l10 11h10l-16 -18v-32h-8v32l-16 18h10z" />
    <glyph glyph-name="afii10106" unicode="&#x459;" horiz-adv-x="32" 
d="M32.9961 12.9834l-3.999 0.0194998v-7.00095l3.9951 0.000980377q4.0224 0.0009799 4.0234 3.76172q0 3.19925 -4.0195 3.21875zM28.9971 19.0029l4.0078 -0.0135994q12.0117 -0.0410004 12.0097 -9.22368q-0.00189972 -9.77148 -12.0136 -9.76855l-12.001 0.00292969
l-0.00489998 23.999h-5.9951v-7.999q0 -16 -15 -16v8q7 0 7 8v15.999h21.9951z" />
    <glyph glyph-name="afii10107" unicode="&#x45a;" horiz-adv-x="32" 
d="M32.9961 12.9834l-3.999 0.0194998v-7.00095l3.9951 0.000980377q4.0227 0.0009799 4.0234 3.76172q0 3.19915 -4.0195 3.21875zM21 0v15h-13v-15h-8v32h8v-9h13v9h8l-0.00289917 -12.9971l4.0078 -0.0135994q12.0117 -0.0410004 12.0097 -9.22368
q-0.00189972 -9.77148 -12.0136 -9.76855z" />
    <glyph glyph-name="afii10108" unicode="&#x45b;" horiz-adv-x="36" 
d="M27.999 0.000976562l-8.001 0.00292969l0.00200081 13.9961q0.00139999 10.005 -12 10v-24h-8v24h-4l-2 7.875h6v18.125h8v-18q20.001 0 20 -18z" />
    <glyph glyph-name="afii10110" unicode="&#x45e;" horiz-adv-x="36" 
d="M24.417 45.9375q0 -10.0039 -10.5 -10.0039q-10.5 0 -10.498 10.001l6.67775 0.0868988q0.00580025 -3.9932 3.9922 -3.9932q3.9912 0 3.9912 3.9942zM20 5q-20 0 -20 27h8q0 -18 12 -18v18h8v-27q0 -19 -18 -19h-5v8h5q10 0 10 11z" />
    <glyph glyph-name="afii10193" unicode="&#x45f;" horiz-adv-x="37" 
d="M0 -0.00585938v31.9991h7.99805l0.00194979 -23.9991h12.9951l-0.00489998 24.0049l8.0049 -0.00880051v-31.9961l-10.0029 -0.00292968l-0.00200081 -6.00195l-8.9873 0.00389957l0.000999451 6.00098h-10.0039z" />
    <glyph glyph-name="uni0461" unicode="&#x461;" horiz-adv-x="50" 
d="M18 0q-18 0 -18 12.999q0 14.998 12.167 19.001l0.0830078 -8.75q-4.25 -0.945312 -4.25 -9.25q0 -6.81836 9 -6v13h8v-13q9 -1 9 6q0 8.30469 -4.25 9.25l0.0830078 8.75q12.167 -4.00293 12.167 -19.002q0 -12.998 -17.9893 -12.998h-6.01074z" />
    <glyph glyph-name="uni0460" unicode="&#x460;" horiz-adv-x="60" 
d="M26 0q-26 0 -26 20q0 25.0039 17.0049 30.0039l0.000999451 -8.001q-8.98032 -3.001 -9.0059 -22.0029q-0.0135198 -12.0381 14 -12v24h8v-24q15.0078 -0.0429702 15.0029 12q-0.00880051 19.0029 -10.0088 22.0029l0.000999451 8.001q17.0049 -5 17.0049 -30.0039
q0 -20 -26 -20z" />
    <glyph glyph-name="ncaron" unicode="&#x148;" horiz-adv-x="36" 
d="M14 35l-12 14h8l4 -3l4 3h8zM20 14q0 10 -12 10v-24h-8v32h8q20 0 20 -18v-14h-8v14z" />
    <glyph glyph-name="Eng" unicode="&#x14a;" 
d="M36 -0.00292969q0 -13.9971 -14 -13.9971h-6v8h6q6 0 6 5.99902zM8 41v-41h-8v50h8q16 -8 20 -21v21h8v-50h-8q0 28 -20 41z" />
    <glyph glyph-name="omicrontonos" unicode="&#x3cc;" horiz-adv-x="38" 
d="M12 35.3994h5.99805l8 10.0039h-9.99805zM8 14q0 -6 7 -6t7 6q0 10 -7 10t-7 -10zM0 13q0 8 4.5 13.5t10.5 5.5t10.5 -5.5t4.5 -13.5q0 -13 -15 -13t-15 13z" />
    <glyph glyph-name="upsilontonos" unicode="&#x3cd;" horiz-adv-x="38" 
d="M8 14q0 -6 2 -6q11 0 11 24h8q0 -32 -21 -32q-8 0 -8 9v23h8v-18zM11 35.3994h5.99805l8 10.0039h-9.99805z" />
    <glyph glyph-name="omegatonos" unicode="&#x3ce;" horiz-adv-x="50" 
d="M18 0q-18 0 -18 12.999q0 14.998 12.167 19.001l0.0830078 -8.75q-4.25 -0.945312 -4.25 -9.25q0 -6.81836 9 -6v13h8v-13q9 -1 9 6q0 8.30469 -4.25 9.25l0.0830078 8.75q12.167 -4.00293 12.167 -19.002q0 -12.998 -17.9893 -12.998h-6.01074zM18 35.3994h5.99805
l8 10.0039h-9.99805z" />
    <glyph glyph-name="chi" unicode="&#x3c7;" horiz-adv-x="40" 
d="M6 32l10 -17l10 17l6 -7l-10 -16l10 -15l-5 -8l-11 17l-11 -17l-5 8l10 15l-10 16z" />
    <glyph glyph-name="sigma" unicode="&#x3c3;" horiz-adv-x="39" 
d="M26.9932 24.0088q3.0068 -5.4942 3.0068 -11.0088q0 -13 -15 -13t-15 13q0 8 4.5 13.5t10.5 5.5h16v-8zM8 14q0 -6 7 -6t7 6q-9.91821e-05 10 -7 10q-7 0 -7 -10z" />
    <glyph glyph-name="sigma1" unicode="&#x3c2;" horiz-adv-x="34" 
d="M13 -11.9736v6.99997q5.375 -0.02637 5.1971 2.18066q-0.177999 2.20703 -9.12679 8.02477q-9.07031 5.9193 -9.07031 15.3438q0 9.4244 15 11.4244h11v-8h-11q-7 -1 -7 -5q0 -5.3458 9 -11.1729t9 -10.8271q0 -8.9802 -13 -8.9736z" />
    <glyph glyph-name="gamma" unicode="&#x3b3;" horiz-adv-x="37" 
d="M11 5l-11 27h8l7 -17l6 17h8l-10 -27v-19h-8v19z" />
    <glyph glyph-name="brokenbar" unicode="&#xa6;" horiz-adv-x="16" 
d="M0 15h8v-29h-8v29zM0 50h8v-28h-8v28z" />
    <glyph glyph-name="exclamdown" unicode="&#xa1;" horiz-adv-x="16" 
d="M7.99805 0h-7.99805v33.832h7.99805v-33.832zM7.99805 41.832h-7.99805v8.00391h7.99805v-8.00391z" />
    <glyph glyph-name="zeta" unicode="&#x3b6;" horiz-adv-x="37" 
d="M13 8h5q11 0 11 -11t-13 -11v7q5 0 5 3.5t-3 3.5h-7q-11 0 -11 11q0 12 9 21l3 3h-12v7h22v-7l-7 -8q-7 -8 -7 -16q0 -3 5 -3z" />
    <glyph glyph-name="ccaron" unicode="&#x10d;" horiz-adv-x="33" 
d="M15.5 35l-12 14h8l4 -3l4 3h8zM26 32v-8h-11q-7 -1 -7 -5t6 -8q4 -3 12 -3v-8q-11 0 -18.5 5t-7.5 15t15 12h11z" />
    <glyph glyph-name="Ccaron" unicode="&#x10c;" 
d="M22 53l-12 14h8l4 -3l4 3h8zM36 50v-8h-18q-10 -2 -10 -8q0 -9 8 -17t20 -9v-8q-16 1 -26 11t-10 23t18 16h18z" />
    <glyph glyph-name="nu" unicode="&#x3bd;" horiz-adv-x="37" 
d="M21.0088 31.9805l7.9844 0.012701q0.00819969 -24.9932 -12.4932 -31.9932h-8.5l-8 32h8.16667l6.00913 -22.1631q6.833 4.66309 6.833 22.1436z" />
    <glyph glyph-name="mu" unicode="&#x3bc;" 
d="M36 0h-28v-14h-8v46h8v-24h13v24h8l0.00779915 -24l7 -0.00391006z" />
    <glyph glyph-name="xi" unicode="&#x3be;" horiz-adv-x="37" 
d="M12 24q-4 -4 -4 -11q0 -5 7 -5h3q11 0 11 -11t-13 -11v8q5 0 5 3t-3 3h-5q-13 0 -13 13q0 8.0039 4 13q0.00194979 24 15 24h10v-8h-10q-7 0 -7 -10h17v-8h-17z" />
    <glyph glyph-name="delta" unicode="&#x3b4;" horiz-adv-x="38" 
d="M19 32q3.0769 -1 7 -6q4 -6 4 -13q0 -13 -15 -13t-15 13q0 8 4 13q3.92308 5 7 6v13h8v-13zM8 14q0 -6 7 -6t7 6q0 10 -7 10t-7 -10z" />
    <glyph glyph-name="beta" unicode="&#x3b2;" horiz-adv-x="41" 
d="M8 41v-8.998l11 -0.0019989q0 9 -11 9zM8.00098 9q16.999 4 16.999 11.8857q0.0228996 1.5997 -3.0098 3.1172l-13.9912 -0.000898361zM0 50q26.999 0 26.999 -18.002q6.001 -5.998 6.001 -10.998q0 -14.043 -24.999 -21.0029v-13.9961l-8.00098 -0.0010004v64z" />
    <glyph glyph-name="alpha" unicode="&#x3b1;" horiz-adv-x="37" 
d="M8 20q0 -8 13 -11v15h-11q-2.00004 -2 -2 -4zM29 32v-32h-8q-21 5 -21 20q0 7 6 12h23z" />
    <glyph glyph-name="uni03F0" unicode="&#x3f0;" horiz-adv-x="40" 
d="M13 18l19 -18h-11l-13 12v-12h-8v32h8v-8l11 8h13z" />
    <glyph glyph-name="uni03F1" unicode="&#x3f1;" horiz-adv-x="37" 
d="M0 0v11q0 21 10.0625 21h12.9375q6 -5 6 -12q0 -8 -9 -15q-4 -3 -12 -5q0 -6 6 -6h6v-8h-6q-14 0 -14 14zM13 24q-5.0626 0.0249996 -5 -15q4 0 8 3q5 4 5 7q0 3.0001 -2 5h-6z" />
    <glyph glyph-name="agrave" unicode="&#xe0;" horiz-adv-x="37" 
d="M6 45.0039h5.99805l8 -10.0039h-9.99805zM0 21h21q0 4 -13 4h-8v7h8q21 0 21 -11v-21q-15 0 -20 2q-9 4 -9 12v7zM21 14h-13q0 -3 1 -4q3 -3 12 -3v7z" />
    <glyph glyph-name="aacute" unicode="&#xe1;" horiz-adv-x="37" 
d="M11 35h5.99805l8 10.0039h-9.99805zM0 21h21q0 4 -13 4h-8v7h8q21 0 21 -11v-21q-15 0 -20 2q-9 4 -9 12v7zM21 14h-13q0 -3 1 -4q3 -3 12 -3v7z" />
    <glyph glyph-name="acircumflex" unicode="&#xe2;" horiz-adv-x="37" 
d="M14 50l12 -14h-8l-4 3l-4 -3h-8zM0 21h21q0 4 -13 4h-8v7h8q21 0 21 -11v-21q-15 0 -20 2q-9 4 -9 12v7zM21 14h-13q0 -3 1 -4q3 -3 12 -3v7z" />
    <glyph glyph-name="atilde" unicode="&#xe3;" horiz-adv-x="37" 
d="M25.5 39q-4.33008 -4.625 -10.6777 -1.96484q-6.34863 2.66113 -10.3223 -2.03516v8q4.49609 4.625 10.916 1.9375t10.084 2.0625v-8zM0 21h21q0 4 -13 4h-8v7h8q21 0 21 -11v-21q-15 0 -20 2q-9 4 -9 12v7zM21 14h-13q0 -3 1 -4q3 -3 12 -3v7z" />
    <glyph glyph-name="igrave" unicode="&#xec;" horiz-adv-x="16" 
d="M-2 47.0039h5.99805l8 -10.0039h-9.99805zM0 32h8v-32h-8v32z" />
    <glyph glyph-name="dotlessi" unicode="&#x131;" horiz-adv-x="16" 
d="M0 32h8v-32h-8v32z" />
    <glyph glyph-name="iacute" unicode="&#xed;" horiz-adv-x="16" 
d="M-2 36h5.99805l8 10.0039h-9.99805zM0 32h8v-32h-8v32z" />
    <glyph glyph-name="icircumflex" unicode="&#xee;" horiz-adv-x="16" 
d="M4 50l12 -14h-8l-4 3l-4 -3h-8zM0 32h8v-32h-8v32z" />
    <glyph glyph-name="uni03DB" unicode="&#x3db;" horiz-adv-x="34" 
d="M13 -11.9736v7q5.375 -0.0263672 5.19727 2.18066t-9.12695 8.02441q-9.07031 5.91992 -9.07031 15.3438q0 9.4248 15 11.4248h11v-8h-11q-7 -1 -7 -5q0 -5.3457 9 -11.1729t9 -10.8271q0 -8.98047 -13 -8.97363z" />
    <glyph glyph-name="phi1" unicode="&#x3d5;" horiz-adv-x="48" 
d="M24 42q5.1289 -1 10.5645 -6.5q5.4355 -5.5 5.4355 -17.5q0 -15.7143 -16 -18v-8h-8v8q-16 2 -16 18q0 9.0005 5 16q4.17363 6 11 8v8h8v-8zM24 8q8 2 8 10q-1 12.3333 -8 15v-25zM16 33q-7 -2 -8 -15q0 -7.3333 8 -10v25z" />
    <glyph glyph-name="ograve" unicode="&#xf2;" horiz-adv-x="38" 
d="M8 47.0039h5.99805l8 -10.0039h-9.99805zM8 14q0 -6 7 -6t7 6q0 10 -7 10t-7 -10zM0 13q0 8 4.5 13.5t10.5 5.5t10.5 -5.5t4.5 -13.5q0 -13 -15 -13t-15 13z" />
    <glyph glyph-name="oacute" unicode="&#xf3;" horiz-adv-x="38" 
d="M9 36h5.99805l8 10.0039h-9.99805zM8 14q0 -6 7 -6t7 6q0 10 -7 10t-7 -10zM0 13q0 8 4.5 13.5t10.5 5.5t10.5 -5.5t4.5 -13.5q0 -13 -15 -13t-15 13z" />
    <glyph glyph-name="ocircumflex" unicode="&#xf4;" horiz-adv-x="38" 
d="M15 49l12 -14h-8l-4 3l-4 -3h-8zM8 14q0 -6 7 -6t7 6q0 10 -7 10t-7 -10zM0 13q0 8 4.5 13.5t10.5 5.5t10.5 -5.5t4.5 -13.5q0 -13 -15 -13t-15 13z" />
    <glyph glyph-name="otilde" unicode="&#xf5;" horiz-adv-x="38" 
d="M25.5 38q-4.33008 -4.625 -10.6777 -1.96484q-6.34863 2.66113 -10.3223 -2.03516v8q4.49609 4.625 10.916 1.9375t10.084 2.0625v-8zM8 14q0 -6 7 -6t7 6q0 10 -7 10t-7 -10zM0 13q0 8 4.5 13.5t10.5 5.5t10.5 -5.5t4.5 -13.5q0 -13 -15 -13t-15 13z" />
    <glyph glyph-name="ugrave" unicode="&#xf9;" horiz-adv-x="37" 
d="M6.5 45.0039h5.99805l8 -10.0039h-9.99805zM8 32q0 -23 13 -23v23h8v-32h-8q-21 0 -21 32h8z" />
    <glyph glyph-name="uacute" unicode="&#xfa;" horiz-adv-x="37" 
d="M9.5 35h5.99805l8 10.0039h-9.99805zM8 32q0 -23 13 -23v23h8v-32h-8q-21 0 -21 32h8z" />
    <glyph glyph-name="ucircumflex" unicode="&#xfb;" horiz-adv-x="37" 
d="M14.5 50l12 -14h-8l-4 3l-4 -3h-8zM8 32q0 -23 13 -23v23h8v-32h-8q-21 0 -21 32h8z" />
    <glyph glyph-name="udieresis" unicode="&#xfc;" horiz-adv-x="37" 
d="M16.5 44h8v-8h-8v8zM4.5 44h8v-8h-8v8zM8 32q0 -23 13 -23v23h8v-32h-8q-21 0 -21 32h8z" />
    <glyph glyph-name="yacute" unicode="&#xfd;" horiz-adv-x="36" 
d="M11 35h5.99805l8 10.0039h-9.99805zM20 5q-20 0 -20 27h8q0 -18 12 -18v18h8v-27q0 -19 -18 -19h-5v8h5q10 0 10 11z" />
    <glyph glyph-name="ydieresis" unicode="&#xff;" horiz-adv-x="36" 
d="M16 44h8v-8h-8v8zM4 44h8v-8h-8v8zM20 5q-20 0 -20 27h8q0 -18 12 -18v18h8v-27q0 -19 -18 -19h-5v8h5q10 0 10 11z" />
    <glyph glyph-name="Amacron" unicode="&#x100;" 
d="M11 61.0039h21v-7.0039h-21v7.0039zM8 18v-18h-8v19q0 17 11 25q7 5 17 6h8v-50h-8v24h-19q-1 -3 -1 -6zM11 32h17v9q-10 0 -17 -9z" />
    <glyph glyph-name="amacron" unicode="&#x101;" horiz-adv-x="37" 
d="M4 43.0039h21v-7.0039h-21v7.0039zM0 21h21q0 4 -13 4h-8v7h8q21 0 21 -11v-21q-15 0 -20 2q-9 4 -9 12v7zM21 14h-13q0 -3 1 -4q3 -3 12 -3v7z" />
    <glyph glyph-name="Abreve" unicode="&#x102;" 
d="M36 63q0 -10 -11 -10t-11 10h7q0 -4 4 -4t4 4h7zM8 18v-18h-8v19q0 17 11 25q7 5 17 6h8v-50h-8v24h-19q-1 -3 -1 -6zM11 32h17v9q-10 0 -17 -9z" />
    <glyph glyph-name="abreve" unicode="&#x103;" horiz-adv-x="37" 
d="M25 45q0 -10 -11 -10t-11 10h7q0 -4 4 -4t4 4h7zM0 21h21q0 4 -13 4h-8v7h8q21 0 21 -11v-21q-15 0 -20 2q-9 4 -9 12v7zM21 14h-13q0 -3 1 -4q3 -3 12 -3v7z" />
    <glyph glyph-name="cacute" unicode="&#x107;" horiz-adv-x="33" 
d="M9.5 35h5.99805l8 10.0039h-9.99805zM26 32v-8h-11q-7 -1 -7 -5t6 -8q4 -3 12 -3v-8q-11 0 -18.5 5t-7.5 15t15 12h11z" />
    <glyph glyph-name="Ccircumflex" unicode="&#x108;" 
d="M21 68l12 -14h-8l-4 3l-4 -3h-8zM36 50v-8h-18q-10 -2 -10 -8q0 -9 8 -17t20 -9v-8q-16 1 -26 11t-10 23t18 16h18z" />
    <glyph glyph-name="Cacute" unicode="&#x106;" 
d="M17 53h5.99805l8 10.0039h-9.99805zM36 50v-8h-18q-10 -2 -10 -8q0 -9 8 -17t20 -9v-8q-16 1 -26 11t-10 23t18 16h18z" />
    <glyph glyph-name="Agrave" unicode="&#xc0;" 
d="M17 64.0039h5.99805l8 -10.0039h-9.99805zM8 18v-18h-8v19q0 17 11 25q7 5 17 6h8v-50h-8v24h-19q-1 -3 -1 -6zM11 32h17v9q-10 0 -17 -9z" />
    <glyph glyph-name="Aacute" unicode="&#xc1;" 
d="M21 53h5.99805l8 10.0039h-9.99805zM8 18v-18h-8v19q0 17 11 25q7 5 17 6h8v-50h-8v24h-19q-1 -3 -1 -6zM11 32h17v9q-10 0 -17 -9z" />
    <glyph glyph-name="Acircumflex" unicode="&#xc2;" 
d="M24 68l12 -14h-8l-4 3l-4 -3h-8zM8 18v-18h-8v19q0 17 11 25q7 5 17 6h8v-50h-8v24h-19q-1 -3 -1 -6zM11 32h17v9q-10 0 -17 -9z" />
    <glyph glyph-name="Atilde" unicode="&#xc3;" 
d="M32.5 57q-4.33008 -4.625 -10.6777 -1.96484q-6.34863 2.66113 -10.3223 -2.03516v8q4.49609 4.625 10.916 1.9375t10.084 2.0625v-8zM8 18v-18h-8v19q0 17 11 25q7 5 17 6h8v-50h-8v24h-19q-1 -3 -1 -6zM11 32h17v9q-10 0 -17 -9z" />
    <glyph glyph-name="Aogonek" unicode="&#x104;" 
d="M14.0029 -0.00488281l7.99902 0.00488281q0 -6.02344 8.00098 -6.02344v-8.03027q-16 0 -16 14.0488zM8 18v-18h-8v19q0 17 11 25q7 5 17 6h8v-50h-8v24h-19q-1 -3 -1 -6zM11 32h17v9q-10 0 -17 -9z" />
    <glyph glyph-name="aogonek" unicode="&#x105;" horiz-adv-x="37" 
d="M11.0029 1.99512l7.99902 0.00488281q0 -5.99023 8.00098 -5.99023v-7.98633q-16 0 -16 13.9717zM0 21h21q0 4 -13 4h-8v7h8q21 0 21 -11v-21q-15 0 -20 2q-9 4 -9 12v7zM21 14h-13q0 -3 1 -4q3 -3 12 -3v7z" />
    <glyph glyph-name="ccircumflex" unicode="&#x109;" horiz-adv-x="33" 
d="M14 50l12 -14h-8l-4 3l-4 -3h-8zM26 32v-8h-11q-7 -1 -7 -5t6 -8q4 -3 12 -3v-8q-11 0 -18.5 5t-7.5 15t15 12h11z" />
    <glyph glyph-name="Cdotaccent" unicode="&#x10a;" 
d="M18.001 62.0039h7.99805v-8.00391h-7.99805v8.00391zM36 50v-8h-18q-10 -2 -10 -8q0 -9 8 -17t20 -9v-8q-16 1 -26 11t-10 23t18 16h18z" />
    <glyph glyph-name="cdotaccent" unicode="&#x10b;" horiz-adv-x="33" 
d="M10.501 44.0039h7.99805v-8.00391h-7.99805v8.00391zM26 32v-8h-11q-7 -1 -7 -5t6 -8q4 -3 12 -3v-8q-11 0 -18.5 5t-7.5 15t15 12h11z" />
    <glyph glyph-name="Dcaron" unicode="&#x10e;" 
d="M14 53l-12 14h8l4 -3l4 3h8zM0 50h27q9 -5 9 -17.5t-10.5 -22t-25.5 -10.5v50zM8 42v-32q8 1 14 8t6 14q0 6 -5 10h-15z" />
    <glyph glyph-name="dcaron" unicode="&#x10f;" horiz-adv-x="51" 
d="M43.0068 50q0 -13 -7 -19l-5 6q4 4 4 13h8zM8 19.8574q0 -8 13 -11v15h-11q-2 -2 -2 -4zM29 -0.142578h-8q-21 5 -21 20q0 7 6 12h15v18h8v-50z" />
    <glyph glyph-name="Dcroat" unicode="&#x110;" 
d="M0 50h27q9 -5 9 -17.5t-10.5 -22t-25.5 -10.5v50zM8 42v-6h13l-0.000976562 -7.75098l-12.999 0.000976562v-18.25q8 1 14 8t6 14q0 6 -5 10h-15z" />
    <glyph glyph-name="dcroat" unicode="&#x111;" horiz-adv-x="51" 
d="M8 19.8574q0 -8 13 -11v15h-11q-2 -2 -2 -4zM29 -0.142578h-8q-21 5 -21 20q0 7 6 12h15v5.9903l-7.9951 -0.00299835l-0.00879955 6.0069l8 0.00289917l0.00390053 6.0029h8v-50z" />
    <glyph glyph-name="Emacron" unicode="&#x112;" 
d="M8 61.0039h21v-7.0039h-21v7.0039zM36 50v-8h-28v-6h28v-8h-28v-20h28v-8h-36v50h36z" />
    <glyph glyph-name="emacron" unicode="&#x113;" horiz-adv-x="38" 
d="M6 44.0039h21v-7.0039h-21v7.0039zM22 20v5q-13 0 -13 -5h13zM30 14h-21q2 -6 16 -6h5v-8h-5q-25 0 -25 17q0 15 17 15h13v-18z" />
    <glyph glyph-name="Ebreve" unicode="&#x114;" 
d="M30 63q0 -10 -11 -10t-11 10h7q0 -4 4 -4t4 4h7zM36 50v-8h-28v-6h28v-8h-28v-20h28v-8h-36v50h36z" />
    <glyph glyph-name="ebreve" unicode="&#x115;" horiz-adv-x="38" 
d="M27.5 45q0 -10 -11 -10t-11 10h7q0 -4 4 -4t4 4h7zM22 20v5q-13 0 -13 -5h13zM30 14h-21q2 -6 16 -6h5v-8h-5q-25 0 -25 17q0 15 17 15h13v-18z" />
    <glyph glyph-name="Edotaccent" unicode="&#x116;" 
d="M15.001 61.0039h7.99805v-8.00391h-7.99805v8.00391zM36 50v-8h-28v-6h28v-8h-28v-20h28v-8h-36v50h36z" />
    <glyph glyph-name="edotaccent" unicode="&#x117;" horiz-adv-x="38" 
d="M12.501 44.0039h7.99805v-8.00391h-7.99805v8.00391zM22 20v5q-13 0 -13 -5h13zM30 14h-21q2 -6 16 -6h5v-8h-5q-25 0 -25 17q0 15 17 15h13v-18z" />
    <glyph glyph-name="eogonek" unicode="&#x119;" horiz-adv-x="38" 
d="M12.5029 1.46191l7.99902 0.00488281q0 -6 8.00098 -6v-8q-16 0 -16 13.9951zM22 20v5q-13 0 -13 -5h13zM30 14h-21q2 -6 16 -6h5v-8h-5q-25 0 -25 17q0 15 17 15h13v-18z" />
    <glyph glyph-name="Eogonek" unicode="&#x118;" 
d="M15.0029 -0.00488281l7.99902 0.00488281q0 -6.02246 8.00098 -6.02246v-8.03125q-16 0 -16 14.0488zM36 50v-8h-28v-6h28v-8h-28v-20h28v-8h-36v50h36z" />
    <glyph glyph-name="Ecaron" unicode="&#x11a;" 
d="M19 53l-12 14h8l4 -3l4 3h8zM36 50v-8h-28v-6h28v-8h-28v-20h28v-8h-36v50h36z" />
    <glyph glyph-name="ecaron" unicode="&#x11b;" horiz-adv-x="38" 
d="M16.5 35l-12 14h8l4 -3l4 3h8zM22 20v5q-13 0 -13 -5h13zM30 14h-21q2 -6 16 -6h5v-8h-5q-25 0 -25 17q0 15 17 15h13v-18z" />
    <glyph glyph-name="Gcircumflex" unicode="&#x11c;" 
d="M22.5 68l12 -14h-8l-4 3l-4 -3h-8zM28 10v18h-8v8h16v-36q-16 3 -26 12t-10 18q0 17 17 20h19v-8h-18q-10 -2 -10 -12q0 -13 20 -20z" />
    <glyph glyph-name="sterling" unicode="&#xa3;" 
d="M10 13l-1 -5h27v-8h-36q0 42 36 50v-9q-12 -2 -21 -15h21v-5h-24l-1 -3h25v-5h-26z" />
    <glyph glyph-name="gcircumflex" unicode="&#x11d;" horiz-adv-x="34" 
d="M14.2412 50l12 -14h-8l-4 3l-4 -3h-8zM18.7412 0q-6 2 -12 5q-9 5 -9 14q0 8 6 13h23v-32q0 -14 -18 -14h-11v8h11q10 0 10 6zM18.7412 24h-11q-2 -2 -2 -4q0 -4 4 -7t9 -4v15z" />
    <glyph glyph-name="Gbreve" unicode="&#x11e;" 
d="M31.5 63q0 -10 -11 -10t-11 10h7q0 -4 4 -4t4 4h7zM28 10v18h-8v8h16v-36q-16 3 -26 12t-10 18q0 17 17 20h19v-8h-18q-10 -2 -10 -12q0 -13 20 -20z" />
    <glyph glyph-name="gbreve" unicode="&#x11f;" horiz-adv-x="34" 
d="M25.2412 45q0 -10 -11 -10t-11 10h7q0 -4 4 -4t4 4h7zM18.7412 0q-6 2 -12 5q-9 5 -9 14q0 8 6 13h23v-32q0 -14 -18 -14h-11v8h11q10 0 10 6zM18.7412 24h-11q-2 -2 -2 -4q0 -4 4 -7t9 -4v15z" />
    <glyph glyph-name="Gdotaccent" unicode="&#x120;" 
d="M16.501 61.0039h7.99805v-8.00391h-7.99805v8.00391zM28 10v18h-8v8h16v-36q-16 3 -26 12t-10 18q0 17 17 20h19v-8h-18q-10 -2 -10 -12q0 -13 20 -20z" />
    <glyph glyph-name="gdotaccent" unicode="&#x121;" horiz-adv-x="34" 
d="M10.2422 44.0039h7.99805v-8.00391h-7.99805v8.00391zM18.7412 0q-6 2 -12 5q-9 5 -9 14q0 8 6 13h23v-32q0 -14 -18 -14h-11v8h11q10 0 10 6zM18.7412 24h-11q-2 -2 -2 -4q0 -4 4 -7t9 -4v15z" />
    <glyph glyph-name="Igrave" unicode="&#xcc;" horiz-adv-x="16" 
d="M-2 64.0039h5.99805l8 -10.0039h-9.99805zM0 50h8v-50h-8v50z" />
    <glyph glyph-name="Iacute" unicode="&#xcd;" horiz-adv-x="16" 
d="M-1 54h5.99805l8 10.0039h-9.99805zM0 50h8v-50h-8v50z" />
    <glyph glyph-name="Icircumflex" unicode="&#xce;" horiz-adv-x="16" 
d="M4 68l12 -14h-8l-4 3l-4 -3h-8zM0 50h8v-50h-8v50z" />
    <glyph glyph-name="Idieresis" unicode="&#xcf;" horiz-adv-x="16" 
d="M6 62h8v-8h-8v8zM-6 62h8v-8h-8v8zM0 50h8v-50h-8v50z" />
    <glyph glyph-name="Ntilde" unicode="&#xd1;" 
d="M28.5 57q-4.33008 -4.625 -10.6777 -1.96484q-6.34863 2.66113 -10.3223 -2.03516v8q4.49609 4.625 10.916 1.9375t10.084 2.0625v-8zM8 41v-41h-8v50h8q16 -8 20 -21v21h8v-50h-8q0 28 -20 41z" />
    <glyph glyph-name="Ograve" unicode="&#xd2;" horiz-adv-x="48" 
d="M13 64.0039h5.99805l8 -10.0039h-9.99805zM8 20q0 -12 12 -12t12 12q0 22 -12 22t-12 -22zM0 20q0 14 5 21q6 9 15 9q11 0 15 -9q5 -9 5 -21q0 -20 -20 -20t-20 20z" />
    <glyph glyph-name="Oacute" unicode="&#xd3;" horiz-adv-x="48" 
d="M15 54h5.99805l8 10.0039h-9.99805zM8 20q0 -12 12 -12t12 12q0 22 -12 22t-12 -22zM0 20q0 14 5 21q6 9 15 9q11 0 15 -9q5 -9 5 -21q0 -20 -20 -20t-20 20z" />
    <glyph glyph-name="Ocircumflex" unicode="&#xd4;" horiz-adv-x="48" 
d="M20 68l12 -14h-8l-4 3l-4 -3h-8zM8 20q0 -12 12 -12t12 12q0 22 -12 22t-12 -22zM0 20q0 14 5 21q6 9 15 9q11 0 15 -9q5 -9 5 -21q0 -20 -20 -20t-20 20z" />
    <glyph glyph-name="Otilde" unicode="&#xd5;" horiz-adv-x="48" 
d="M30.5 57q-4.33008 -4.625 -10.6777 -1.96484q-6.34863 2.66113 -10.3223 -2.03516v8q4.49609 4.625 10.916 1.9375t10.084 2.0625v-8zM8 20q0 -12 12 -12t12 12q0 22 -12 22t-12 -22zM0 20q0 14 5 21q6 9 15 9q11 0 15 -9q5 -9 5 -21q0 -20 -20 -20t-20 20z" />
    <glyph glyph-name="Ugrave" unicode="&#xd9;" 
d="M10 60.0039h5.99805l8 -10.0039h-9.99805zM8 32q0 -18 20 -23v41h8v-50q-16 0 -26 9t-10 23v18h8v-18z" />
    <glyph glyph-name="Uacute" unicode="&#xda;" 
d="M13 50h5.99805l8 10.0039h-9.99805zM8 32q0 -18 20 -23v41h8v-50q-16 0 -26 9t-10 23v18h8v-18z" />
    <glyph glyph-name="Ucircumflex" unicode="&#xdb;" 
d="M18 68l12 -14h-8l-4 3l-4 -3h-8zM8 32q0 -18 20 -23v41h8v-50q-16 0 -26 9t-10 23v18h8v-18z" />
    <glyph glyph-name="Udieresis" unicode="&#xdc;" 
d="M20 62h8v-8h-8v8zM8 62h8v-8h-8v8zM8 32q0 -18 20 -23v41h8v-50q-16 0 -26 9t-10 23v18h8v-18z" />
    <glyph glyph-name="Gcommaaccent" unicode="&#x122;" 
d="M16.9941 1h7.0127v-10.8662h-7.0127v10.8662zM28 10v18h-8v8h16v-36q-16 3 -26 12t-10 18q0 17 17 20h19v-8h-18q-10 -2 -10 -12q0 -13 20 -20z" />
    <glyph glyph-name="gcommaaccent" unicode="&#x123;" horiz-adv-x="34" 
d="M10.2412 36h5.99805l8 10.0039h-9.99805zM18.7412 0q-6 2 -12 5q-9 5 -9 14q0 8 6 13h23v-32q0 -14 -18 -14h-11v8h11q10 0 10 6zM18.7412 24h-11q-2 -2 -2 -4q0 -4 4 -7t9 -4v15z" />
    <glyph glyph-name="Hcircumflex" unicode="&#x124;" 
d="M18 68l12 -14h-8l-4 3l-4 -3h-8zM8 36h20v14h8v-50h-8v28h-20v-28h-8v50h8v-14z" />
    <glyph glyph-name="hcircumflex" unicode="&#x125;" horiz-adv-x="36" 
d="M14 68l12 -14h-8l-4 3l-4 -3h-8zM28 0h-8v14q0 10 -12 10v-24h-8v50h8v-18q20 0 20 -18v-14z" />
    <glyph glyph-name="Hbar" unicode="&#x126;" 
d="M8 34v-4h20v4h-20zM8 41h20v9h8v-50h-8v23h-20v-23h-8v50h8v-9z" />
    <glyph glyph-name="hbar" unicode="&#x127;" horiz-adv-x="36" 
d="M28 0h-8v14q0 10 -12 10v-24h-8l0.00390625 34l-4 0.0019989l-0.00293016 6.9892l3.99902 -0.134098v9.1429h8v-9l7.999 -0.0019989v-6.996l-7.999 -0.000999451v-2.001q20 0 20 -18v-14zM16 41z" />
    <glyph glyph-name="Itilde" unicode="&#x128;" horiz-adv-x="16" 
d="M14.5 57q-4.33008 -4.625 -10.6777 -1.96484q-6.34863 2.66113 -10.3223 -2.03516v8q4.49609 4.625 10.916 1.9375t10.084 2.0625v-8zM0 50h8v-50h-8v50z" />
    <glyph glyph-name="itilde" unicode="&#x129;" horiz-adv-x="16" 
d="M14.5 39q-4.33008 -4.625 -10.6777 -1.96484q-6.34863 2.66113 -10.3223 -2.03516v8q4.49609 4.625 10.916 1.9375t10.084 2.0625v-8zM0 32h8v-32h-8v32z" />
    <glyph glyph-name="Imacron" unicode="&#x12a;" horiz-adv-x="16" 
d="M-7 61.0039h21v-7.0039h-21v7.0039zM0 50h8v-50h-8v50z" />
    <glyph glyph-name="imacron" unicode="&#x12b;" horiz-adv-x="16" 
d="M-7 44.0039h21v-7.0039h-21v7.0039zM0 32h8v-32h-8v32z" />
    <glyph glyph-name="Ibreve" unicode="&#x12c;" horiz-adv-x="16" 
d="M15 63q0 -10 -11 -10t-11 10h7q0 -4 4 -4t4 4h7zM0 50h8v-50h-8v50z" />
    <glyph glyph-name="ibreve" unicode="&#x12d;" horiz-adv-x="16" 
d="M15 46q0 -10 -11 -10t-11 10h7q0 -4 4 -4t4 4h7zM0 32h8v-32h-8v32z" />
    <glyph glyph-name="Iogonek" unicode="&#x12e;" horiz-adv-x="16" 
d="M0.00292969 -0.00488281l7.99902 0.00488281q0 -6.0293 8.00098 -6.0293v-8.03906q-16 0 -16 14.0635zM0 50h8v-50h-8v50z" />
    <glyph glyph-name="iogonek" unicode="&#x12f;" horiz-adv-x="16" 
d="M0.00292969 -0.00488281l7.99902 0.00488281q0 -6.0293 8.00098 -6.0293v-8.03906q-16 0 -16 14.0635zM0 50.0039h7.99805v-8.00391h-7.99805v8.00391zM0 32h8v-32h-8v32z" />
    <glyph glyph-name="Idotaccent" unicode="&#x130;" horiz-adv-x="16" 
d="M0.000976562 62.0039h7.99805v-8.00391h-7.99805v8.00391zM0 50h8v-50h-8v50z" />
    <glyph glyph-name="IJ" unicode="&#x132;" horiz-adv-x="40" 
d="M0 50.0039l8 -0.00389862v-34.0049l-8.00098 0.00589943zM32 50v-28q0 -12 -10 -17q-8.33301 -5 -22 -5v8q25 0 25 14v28h7z" />
    <glyph glyph-name="ij" unicode="&#x133;" horiz-adv-x="48" 
d="M0 32h8v-27l-8 -5v32zM0 50h8v-8h-8v8zM16 50.0039h7.99805v-8.00391h-7.99805v8.00391zM16 32h8v-19q0 -27 -24 -27v8q16 0 16 19v19z" />
    <glyph glyph-name="Jcircumflex" unicode="&#x134;" horiz-adv-x="40" 
d="M28.5 68l12 -14h-8l-4 3l-4 -3h-8zM32 50v-28q0 -12 -10 -17q-8.33301 -5 -22 -5v8q25 0 25 14v28h7z" />
    <glyph glyph-name="jcircumflex" unicode="&#x135;" horiz-adv-x="32" 
d="M16 32h8v-19q0 -27 -24 -27v8q16 0 16 19v19zM20 52l12 -14h-8l-4 3l-4 -3h-8z" />
    <glyph glyph-name="Kcommaaccent" unicode="&#x136;" 
d="M19.9971 -10h-7.9971v10h7.9971v-10zM36 0h-10l-18 25v-25h-8v50h8v-12l15 12h13l-23 -18z" />
    <glyph glyph-name="kcommaaccent" unicode="&#x137;" horiz-adv-x="40" 
d="M17.9971 -10h-7.9971v10h7.9971v-10zM13 18l19 -18h-11l-13 12v-12h-8v50h8v-26l16 8l3 -7z" />
    <glyph glyph-name="kgreenlandic" unicode="&#x138;" horiz-adv-x="40" 
d="M13 18l19 -18h-11l-13 12v-12h-8v32h8v-8l11 8h13z" />
    <glyph glyph-name="Lacute" unicode="&#x139;" 
d="M4 53h5.99805l8 10.0039h-9.99805zM8 8h24l4 -8h-36v50h8v-42z" />
    <glyph glyph-name="lacute" unicode="&#x13a;" horiz-adv-x="15" 
d="M3 52h5.99805l8 10.0039h-9.99805zM0 50l8 -6v-44h-8v50z" />
    <glyph glyph-name="Lcommaaccent" unicode="&#x13b;" 
d="M21.9971 -14h-7.9971v10h7.9971v-10zM8 8h24l4 -8h-36v50h8v-42z" />
    <glyph glyph-name="lcommaaccent" unicode="&#x13c;" horiz-adv-x="15" 
d="M7.99707 -14h-7.99707v10h7.99707v-10zM0 50l8 -6v-44h-8v50z" />
    <glyph glyph-name="Lcaron" unicode="&#x13d;" 
d="M26.5 50q0 -13 -7 -19l-5 6q4 4 4 13h8zM8 8h24l4 -8h-36v50h8v-42z" />
    <glyph glyph-name="lcaron" unicode="&#x13e;" horiz-adv-x="30" 
d="M22.5 50q0 -13 -7 -19l-5 6q4 4 4 13h8zM0 50l8 -6v-44h-8v50z" />
    <glyph glyph-name="Ldot" unicode="&#x13f;" 
d="M14 29h8v-8h-8v8zM8 8h24l4 -8h-36v50h8v-42z" />
    <glyph glyph-name="ldot" unicode="&#x140;" horiz-adv-x="28" 
d="M12 20h8v-8h-8v8zM0 50l8 -6v-44h-8v50z" />
    <glyph glyph-name="Lslash" unicode="&#x141;" 
d="M8 8h24l4 -8h-36v16.8571l-7.99902 -3.8571l0.00390005 8.0029l7.99512 3.8623v25.1348h8v-21.7139l7.7109 3.7041l0.000999451 -7.9902l-7.7119 -3.5714v-12.4286z" />
    <glyph glyph-name="lslash" unicode="&#x142;" 
d="M0 50l8 -6v-15.4286l7.7168 3.4208l-0.00290012 -7.9922l-7.7139 -3.5714v-20.4286h-8v16.7143l-7.99316 -3.7036l-0.00293016 7.9873l7.99609 3.7163v25.2857z" />
    <glyph glyph-name="uni00B5" unicode="&#xb5;" 
d="M36 0h-28v-14h-8v46h8v-24h13v24h8l0.0078125 -24l7 -0.00390625z" />
    <glyph glyph-name="uni00B2" unicode="&#xb2;" horiz-adv-x="27" 
d="M11.7129 38.5693l-2.7129 -2.5693h6l4 -4h-16l-3 4l6.01758 4.1426q1.98242 1.3647 1.98242 2.8574q0 2 -3 2h-2l-3 5h5q9 0 9 -7q0 -2.2646 -2.2871 -4.4307z" />
    <glyph glyph-name="uni00B3" unicode="&#xb3;" horiz-adv-x="26" 
d="M9 32h-9v4h9q4 0 4 2q0 1 -2 1h-11v4h8q1 1 0.5 2t-8.5 1v4q14 0 14 -5q0 -1 -1 -2q5 -1 5 -5q0 -6 -9 -6z" />
    <glyph glyph-name="eth" unicode="&#xf0;" horiz-adv-x="38" 
d="M19 32q3.0771 -1 7 -6q4 -6 4 -13q0 -13 -15 -13t-15 13q0 8 4 13q3.92285 5 7 6v1h-8v6l8 0.125v5.875h8v-6h8.125v-6h-8zM8 14q0 -6 7 -6t7 6q0 10 -7 10t-7 -10z" />
    <glyph glyph-name="uni00A0" unicode="&#xa0;" horiz-adv-x="46" 
 />
    <glyph glyph-name="ordmasculine" unicode="&#xba;" horiz-adv-x="33" 
d="M4 30.0039h21v-7.00391h-21v7.00391zM12.0977 41.0176q0 -2.98926 1.99121 -2.98926t1.99121 2.98926q0 2.98828 -1.99121 2.98828t-1.99121 -2.98828zM6.41699 40.9336q0 7 7.5 7t7.5 -7t-7.5 -7t-7.5 7z" />
    <glyph glyph-name="uni00B9" unicode="&#xb9;" horiz-adv-x="14" 
d="M0 46l6 4v-18h-6v14z" />
    <glyph glyph-name="Omacron" unicode="&#x14c;" horiz-adv-x="48" 
d="M9.5 60.0039h21v-7.00391h-21v7.00391zM8 20q0 -12 12 -12t12 12q0 22 -12 22t-12 -22zM0 20q0 14 5 21q6 9 15 9q11 0 15 -9q5 -9 5 -21q0 -20 -20 -20t-20 20z" />
    <glyph glyph-name="omacron" unicode="&#x14d;" horiz-adv-x="38" 
d="M4.5 42.0039h21v-7.00391h-21v7.00391zM8 14q0 -6 7 -6t7 6q0 10 -7 10t-7 -10zM0 13q0 8 4.5 13.5t10.5 5.5t10.5 -5.5t4.5 -13.5q0 -13 -15 -13t-15 13z" />
    <glyph glyph-name="Obreve" unicode="&#x14e;" horiz-adv-x="48" 
d="M31 63q0 -10 -11 -10t-11 10h7q0 -4 4 -4t4 4h7zM8 20q0 -12 12 -12t12 12q0 22 -12 22t-12 -22zM0 20q0 14 5 21q6 9 15 9q11 0 15 -9q5 -9 5 -21q0 -20 -20 -20t-20 20z" />
    <glyph glyph-name="obreve" unicode="&#x14f;" horiz-adv-x="38" 
d="M26 45q0 -10 -11 -10t-11 10h7q0 -4 4 -4t4 4h7zM8 14q0 -6 7 -6t7 6q0 10 -7 10t-7 -10zM0 13q0 8 4.5 13.5t10.5 5.5t10.5 -5.5t4.5 -13.5q0 -13 -15 -13t-15 13z" />
    <glyph glyph-name="Ohungarumlaut" unicode="&#x150;" horiz-adv-x="48" 
d="M23 51.9658h5.99805l8 9.83398h-9.99805zM9 51.9658h5.99805l8 9.83398h-9.99805zM8 20q0 -12 12 -12t12 12q0 22 -12 22t-12 -22zM0 20q0 14 5 21q6 9 15 9q11 0 15 -9q5 -9 5 -21q0 -20 -20 -20t-20 20z" />
    <glyph glyph-name="ohungarumlaut" unicode="&#x151;" horiz-adv-x="38" 
d="M19 34.9658h5.99805l8 9.83301h-9.99805zM5 34.9658h5.99805l8 9.83301h-9.99805zM8 14q0 -6 7 -6t7 6q0 10 -7 10t-7 -10zM0 13q0 8 4.5 13.5t10.5 5.5t10.5 -5.5t4.5 -13.5q0 -13 -15 -13t-15 13z" />
    <glyph glyph-name="uni034F" unicode="&#x34f;" horiz-adv-x="46" 
 />
    <glyph glyph-name="macron" unicode="&#xaf;" horiz-adv-x="48" 
d="M8 61.0039h21v-7.0039h-21v7.0039z" />
    <glyph glyph-name="Ncaron" unicode="&#x147;" 
d="M18 48l-12 14h8l4 -3l4 3h8zM8 41v-41h-8v50h8q16 -8 20 -21v21h8v-50h-8q0 28 -20 41z" />
    <glyph glyph-name="nacute" unicode="&#x144;" horiz-adv-x="36" 
d="M10 36h5.99805l8 10.0039h-9.99805zM20 14q0 10 -12 10v-24h-8v32h8q20 0 20 -18v-14h-8v14z" />
    <glyph glyph-name="Ncommaaccent" unicode="&#x145;" 
d="M13.9951 0h8.1992l0.00489998 -10.0029h-8.1992zM8 41v-41h-8v50h8q16 -8 20 -21v21h8v-50h-8q0 28 -20 41z" />
    <glyph glyph-name="ncommaaccent" unicode="&#x146;" horiz-adv-x="36" 
d="M10.9951 0h8.1992l0.00489998 -10.0029h-8.1992zM20 14q0 10 -12 10v-24h-8v32h8q20 0 20 -18v-14h-8v14z" />
    <glyph glyph-name="uni00AD" unicode="&#xad;" horiz-adv-x="37" 
d="M0 19.0039h29v-7.0039h-29v7.0039z" />
    <glyph glyph-name="logicalnot" unicode="&#xac;" horiz-adv-x="37" 
d="M0 23.0039h29v-14.0039l-7.998 0.000980377v7.00102l-21.002 -0.00200081v7.0039z" />
    <glyph glyph-name="cent" unicode="&#xa2;" horiz-adv-x="34" 
d="M21.999 7.00488l-0.00189972 -7.00781h-7l0.00580025 7.99902q-4.3652 1.50196 -7.5029 4.00391q-7.5 5.833 -7.5 15q0.306641 10.041 15 12l0.00290012 7h6.9971l-0.000999451 -6.9961l4.001 -0.00389862v-8h-11q-7 -1 -7 -5t6 -8q4 -3 12 -3v-8
q-2 0.00194979 -4.001 0.00487995z" />
    <glyph glyph-name="Rcommaaccent" unicode="&#x156;" horiz-adv-x="49" 
d="M13.7959 -10.001v9.99807l8.3037 0.00195313v-9.99902zM21 33q6 0 6 5q0 4 -6 4h-13v-9h13zM41 0h-10l-12 24h-11v-24h-8v50h24q12 0 12 -13q0 -7 -8 -12z" />
    <glyph glyph-name="rcommaaccent" unicode="&#x157;" horiz-adv-x="34" 
d="M11.7959 -10.001v9.99807l8.3037 0.00195313v-9.99902zM19 24q-11 0 -11 -7v-17h-8v17q0 15 19 15h7v-8h-7z" />
    <glyph glyph-name="Rcaron" unicode="&#x158;" horiz-adv-x="49" 
d="M17 53l-12 14h8l4 -3l4 3h8zM21 33q6 0 6 5q0 4 -6 4h-13v-9h13zM41 0h-10l-12 24h-11v-24h-8v50h24q12 0 12 -13q0 -7 -8 -12z" />
    <glyph glyph-name="rcaron" unicode="&#x159;" horiz-adv-x="34" 
d="M13 35l-12 14h8l4 -3l4 3h8zM19 24q-11 0 -11 -7v-17h-8v17q0 15 19 15h7v-8h-7z" />
    <glyph glyph-name="Sacute" unicode="&#x15a;" horiz-adv-x="51" 
d="M19 53h5.99805l8 10.0039h-9.99805zM36 50v-8q-25 0 -25 -4t12 -4q20 0 20 -13q0 -21 -43 -21v8q35 0 35 13q0 5 -15 5q-17 0 -17 12t33 12z" />
    <glyph glyph-name="sacute" unicode="&#x15b;" horiz-adv-x="37" 
d="M11.5 35h5.99805l8 10.0039h-9.99805zM23 21q6 0 6 -6v-4q0 -11 -29 -11v8q21 0 21 5h-7q-14 0 -14 9.5t14 9.5h15v-7h-15q-5 0 -5 -2t5 -2h9z" />
    <glyph glyph-name="Scircumflex" unicode="&#x15c;" horiz-adv-x="51" 
d="M21 67l12 -14h-8l-4 3l-4 -3h-8zM36 50v-8q-25 0 -25 -4t12 -4q20 0 20 -13q0 -21 -43 -21v8q35 0 35 13q0 5 -15 5q-17 0 -17 12t33 12z" />
    <glyph glyph-name="scircumflex" unicode="&#x15d;" horiz-adv-x="37" 
d="M15.5 50l12 -14h-8l-4 3l-4 -3h-8zM23 21q6 0 6 -6v-4q0 -11 -29 -11v8q21 0 21 5h-7q-14 0 -14 9.5t14 9.5h15v-7h-15q-5 0 -5 -2t5 -2h9z" />
    <glyph glyph-name="Scedilla" unicode="&#x15e;" horiz-adv-x="51" 
d="M16 -0.536133v3h6v-2q6 -3 6 -6q0 -6 -11 -6h-5v4h5q5 0 5 1.5t-6 5.5zM36 50v-8q-25 0 -25 -4t12 -4q20 0 20 -13q0 -21 -43 -21v8q35 0 35 13q0 5 -15 5q-17 0 -17 12t33 12z" />
    <glyph glyph-name="scedilla" unicode="&#x15f;" horiz-adv-x="37" 
d="M10 -1.53613v3h6v-2q6 -3 6 -6q0 -6 -11 -6h-5v4h5q5 0 5 1.5t-6 5.5zM23 21q6 0 6 -6v-4q0 -11 -29 -11v8q21 0 21 5h-7q-14 0 -14 9.5t14 9.5h15v-7h-15q-5 0 -5 -2t5 -2h9z" />
    <glyph glyph-name="Scaron" unicode="&#x160;" horiz-adv-x="51" 
d="M22 52l-12 14h8l4 -3l4 3h8zM36 50v-8q-25 0 -25 -4t12 -4q20 0 20 -13q0 -21 -43 -21v8q35 0 35 13q0 5 -15 5q-17 0 -17 12t33 12z" />
    <glyph glyph-name="scaron" unicode="&#x161;" horiz-adv-x="37" 
d="M14.5 35l-12 14h8l4 -3l4 3h8zM23 21q6 0 6 -6v-4q0 -11 -29 -11v8q21 0 21 5h-7q-14 0 -14 9.5t14 9.5h15v-7h-15q-5 0 -5 -2t5 -2h9z" />
    <glyph glyph-name="Tcommaaccent" unicode="&#x162;" 
d="M10.9951 -3h8.1992l0.00489998 -9.0029h-8.1992zM11 0v42h-11v8h36l-4 -8h-13v-42h-8z" />
    <glyph glyph-name="Tcaron" unicode="&#x164;" 
d="M16 52l-12 14h8l4 -3l4 3h8zM11 0v42h-11v8h36l-4 -8h-13v-42h-8z" />
    <glyph glyph-name="tcaron" unicode="&#x165;" horiz-adv-x="30" 
d="M12.7959 39.999v9.9981l8.3037 0.00189972v-9.999zM17 24h-9q0 -7 4.5 -11.5t9.5 -4.5v-8q-7 0 -14.5 6.5t-7.5 17.5v26h8v-18h9v-8z" />
    <glyph glyph-name="tcommaaccent" unicode="&#x163;" horiz-adv-x="30" 
d="M8.99512 0h8.19918l0.00489998 -10.0029h-8.1992zM17 24h-9q0 -7 4.5 -11.5t9.5 -4.5v-8q-7 0 -14.5 6.5t-7.5 17.5v26h8v-18h9v-8z" />
    <glyph glyph-name="Tbar" unicode="&#x166;" 
d="M11 0.00390625v24.7104l-7.99902 0.00449944l0.00195003 7.2812l7.99707 -0.1429v10.1468h-11v8h36l-4 -8h-13v-10.1468l7.0029 0.1429l-0.00289917 -7.2832l-7 -0.145401v-24.5675h-8z" />
    <glyph glyph-name="tbar" unicode="&#x167;" horiz-adv-x="30" 
d="M17 24h-9q0 -7 4.5 -11.5t9.5 -4.5v-8q-7 0 -14.5 6.5t-7.5 17.5v26h8v-10h9l0.000999451 -6.0029l-9.00881 0.00780106l0.00390005 -4.0029l9.00391 -0.00100136v-6.001z" />
    <glyph glyph-name="Utilde" unicode="&#x168;" 
d="M28.5 57q-4.33008 -4.625 -10.6777 -1.96484q-6.34863 2.66113 -10.3223 -2.03516v8q4.49609 4.625 10.916 1.9375t10.084 2.0625v-8zM8 32q0 -18 20 -23v41h8v-50q-16 0 -26 9t-10 23v18h8v-18z" />
    <glyph glyph-name="utilde" unicode="&#x169;" horiz-adv-x="37" 
d="M25 39q-4.33008 -4.625 -10.6777 -1.96484q-6.34863 2.66113 -10.3223 -2.03516v8q4.49609 4.625 10.916 1.9375t10.084 2.0625v-8zM8 32q0 -23 13 -23v23h8v-32h-8q-21 0 -21 32h8z" />
    <glyph glyph-name="Umacron" unicode="&#x16a;" 
d="M7.5 60.0039h21v-7.00391h-21v7.00391zM8 32q0 -18 20 -23v41h8v-50q-16 0 -26 9t-10 23v18h8v-18z" />
    <glyph glyph-name="umacron" unicode="&#x16b;" horiz-adv-x="37" 
d="M4 42.0039h21v-7.00391h-21v7.00391zM8 32q0 -23 13 -23v23h8v-32h-8q-21 0 -21 32h8z" />
    <glyph glyph-name="Uring" unicode="&#x16e;" 
d="M16.1807 57.084q0 -2.98926 1.99121 -2.98926t1.99121 2.98926q0 2.98828 -1.99121 2.98828t-1.99121 -2.98828zM10.5 57q0 7 7.5 7t7.5 -7t-7.5 -7t-7.5 7zM8 32q0 -18 20 -23v41h8v-50q-16 0 -26 9t-10 23v18h8v-18z" />
    <glyph glyph-name="uring" unicode="&#x16f;" horiz-adv-x="37" 
d="M12.6807 41.084q0 -2.98926 1.99121 -2.98926t1.99121 2.98926q0 2.98828 -1.99121 2.98828t-1.99121 -2.98828zM7 41q0 7 7.5 7t7.5 -7t-7.5 -7t-7.5 7zM8 32q0 -23 13 -23v23h8v-32h-8q-21 0 -21 32h8z" />
    <glyph glyph-name="Ubreve" unicode="&#x16c;" 
d="M29 60q0 -10 -11 -10t-11 10h7q0 -4 4 -4t4 4h7zM8 32q0 -18 20 -23v41h8v-50q-16 0 -26 9t-10 23v18h8v-18z" />
    <glyph glyph-name="Uhungarumlaut" unicode="&#x170;" 
d="M19 51.9658h5.99805l8 9.83398h-9.99805zM5 51.9658h5.99805l8 9.83398h-9.99805zM8 32q0 -18 20 -23v41h8v-50q-16 0 -26 9t-10 23v18h8v-18z" />
    <glyph glyph-name="Uogonek" unicode="&#x172;" 
d="M25.002 1q0 -6.0293 8.0009 -6.0293v-8.0391q-16 0 -16 14.0635l0.163801 3.08879q-3.9029 1.9787 -7.1667 4.91609q-10 9 -10 23v18h8v-18q0 -18 20 -23v41h8v-50z" />
    <glyph glyph-name="ubreve" unicode="&#x16d;" horiz-adv-x="37" 
d="M26.5 44q0 -10 -11 -10t-11 10h7q0 -4 4 -4t4 4h7zM8 32q0 -23 13 -23v23h8v-32h-8q-21 0 -21 32h8z" />
    <glyph glyph-name="uhungarumlaut" unicode="&#x171;" horiz-adv-x="37" 
d="M17 34.9658h5.99805l8 9.83301h-9.99805zM3 34.9658h5.99805l8 9.83301h-9.99805zM8 32q0 -23 13 -23v23h8v-32h-8q-21 0 -21 32h8z" />
    <glyph glyph-name="uogonek" unicode="&#x173;" horiz-adv-x="37" 
d="M13.0029 1.46191l7.99902 0.00488281q0 -6 8.00098 -6v-8q-16 0 -16 13.9951zM8 32q0 -23 13 -23v23h8v-32h-8q-21 0 -21 32h8z" />
    <glyph glyph-name="Wcircumflex" unicode="&#x174;" horiz-adv-x="66" 
d="M29 67l12 -14h-8l-4 3l-4 -3h-8zM58 30q0 -30 -29 -30t-29 30v20h8v-20q0 -22 17 -22v42h8v-42q17 0 17 22v20h8v-20z" />
    <glyph glyph-name="Ycircumflex" unicode="&#x176;" horiz-adv-x="48" 
d="M20 67l12 -14h-8l-4 3l-4 -3h-8zM20 39l10 11h10l-16 -18v-32h-8v32l-16 18h10z" />
    <glyph glyph-name="ycircumflex" unicode="&#x177;" horiz-adv-x="36" 
d="M14 50l12 -14h-8l-4 3l-4 -3h-8zM20 5q-20 0 -20 27h8q0 -18 12 -18v18h8v-27q0 -19 -18 -19h-5v8h5q10 0 10 11z" />
    <glyph glyph-name="Ydieresis" unicode="&#x178;" horiz-adv-x="48" 
d="M22 61h8v-8h-8v8zM10 61h8v-8h-8v8zM20 39l10 11h10l-16 -18v-32h-8v32l-16 18h10z" />
    <glyph glyph-name="Zacute" unicode="&#x179;" horiz-adv-x="48" 
d="M17 53h5.99805l8 10.0039h-9.99805zM36 8l4 -8h-40l22 42h-13l-4 8h30l-22 -42h23z" />
    <glyph glyph-name="zacute" unicode="&#x17a;" horiz-adv-x="39" 
d="M11.5 36h5.99805l8 10.0039h-9.99805zM0 32h29l-16 -24h18v-8h-33l16 24h-14v8z" />
    <glyph glyph-name="Zdotaccent" unicode="&#x17b;" horiz-adv-x="48" 
d="M16.001 61.0039h7.99805v-8.00391h-7.99805v8.00391zM36 8l4 -8h-40l22 42h-13l-4 8h30l-22 -42h23z" />
    <glyph glyph-name="zdotaccent" unicode="&#x17c;" horiz-adv-x="39" 
d="M10.501 44.0039h7.99805v-8.00391h-7.99805v8.00391zM0 32h29l-16 -24h18v-8h-33l16 24h-14v8z" />
    <glyph glyph-name="Zcaron" unicode="&#x17d;" horiz-adv-x="48" 
d="M20 52l-12 14h8l4 -3l4 3h8zM36 8l4 -8h-40l22 42h-13l-4 8h30l-22 -42h23z" />
    <glyph glyph-name="zcaron" unicode="&#x17e;" horiz-adv-x="39" 
d="M14.5 35l-12 14h8l4 -3l4 3h8zM0 32h29l-16 -24h18v-8h-33l16 24h-14v8z" />
    <glyph glyph-name="wcircumflex" unicode="&#x175;" horiz-adv-x="54" 
d="M23 50l12 -14h-8l-4 3l-4 -3h-8zM46 21q0 -21 -23 -21t-23 21v11h8v-11q0 -13 11 -13v24h8v-24q11 0 11 13v11h8v-11z" />
    <glyph glyph-name="uni01DD" unicode="&#x1dd;" horiz-adv-x="38" 
d="M8 12v-5q13 0 13 5h-13zM0 18h21q-2 6 -16 6h-5v8h5q25 0 25 -17q0 -15 -17 -15h-13v18z" />
    <glyph glyph-name="uni0259" unicode="&#x259;" horiz-adv-x="38" 
d="M8 12v-5q13 0 13 5h-13zM0 18h21q-2 6 -16 6h-5v8h5q25 0 25 -17q0 -15 -17 -15h-13v18z" />
    <glyph glyph-name="uni0258" unicode="&#x258;" horiz-adv-x="38" 
d="M8 20h13q0 5 -13 5v-5zM0 14v18h13q17 0 17 -15q0 -17 -25 -17h-5v8h5q14 0 16 6h-21z" />
    <glyph glyph-name="uni000D" unicode="&#xd;" horiz-adv-x="46" 
d="M18.9287 50.0039l19.0733 -6.9971l-0.0039978 -43.0068l-19.2626 -7.2373l-18.7354 7.23535v43.0079zM24.998 21.1982q6.4014 7.2013 6.4004 12.001q-0.000900269 8.7988 -15.2011 8.7988h-6.39945v-6.4003h6.39945q8 0 8 -3.1993q0 -2.6996 -4 -7.2002l-6.3994 -7.2002
l4.7998 -4zM12.998 1.99805h6.3985v6.40039h-6.3985v-6.40039z" />
    <glyph glyph-name="space" unicode=" " horiz-adv-x="30" 
 />
    <glyph glyph-name="ring" unicode="&#x2da;" horiz-adv-x="30" 
d="M-1.81934 10.084q0 -2.98926 1.99121 -2.98926t1.99121 2.98926q0 2.98828 -1.99121 2.98828t-1.99121 -2.98828zM-7.5 10q0 7 7.5 7t7.5 -7t-7.5 -7t-7.5 7z" />
    <glyph glyph-name="dotaccent" unicode="&#x2d9;" horiz-adv-x="30" 
d="M-3.99902 11.0039h7.99805v-8.00391h-7.99805v8.00391z" />
    <glyph glyph-name="tilde" unicode="&#x2dc;" horiz-adv-x="30" 
d="M10.5 7q-4.33008 -4.625 -10.6777 -1.96484q-6.34863 2.66113 -10.3223 -2.03516v8q4.49609 4.625 10.916 1.9375t10.084 2.0625v-8z" />
    <glyph glyph-name="ogonek" unicode="&#x2db;" horiz-adv-x="24" 
d="M0.00292969 -0.00585938l7.99902 0.00488282q0 -6 8.00095 -6v-8.00002q-16 0 -16 13.9951z" />
    <glyph glyph-name="breve" unicode="&#x2d8;" horiz-adv-x="30" 
d="M22 13q0 -10 -11 -10t-11 10h7q0 -4 4 -4t4 4h7z" />
    <glyph glyph-name="uni04D7" unicode="&#x4d7;" horiz-adv-x="38" 
d="M28.5 45q0 -10 -11 -10t-11 10h7q0 -4 4 -4t4 4h7zM22 20v5q-13 0 -13 -5h13zM30 14h-21q2 -6 16 -6h5v-8h-5q-25 0 -25 17q0 15 17 15h13v-18z" />
    <glyph glyph-name="uni04D6" unicode="&#x4d6;" 
d="M30 63q0 -10 -11 -10t-11 10h7q0 -4 4 -4t4 4h7zM36 50v-8h-28v-6h28v-8h-28v-20h28v-8h-36v50h36z" />
    <glyph glyph-name="uni0181" unicode="&#x181;" 
d="M8 24v-14q20 5 20 10q0 3 -4 4h-16zM8 41v-9h8q2 2 2 5q0 4 -10 4zM0 0l0.00195312 42.0088q-8 0 -8 -6l-7.99995 0.00489807q0 13.9951 15.998 13.9863q26 0 26 -12q0 -3 -2 -6q12 -4 12 -12q0 -14 -36 -20z" />
    <glyph glyph-name="uni0180" unicode="&#x180;" horiz-adv-x="37" 
d="M0 0v50h8v-6.1429l11.8525 0.144897v-5.9981l-11.8525 -0.146797v-5.8571h15q6 -5 6 -13q0 -11 -21 -19h-8zM21 19q0 3 -2 5h-11v-14q13 4 13 9z" />
    <glyph glyph-name="uni019D" unicode="&#x19d;" 
d="M8 0q0.00292969 -14.001 -15.9971 -14.001v8.00002q8.00098 0 7.99707 6.00098v50h8q16 -8 20 -21v21h8v-50h-8q0 28 -20 41v-41z" />
    <glyph glyph-name="uni019F" unicode="&#x19f;" horiz-adv-x="48" 
d="M8.1053 17.8571q1.01878 -9.8571 11.8947 -9.8571q11.0324 0 11.922 10.1429zM31.8244 25q-1.2758 17 -11.8244 17q-10.5926 0 -11.835 -17.1426zM0 20q0 14 5 21q6 9 15 9q11 0 15 -9q5 -9 5 -21q0 -20 -20 -20t-20 20z" />
    <glyph glyph-name="alphatonos" unicode="&#x3ac;" horiz-adv-x="37" 
d="M9 34.3994h5.99805l8 10.0039h-9.99805zM8 20q0 -8 13 -11v15h-11q-2 -2 -2 -4zM29 32v-32h-8q-21 5 -21 20q0 7 6 12h23z" />
    <glyph glyph-name="epsilontonos" unicode="&#x3ad;" horiz-adv-x="37" 
d="M12 35.3994h5.99805l8 10.0039h-9.99805zM29.002 0h-18q-10.9844 0 -11.0029 14l0.00292969 5.91699q0 12.083 11.0049 12.083h17.9951l-0.00488281 -7l-16.9951 0.00195312q-5 0.000976562 -5 -5.00195h21.9961l0.00488281 -5.99902l-22.001 -0.000976562q0 -6 5 -6
l17 0.000976562v-8.00098z" />
    <glyph glyph-name="etatonos" unicode="&#x3ae;" horiz-adv-x="36" 
d="M7 35.3994h5.99805l8 10.0039h-9.99805zM20 14q0 10 -12 10v-24h-8v32h8q20 0 20 -18v-28h-8v28z" />
    <glyph glyph-name="iotatonos" unicode="&#x3af;" horiz-adv-x="16" 
d="M-2 35.3994h5.99805l8 10.0039h-9.99805zM0 32h8v-32h-8v32z" />
    <glyph glyph-name="Upsilondieresis" unicode="&#x3ab;" horiz-adv-x="48" 
d="M22 61h8v-8h-8v8zM10 61h8v-8h-8v8zM20 39l10 11h10l-16 -18v-32h-8v32l-16 18h10z" />
    <glyph glyph-name="Iotadieresis" unicode="&#x3aa;" horiz-adv-x="16" 
d="M6 61h8v-8h-8v8zM-6 61h8v-8h-8v8zM0 50h8v-50h-8v50z" />
    <glyph glyph-name="Omegatonos" unicode="&#x38f;" horiz-adv-x="52" 
d="M16.8574 52.9746h5.99805l8 10.0039h-9.99805zM0 0v8.00098h44v-8.00098h-44zM8 26q0 -8 14 -8t14 8q-2 16 -14 16q-14 0 -14 -16zM0 26q0 8 5 15q6 9 17 9q13 0 17 -9q5 -9 5 -15q0 -16 -22 -16t-22 16z" />
    <glyph glyph-name="Upsilontonos" unicode="&#x38e;" horiz-adv-x="48" 
d="M14.7139 50.1172h5.99805l8 10.0039h-9.99805zM20 39l10 11h10l-16 -18v-32h-8v32l-16 18h10z" />
    <glyph glyph-name="Omicrontonos" unicode="&#x38c;" horiz-adv-x="48" 
d="M15 53.3994h5.99805l8 10.0039h-9.99805zM8 20q0 -12 12 -12t12 12q0 22 -12 22t-12 -22zM0 20q0 14 5 21q6 9 15 9q11 0 15 -9q5 -9 5 -21q0 -20 -20 -20t-20 20z" />
    <glyph glyph-name="Iotatonos" unicode="&#x38a;" horiz-adv-x="16" 
d="M-2 52.9746h5.99805l8 10.0039h-9.99805zM0 50h8v-50h-8v50z" />
    <glyph glyph-name="Etatonos" unicode="&#x389;" 
d="M12.7139 50.1172h5.99805l8 10.0039h-9.99805zM8 36h20v14h8v-50h-8v28h-20v-28h-8v50h8v-14z" />
    <glyph glyph-name="Alphatonos" unicode="&#x386;" 
d="M19 52.3994h5.99805l8 10.0039h-9.99805zM8 18v-18h-8v19q0 17 11 25q7 5 17 6h8v-50h-8v24h-19q-1 -3 -1 -6zM11 32h17v9q-10 0 -17 -9z" />
    <glyph glyph-name="Epsilontonos" unicode="&#x388;" 
d="M14 53.3994h5.99805l8 10.0039h-9.99805zM36 50v-8h-28v-6h28v-8h-28v-20h28v-8h-36v50h36z" />
    <glyph glyph-name="uni03D0" unicode="&#x3d0;" horiz-adv-x="41" 
d="M8 41v-8.99805l11 -0.00195312q0 9 -11 9zM8.00098 9q16.999 4 16.999 11.8857q0.0224609 1.59961 -3.00977 3.11719l-13.9912 -0.000976562zM0 50q26.999 0 26.999 -18.002q6.00098 -5.99805 6.00098 -10.998q0 -14.043 -24.999 -21.0029v-13.9961
l-8.00098 -0.000976562v64z" />
    <glyph glyph-name="theta1" unicode="&#x3d1;" horiz-adv-x="37" 
d="M21 17h-13q0 -9 6.5 -9t6.5 9zM20.8516 23.1426q0 18.916 -5.85352 18.8447q-6.85547 -0.0712891 -6.84961 -18.8447h12.7031zM0 20q0 12 3.5 21t11.5 9t11 -9t3 -21q0 -20 -14.5 -20t-14.5 20z" />
    <glyph glyph-name="uni03DC" unicode="&#x3dc;" 
d="M8 0h-8v50h36v-8h-28v-6h28v-8h-28v-28z" />
    <glyph glyph-name="uni03DD" unicode="&#x3dd;" horiz-adv-x="28" 
d="M8 21h8v-8h-8v-20h-8v33q0 11 7.5 17.5t12.5 6.5v-8l-3.5 -1q-2.5 -1 -5.5 -5t-3 -10v-5z" />
    <glyph glyph-name="yen" unicode="&#xa5;" horiz-adv-x="48" 
d="M20 39l10 11h10l-16 -18l9 -0.00200081v-5.0039l-8.999 -0.000900269l0.00100136 -4.0069l8.9951 0.00390053l0.00289917 -5.0097h-9.002l0.00200081 -17.9805h-8l0.00489998 17.9932l-9.00685 0.00779915v4.997l9.00195 -0.00189972v4.0049l-9.00098 0.00100136
l0.0009799 4.998h9l-16 18h10z" />
    <glyph glyph-name="copyright" unicode="&#xa9;" horiz-adv-x="58" 
d="M5 25q0 -8 6 -14t14 -6t14 6t6 14t-6 14t-14 6t-14 -6t-6 -14zM0 25q0 10 7.5 17.5t17.5 7.5t17.5 -7.5t7.5 -17.5t-7.5 -17.5t-17.5 -7.5t-17.5 7.5t-7.5 17.5zM33.0742 36.8652v-6.40039h-8.7998q-5.60059 -0.799805 -5.60059 -4t4.80078 -6.39941
q3.19922 -2.40039 9.59961 -2.40039v-6.40039q-8.7998 0 -14.7998 4t-6 12t12 9.60059h8.7998z" />
    <glyph glyph-name="registered" unicode="&#xae;" horiz-adv-x="58" 
d="M5 25q0 -8 6 -14t14 -6t14 6t6 14t-6 14t-14 6t-14 -6t-6 -14zM0 25q0 10 7.5 17.5t17.5 7.5t17.5 -7.5t7.5 -17.5t-7.5 -17.5t-17.5 -7.5t-17.5 7.5t-7.5 17.5zM27.6875 29.9902q3.31836 0 3.31836 2.64941q0 2.12012 -3.31836 2.12012h-7.19141v-4.76953h7.19141z
M38.75 12.5h-5.53125l-6.6377 12.7197h-6.08496v-12.7197h-4.4248v26.5h13.2754q6.6377 0 6.6377 -6.88965q0 -3.70996 -4.4248 -6.36035z" />
    <glyph glyph-name="ordfeminine" unicode="&#xaa;" horiz-adv-x="33" 
d="M6.1875 43.8154h11.9932q0 2.25 -7.42383 2.25h-4.56934v3.93848h4.56934q11.9932 0 11.9932 -6.18848v-11.8154q-8.56641 0 -11.4229 1.125q-5.13965 2.25098 -5.13965 6.75195v3.93848zM18.1807 39.877h-7.42383q0 -1.68848 0.570312 -2.25098
q1.71387 -1.6875 6.85352 -1.6875v3.93848zM4 30.0039h21v-7.00391h-21v7.00391z" />
    <glyph glyph-name="uni1FF6" unicode="&#x1ff6;" horiz-adv-x="50" 
d="M31.5 39q-4.33008 -4.625 -10.6777 -1.96484q-6.34863 2.66113 -10.3223 -2.03516v8q4.49609 4.625 10.916 1.9375t10.084 2.0625v-8zM18 0q-18 0 -18 12.999q0 14.998 12.167 19.001l0.0830078 -8.75q-4.25 -0.945312 -4.25 -9.25q0 -6.81836 9 -6v13h8v-13q9 -1 9 6
q0 8.30469 -4.25 9.25l0.0830078 8.75q12.167 -4.00293 12.167 -19.002q0 -12.998 -17.9893 -12.998h-6.01074z" />
    <glyph glyph-name="uni0202" unicode="&#x202;" 
d="M11 53q0 10 11 10t11 -10h-7q0 4 -4 4t-4 -4h-7zM8 18v-18h-8v19q0 17 11 25q7 5 17 6h8v-50h-8v24h-19q-1 -3 -1 -6zM11 32h17v9q-10 0 -17 -9z" />
    <glyph glyph-name="AEacute" unicode="&#x1fc;" horiz-adv-x="60" 
d="M28 53h5.99805l8 10.0039h-9.99805zM11 32h13v9q-6 0 -13 -9zM52 50v-8h-20v-6h20v-8h-20v-20h20v-8h-28v24h-15q-1 -3 -1 -6v-18h-8v19q0 15.2598 11 25q7.90527 6 13 6h28z" />
    <glyph glyph-name="aeacute" unicode="&#x1fd;" horiz-adv-x="59" 
d="M22.5 35h5.99805l8 10.0039h-9.99805zM26 29q3 3 9 3h16v-18h-21v-6h21v-8h-22q-15 0 -20 2q-9 4 -9 12v7h21q0 4 -13 4h-8v7h17q6 0 9 -3zM43 21v5q-13 0 -13 -5h13zM21 14h-13q0 -3 1 -4q3 -3 12 -3v7z" />
    <glyph glyph-name="Oslashacute" unicode="&#x1fe;" horiz-adv-x="48" 
d="M15 53h5.99805l8 10.0039h-9.99805zM14.4434 8.85742q2.34961 -0.857422 5.55664 -0.857422q12 0 12 12q0 8.7334 -1.89062 14zM25.1006 40.7139q-2.19922 1.28613 -5.10059 1.28613q-12 0 -12 -22q0 -3.31543 0.916016 -5.71387zM0 20q0 14 5 21q6 9 15 9q11 0 15 -9
q5 -9 5 -21q0 -20 -20 -20t-20 20z" />
    <glyph glyph-name="oslashacute" unicode="&#x1ff;" horiz-adv-x="38" 
d="M11 36.002h5.99805l8 10.0039h-9.99805zM15.8789 23.958q-0.424805 0.0419922 -0.878906 0.0419922q-7 0 -7 -10q0 -1.30957 0.333008 -2.33301zM14.083 8.02734q0.442383 -0.0273438 0.916992 -0.0273438q7 0 7 6q0 3.26074 -0.744141 5.45801zM25.498 26.5068
q4.50195 -5.50684 4.50195 -13.5068q0 -13 -15 -13q-3.11523 0 -5.58301 0.560547l-0.424805 -0.571289l-7.99609 0.0078125l2.33691 3.63574q-3.33301 3.23926 -3.33301 9.36719q0 8 4.5 13.5t10.5 5.5q2.78711 0 5.25 -1.18652l0.74707 1.19336l8.00781 0.00292969z" />
    <glyph glyph-name="uni0203" unicode="&#x203;" horiz-adv-x="37" 
d="M4 37q0 10 11 10t11 -10h-7q0 4 -4 4t-4 -4h-7zM0 21h21q0 4 -13 4h-8v7h8q21 0 21 -11v-21q-15 0 -20 2q-9 4 -9 12v7zM21 14h-13q0 -3 1 -4q3 -3 12 -3v7z" />
    <glyph glyph-name="uni0206" unicode="&#x206;" 
d="M7 55q0 10 11 10t11 -10h-7q0 4 -4 4t-4 -4h-7zM36 50v-8h-28v-6h28v-8h-28v-20h28v-8h-36v50h36z" />
    <glyph glyph-name="uni0207" unicode="&#x207;" horiz-adv-x="38" 
d="M6.5 37q0 10 11 10t11 -10h-7q0 4 -4 4t-4 -4h-7zM22 20v5q-13 0 -13 -5h13zM30 14h-21q2 -6 16 -6h5v-8h-5q-25 0 -25 17q0 15 17 15h13v-18z" />
    <glyph glyph-name="uni020A" unicode="&#x20a;" horiz-adv-x="16" 
d="M-7 53q0 10 11 10t11 -10h-7q0 4 -4 4t-4 -4h-7zM0 50h8v-50h-8v50z" />
    <glyph glyph-name="uni020B" unicode="&#x20b;" horiz-adv-x="16" 
d="M-7 35q0 10 11 10t11 -10h-7q0 4 -4 4t-4 -4h-7zM0 32h8v-32h-8v32z" />
    <glyph glyph-name="uni020E" unicode="&#x20e;" horiz-adv-x="48" 
d="M9 53q0 10 11 10t11 -10h-7q0 4 -4 4t-4 -4h-7zM8 20q0 -12 12 -12t12 12q0 22 -12 22t-12 -22zM0 20q0 14 5 21q6 9 15 9q11 0 15 -9q5 -9 5 -21q0 -20 -20 -20t-20 20z" />
    <glyph glyph-name="uni020F" unicode="&#x20f;" horiz-adv-x="38" 
d="M4 35q0 10 11 10t11 -10h-7q0 4 -4 4t-4 -4h-7zM8 14q0 -6 7 -6t7 6q0 10 -7 10t-7 -10zM0 13q0 8 4.5 13.5t10.5 5.5t10.5 -5.5t4.5 -13.5q0 -13 -15 -13t-15 13z" />
    <glyph glyph-name="uni0212" unicode="&#x212;" horiz-adv-x="49" 
d="M5 54q0 10 11 10t11 -10h-7q0 4 -4 4t-4 -4h-7zM21 33q6 0 6 5q0 4 -6 4h-13v-9h13zM41 0h-10l-12 24h-11v-24h-8v50h24q12 0 12 -13q0 -7 -8 -12z" />
    <glyph glyph-name="uni0213" unicode="&#x213;" horiz-adv-x="34" 
d="M2 37q0 10 11 10t11 -10h-7q0 4 -4 4t-4 -4h-7zM19 24q-11 0 -11 -7v-17h-8v17q0 15 19 15h7v-8h-7z" />
    <glyph glyph-name="uni0200" unicode="&#x200;" 
d="M24 64.0039h5.99805l8 -10.0039h-9.99805zM8 18v-18h-8v19q0 17 11 25q7 5 17 6h8v-50h-8v24h-19q-1 -3 -1 -6zM11 32h17v9q-10 0 -17 -9zM11 64.0039h5.99805l8 -10.0039h-9.99805z" />
    <glyph glyph-name="uni0201" unicode="&#x201;" horiz-adv-x="37" 
d="M13 47.0039h5.99805l8 -10.0039h-9.99805zM0 21h21q0 4 -13 4h-8v7h8q21 0 21 -11v-21q-15 0 -20 2q-9 4 -9 12v7zM21 14h-13q0 -3 1 -4q3 -3 12 -3v7zM0 47.0039h5.99805l8 -10.0039h-9.99805z" />
    <glyph glyph-name="uni0204" unicode="&#x204;" 
d="M17 64.0039h5.99805l8 -10.0039h-9.99805zM36 50v-8h-28v-6h28v-8h-28v-20h28v-8h-36v50h36zM4 64.0039h5.99805l8 -10.0039h-9.99805z" />
    <glyph glyph-name="uni0205" unicode="&#x205;" horiz-adv-x="38" 
d="M16.625 47.0039h5.99805l8 -10.0039h-9.99805zM22 20v5q-13 0 -13 -5h13zM30 14h-21q2 -6 16 -6h5v-8h-5q-25 0 -25 17q0 15 17 15h13v-18zM3.625 47.0039h5.99805l8 -10.0039h-9.99805z" />
    <glyph glyph-name="uni0208" unicode="&#x208;" horiz-adv-x="16" 
d="M3 64.0039h5.99805l8 -10.0039h-9.99805zM0 50h8v-50h-8v50zM-10 64.0039h5.99805l8 -10.0039h-9.99805z" />
    <glyph glyph-name="uni0209" unicode="&#x209;" horiz-adv-x="16" 
d="M4 47.0039h5.99805l8 -10.0039h-9.99805zM0 32h8v-32h-8v32zM-9 47.0039h5.99805l8 -10.0039h-9.99805z" />
    <glyph glyph-name="uni020C" unicode="&#x20c;" horiz-adv-x="48" 
d="M20 64.0039h5.99805l8 -10.0039h-9.99805zM8 20q0 -12 12 -12t12 12q0 22 -12 22t-12 -22zM0 20q0 14 5 21q6 9 15 9q11 0 15 -9q5 -9 5 -21q0 -20 -20 -20t-20 20zM7 64.0039h5.99805l8 -10.0039h-9.99805z" />
    <glyph glyph-name="uni020D" unicode="&#x20d;" horiz-adv-x="38" 
d="M14 46.0039h5.99805l8 -10.0039h-9.99805zM8 14q0 -6 7 -6t7 6q0 10 -7 10t-7 -10zM0 13q0 8 4.5 13.5t10.5 5.5t10.5 -5.5t4.5 -13.5q0 -13 -15 -13t-15 13zM1 46.0039h5.99805l8 -10.0039h-9.99805z" />
    <glyph glyph-name="uni0210" unicode="&#x210;" horiz-adv-x="49" 
d="M16 64.0039h5.99805l8 -10.0039h-9.99805zM3 64.0039h5.99805l8 -10.0039h-9.99805zM21 33q6 0 6 5q0 4 -6 4h-13v-9h13zM41 0h-10l-12 24h-11v-24h-8v50h24q12 0 12 -13q0 -7 -8 -12z" />
    <glyph glyph-name="uni0211" unicode="&#x211;" horiz-adv-x="34" 
d="M15 47.0039h5.99805l8 -10.0039h-9.99805zM2 47.0039h5.99805l8 -10.0039h-9.99805zM19 24q-11 0 -11 -7v-17h-8v17q0 15 19 15h7v-8h-7z" />
    <glyph glyph-name="uni0214" unicode="&#x214;" 
d="M18 64.0039h5.99805l8 -10.0039h-9.99805zM5 64.0039h5.99805l8 -10.0039h-9.99805zM8 32q0 -18 20 -23v41h8v-50q-16 0 -26 9t-10 23v18h8v-18z" />
    <glyph glyph-name="uni0216" unicode="&#x216;" 
d="M7 55q0 10 11 10t11 -10h-7q0 4 -4 4t-4 -4h-7zM8 32q0 -18 20 -23v41h8v-50q-16 0 -26 9t-10 23v18h8v-18z" />
    <glyph glyph-name="uni0217" unicode="&#x217;" horiz-adv-x="37" 
d="M3.5 38q0 10 11 10t11 -10h-7q0 4 -4 4t-4 -4h-7zM8 32q0 -23 13 -23v23h8v-32h-8q-21 0 -21 32h8z" />
    <glyph glyph-name="uni0215" unicode="&#x215;" horiz-adv-x="37" 
d="M15 47.0039h5.99805l8 -10.0039h-9.99805zM2 47.0039h5.99805l8 -10.0039h-9.99805zM8 32q0 -23 13 -23v23h8v-32h-8q-21 0 -21 32h8z" />
    <glyph glyph-name="uni01C8" unicode="&#x1c8;" horiz-adv-x="48" 
d="M29 0h-29v50h8v-42h24v24h8v-19q0 -27 -24 -27v8q9.0656 0 13 6zM32 50.0039h7.998v-8.0039h-7.998v8.0039z" />
    <glyph glyph-name="uni01C7" unicode="&#x1c7;" horiz-adv-x="69" 
d="M0 0v50h8v-42h21q25 0 25 14v28h7v-28q0 -12 -10 -17q-8.333 -5 -22 -5h-29z" />
    <glyph glyph-name="uni01C9" unicode="&#x1c9;" horiz-adv-x="32" 
d="M0 50l8 -6v-38l-8 -6v50zM16 50.0039h7.99805v-8.00391h-7.99805v8.00391zM16 32h8v-19q0 -27 -24 -27v8q16 0 16 19v19z" />
    <glyph glyph-name="uni01CA" unicode="&#x1ca;" horiz-adv-x="76" 
d="M36 0h-8q0 28 -20 41v-41h-8v50h8q16 -8 20 -21v21h8v-41.833q25 -0.16699 25 13.833v28h7v-28q0 -12 -10 -17q-8.333 -5 -22 -5z" />
    <glyph glyph-name="uni01CB" unicode="&#x1cb;" horiz-adv-x="60" 
d="M44 50.0039h7.99805v-8.00391h-7.99805v8.00391zM44 32h8v-19q0 -27 -24 -27v8q16 0 16 19v19zM8 41v-41h-8v50h8q16 -8 20 -21v21h8v-50h-8q0 28 -20 41z" />
    <glyph glyph-name="uni01CC" unicode="&#x1cc;" horiz-adv-x="52" 
d="M36 50.0039h7.99805v-8.00391h-7.99805v8.00391zM36 32h8v-19q0 -27 -24 -27v8q16 0 16 19v19zM20 14q0 10 -12 10v-24h-8v32h8q20 0 20 -18v-14h-8v14z" />
    <glyph glyph-name="uni01CD" unicode="&#x1cd;" 
d="M24 53l-12 14h8l4 -3l4 3h8zM8 18v-18h-8v19q0 17 11 25q7 5 17 6h8v-50h-8v24h-19q-1 -3 -1 -6zM11 32h17v9q-10 0 -17 -9z" />
    <glyph glyph-name="uni01CE" unicode="&#x1ce;" horiz-adv-x="37" 
d="M14 35l-12 14h8l4 -3l4 3h8zM0 21h21q0 4 -13 4h-8v7h8q21 0 21 -11v-21q-15 0 -20 2q-9 4 -9 12v7zM21 14h-13q0 -3 1 -4q3 -3 12 -3v7z" />
    <glyph glyph-name="uni01CF" unicode="&#x1cf;" horiz-adv-x="16" 
d="M4 53l-12 14h8l4 -3l4 3h8zM0 50h8v-50h-8v50z" />
    <glyph glyph-name="uni01D0" unicode="&#x1d0;" horiz-adv-x="16" 
d="M4 35l-12 14h8l4 -3l4 3h8zM0 32h8v-32h-8v32z" />
    <glyph glyph-name="uni01D1" unicode="&#x1d1;" horiz-adv-x="48" 
d="M20 53l-12 14h8l4 -3l4 3h8zM8 20q0 -12 12 -12t12 12q0 22 -12 22t-12 -22zM0 20q0 14 5 21q6 9 15 9q11 0 15 -9q5 -9 5 -21q0 -20 -20 -20t-20 20z" />
    <glyph glyph-name="uni01D2" unicode="&#x1d2;" horiz-adv-x="38" 
d="M15 35l-12 14h8l4 -3l4 3h8zM8 14q0 -6 7 -6t7 6q0 10 -7 10t-7 -10zM0 13q0 8 4.5 13.5t10.5 5.5t10.5 -5.5t4.5 -13.5q0 -13 -15 -13t-15 13z" />
    <glyph glyph-name="uni01D3" unicode="&#x1d3;" 
d="M18 50l-12 14h8l4 -3l4 3h8zM8 32q0 -18 20 -23v41h8v-50q-16 0 -26 9t-10 23v18h8v-18z" />
    <glyph glyph-name="uni01D4" unicode="&#x1d4;" horiz-adv-x="37" 
d="M14.5 35l-12 14h8l4 -3l4 3h8zM8 32q0 -23 13 -23v23h8v-32h-8q-21 0 -21 32h8z" />
    <glyph glyph-name="uni01E2" unicode="&#x1e2;" horiz-adv-x="60" 
d="M22.5 60.0039h21v-7.00391h-21v7.00391zM11 32h13v9q-6 0 -13 -9zM52 50v-8h-20v-6h20v-8h-20v-20h20v-8h-28v24h-15q-1 -3 -1 -6v-18h-8v19q0 15.2598 11 25q7.90527 6 13 6h28z" />
    <glyph glyph-name="uni01E3" unicode="&#x1e3;" horiz-adv-x="59" 
d="M15 43.0039h21v-7.00391h-21v7.00391zM26 29q3 3 9 3h16v-18h-21v-6h21v-8h-22q-15 0 -20 2q-9 4 -9 12v7h21q0 4 -13 4h-8v7h17q6 0 9 -3zM43 21v5q-13 0 -13 -5h13zM21 14h-13q0 -3 1 -4q3 -3 12 -3v7z" />
    <glyph glyph-name="Gcaron" unicode="&#x1e6;" 
d="M22.5 52l-12 14h8l4 -3l4 3h8zM28 10v18h-8v8h16v-36q-16 3 -26 12t-10 18q0 17 17 20h19v-8h-18q-10 -2 -10 -12q0 -13 20 -20z" />
    <glyph glyph-name="gcaron" unicode="&#x1e7;" horiz-adv-x="34" 
d="M15.2412 35l-12 14h8l4 -3l4 3h8zM18.7412 0q-6 2 -12 5q-9 5 -9 14q0 8 6 13h23v-32q0 -14 -18 -14h-11v8h11q10 0 10 6zM18.7412 24h-11q-2 -2 -2 -4q0 -4 4 -7t9 -4v15z" />
    <glyph glyph-name="uni01E8" unicode="&#x1e8;" 
d="M15 50l-12 14h8l4 -3l4 3h8zM36 0h-10l-18 25v-25h-8v50h8v-12l15 12h13l-23 -18z" />
    <glyph glyph-name="uni01E9" unicode="&#x1e9;" horiz-adv-x="40" 
d="M4 52l-12 14h8l4 -3l4 3h8zM13 18l19 -18h-11l-13 12v-12h-8v50h8v-26l16 8l3 -7z" />
    <glyph glyph-name="uni01EA" unicode="&#x1ea;" horiz-adv-x="48" 
d="M16.0029 -0.00488281l7.99902 0.00488281q0 -6.0127 8.00098 -6.0127v-8.0166q-16 0 -16 14.0244zM8 20q0 -12 12 -12t12 12q0 22 -12 22t-12 -22zM0 20q0 14 5 21q6 9 15 9q11 0 15 -9q5 -9 5 -21q0 -20 -20 -20t-20 20z" />
    <glyph glyph-name="uni01EB" unicode="&#x1eb;" horiz-adv-x="38" 
d="M11.0029 -0.00488281l7.99902 0.00488281q0 -5.99414 8.00098 -5.99414v-7.99219q-16 0 -16 13.9814zM8 14q0 -6 7 -6t7 6q0 10 -7 10t-7 -10zM0 13q0 8 4.5 13.5t10.5 5.5t10.5 -5.5t4.5 -13.5q0 -13 -15 -13t-15 13z" />
    <glyph glyph-name="uni01EC" unicode="&#x1ec;" horiz-adv-x="48" 
d="M9.5 60.0039h21v-7.00391h-21v7.00391zM16.0029 -0.00488281l7.99902 0.00488281q0 -6.0127 8.00098 -6.0127v-8.0166q-16 0 -16 14.0244zM8 20q0 -12 12 -12t12 12q0 22 -12 22t-12 -22zM0 20q0 14 5 21q6 9 15 9q11 0 15 -9q5 -9 5 -21q0 -20 -20 -20t-20 20z" />
    <glyph glyph-name="uni01ED" unicode="&#x1ed;" horiz-adv-x="38" 
d="M4.5 42.0039h21v-7.00391h-21v7.00391zM11.0029 -0.00488281l7.99902 0.00488281q0 -5.99414 8.00098 -5.99414v-7.99219q-16 0 -16 13.9814zM8 14q0 -6 7 -6t7 6q0 10 -7 10t-7 -10zM0 13q0 8 4.5 13.5t10.5 5.5t10.5 -5.5t4.5 -13.5q0 -13 -15 -13t-15 13z" />
    <glyph glyph-name="uni01F1" unicode="&#x1f1;" horiz-adv-x="77" 
d="M34.4453 42.1689q1.7217 -4.0332 1.7217 -9.5q0 -12.5 -10.5 -22q-10.5 -9.49995 -25.5 -10.5v50l63.833 -0.1689l-22 -42h23l4 -8h-40l22.4375 42.168zM8.16699 42.1689v-32q8.00001 1 14 8t5.5 13.9004q-0.5 6.8995 -4.5 10.0996h-15z" />
    <glyph glyph-name="uni01F0" unicode="&#x1f0;" horiz-adv-x="32" 
d="M20 37l-12 14h8l4 -3l4 3h8zM16 32h8v-19q0 -27 -24 -27v8q16 0 16 19v19z" />
    <glyph glyph-name="uni01F2" unicode="&#x1f2;" horiz-adv-x="67" 
d="M35.9912 32.001l21.0088 -0.000999451l-16 -24h18v-8h-33l16 24h-7q-2.2461 -5.7143 -8.5 -13.5q-8.0711 -9.14258 -26.5 -10.5v50h27q8.9892 -5.499 8.9912 -17.999zM8 42v-32q8 1 14 8t6 14q0 6 -5 10h-15z" />
    <glyph glyph-name="uni01F3" unicode="&#x1f3;" horiz-adv-x="68" 
d="M8 20q0 -8 13 -11v15h-11q-2 -2 -2 -4zM21 0q-21 5 -21 20q0 7 6 12h15v18h8v-18h29l-16 -24h18v-8h-39zM29 3.14258l14 20.8574h-14v-20.8574z" />
    <glyph glyph-name="uni01F4" unicode="&#x1f4;" 
d="M19.5 53h5.99805l8 10.0039h-9.99805zM28 10v18h-8v8h16v-36q-16 3 -26 12t-10 18q0 17 17 20h19v-8h-18q-10 -2 -10 -12q0 -13 20 -20z" />
    <glyph glyph-name="uni01F5" unicode="&#x1f5;" horiz-adv-x="34" 
d="M10.2412 36h5.99805l8 10.0039h-9.99805zM18.7412 0q-6 2 -12 5q-9 5 -9 14q0 8 6 13h23v-32q0 -14 -18 -14h-11v8h11q10 0 10 6zM18.7412 24h-11q-2 -2 -2 -4q0 -4 4 -7t9 -4v15z" />
    <glyph glyph-name="uni0284" unicode="&#x284;" horiz-adv-x="32" 
d="M16 32h8v-19q0 -27 -24 -27v8q16 0 16 19v19z" />
    <glyph glyph-name="uni01F9" unicode="&#x1f9;" horiz-adv-x="36" 
d="M8 47.0039h5.99805l8 -10.0039h-9.99805zM20 14q0 10 -12 10v-24h-8v32h8q20 0 20 -18v-14h-8v14z" />
    <glyph glyph-name="uni01F8" unicode="&#x1f8;" 
d="M12 60.0039h5.99805l8 -10.0039h-9.99805zM8 41v-41h-8v50h8q16 -8 20 -21v21h8v-50h-8q0 28 -20 41z" />
    <glyph glyph-name="Scommaaccent" unicode="&#x218;" horiz-adv-x="51" 
d="M25 -0q0 -9.5791 -7 -14l-5 4.4209q4 2.94727 4 9.5791h8zM36 50v-8q-25 0 -25 -4t12 -4q20 0 20 -13q0 -21 -43 -21v8q35 0 35 13q0 5 -15 5q-17 0 -17 12t33 12z" />
    <glyph glyph-name="scommaaccent" unicode="&#x219;" horiz-adv-x="37" 
d="M19 -0q0 -9.5791 -7 -14l-5 4.4209q4 2.94727 4 9.5791h8zM23 21q6 0 6 -6v-4q0 -11 -29 -11v8q21 0 21 5h-7q-14 0 -14 9.5t14 9.5h15v-7h-15q-5 0 -5 -2t5 -2h9z" />
    <glyph glyph-name="uni021A" unicode="&#x21a;" 
d="M18.833 -0.900391q0 -8.96289 -7 -13.0996l-5 4.13672q4 2.75781 4 8.96289h8zM11 0v42h-11v8h36l-4 -8h-13v-42h-8z" />
    <glyph glyph-name="uni021B" unicode="&#x21b;" horiz-adv-x="30" 
d="M17 -0q0 -9.5791 -7 -14l-5 4.4209q4 2.94727 4 9.5791h8zM17 24h-9q0 -7 4.5 -11.5t9.5 -4.5v-8q-7 0 -14.5 6.5t-7.5 17.5v26h8v-18h9v-8z" />
    <glyph glyph-name="uni021E" unicode="&#x21e;" 
d="M18 50l-12 14h8l4 -3l4 3h8zM8 36h20v14h8v-50h-8v28h-20v-28h-8v50h8v-14z" />
    <glyph glyph-name="uni021F" unicode="&#x21f;" horiz-adv-x="36" 
d="M4 53l-12 14h8l4 -3l4 3h8zM28 0h-8v14q0 10 -12 10v-24h-8v50h8v-18q20 0 20 -18v-14z" />
    <glyph glyph-name="tonos" unicode="&#x384;" horiz-adv-x="20" 
d="M0 36.3994h5.99805l8 10.0039h-9.99805z" />
    <glyph glyph-name="dieresistonos" unicode="&#x385;" 
d="M16.7139 66.1172h5.99805l8 10.0039h-9.99805zM24 63h8v-8h-8v8zM12 63h8v-8h-8v8z" />
    <glyph glyph-name="uni01C3" unicode="&#x1c3;" horiz-adv-x="16" 
d="M0 49.8359h7.99805v-33.832h-7.99805v33.832zM0 8.00391h7.99805v-8.00391h-7.99805v8.00391z" />
    <glyph glyph-name="uni01C4" unicode="&#x1c4;" horiz-adv-x="92" 
d="M47 52l-12 14h8l4 -3l4 3h8zM34.4453 42.1689q1.72168 -4.0332 1.72168 -9.5q0 -12.5 -10.5 -22t-25.5 -10.5v50l63.833 -0.168945l-22 -42h23l4 -8h-40l22.4375 42.168zM8.16699 42.1689v-32q8 1 14 8t5.5 13.9004q-0.5 6.89941 -4.5 10.0996h-15z" />
    <glyph glyph-name="uni01C5" unicode="&#x1c5;" horiz-adv-x="83" 
d="M35.9912 32.001l21.0088 -0.000976562l-16 -24h18v-8h-33l16 24h-7q-2.24609 -5.71387 -8.5 -13.5q-8.07129 -9.14258 -26.5 -10.5v50h27q8.98926 -5.49902 8.99121 -17.999zM8 42v-32q8 1 14 8t6 14q0 6 -5 10h-15zM45 36l-12 14h8l4 -3l4 3h8z" />
    <glyph glyph-name="uni01C6" unicode="&#x1c6;" horiz-adv-x="76" 
d="M8 20q0 -8 13 -11v15h-11q-2 -2 -2 -4zM21 0q-21 5 -21 20q0 7 6 12h15v18h8v-18h29l-16 -24h18v-8h-39zM29 3.14258l14 20.8574h-14v-20.8574zM43 35l-12 14h8l4 -3l4 3h8z" />
    <glyph glyph-name="uni01E5" unicode="&#x1e5;" horiz-adv-x="34" 
d="M18.7412 0q-6 2 -12 5q-9 5 -9 14q0 8 6 13h23v-32q0 -14 -18 -14h-11v8h11q9.99999 0 9.99999 6zM18.7412 20.7754v3.2246h-11q-1.41059 -1.1125 -1.60644 -3.2246h12.6064zM8.74121 14q3.99999 -4.5 9.99999 -5v4.9004z" />
    <glyph glyph-name="uni01E4" unicode="&#x1e4;" 
d="M28 10v6l-7.9922 0.00779915l-0.00389862 8.8877l8.0068 0.00390053l-0.0107002 3.1006h-8v8h16v-11.1429l7.9961 0.0384007v-8.8926l-7.9961 -0.145499v-15.8574q-16 3 -26 12t-10 18q0 17 17 20h19v-8h-18q-10 -2 -10 -12q0 -13 20 -20z" />
    <glyph glyph-name="uni01B7" unicode="&#x1b7;" 
d="M36 32q0 -29 -36 -32v7q21.0029 1 28 17h-28l16 18h-12l-4 8h31l-16 -18h21z" />
    <glyph glyph-name="uni01B8" unicode="&#x1b8;" 
d="M0 32h21l-16 18h31l-4 -8h-12l16 -18h-28q6.9971 -16 28 -17v-7q-36 3 -36 32z" />
    <glyph glyph-name="uni01B5" unicode="&#x1b5;" horiz-adv-x="48" 
d="M36 8.00391l4 -8h-40l14.9912 27.8789h-5.99608l-0.000980377 8.1201l9.86096 -0.00289917l3.1449 6.0039h-13l-4 8h30l-7.4401 -14.2039l6.444 0.2029l0.00290298 -8.1211l-10.6374 -0.0818005l-10.3694 -19.7961h23z" />
    <glyph glyph-name="uni01B6" unicode="&#x1b6;" horiz-adv-x="39" 
d="M0 32h29l-8 -12l8.0068 0.00200081l-0.00189972 -6.1202h-11.9961l-4.0088 -5.8818h18v-8h-33l9.2 13.8l-7.2 0.0817995l-0.00292969 6.1211l11.3362 -0.00289917l2.6667 4h-14v8z" />
    <glyph glyph-name="uni01B9" unicode="&#x1b9;" 
d="M0 11h21l-16 21h31l-4 -8h-12l16 -20h-28q3.0986 -11 28 -11v-7q-36 0 -36 25z" />
    <glyph glyph-name="uni0292" unicode="&#x292;" 
d="M36 11q0 -25 -36 -25v7q24.9018 0 28 11h-28l16 20h-12l-4 8h31l-16 -21h21z" />
    <glyph glyph-name="uni01EE" unicode="&#x1ee;" 
d="M15.5 53l-12 14h8l4 -3l4 3h8zM36 32q0 -29 -36 -32v7q21.0029 1 28 17h-28l16 18h-12l-4 8h31l-16 -18h21z" />
    <glyph glyph-name="uni01EF" unicode="&#x1ef;" 
d="M15.5 36l-12 14h8l4 -3l4 3h8zM36 11q0 -25 -36 -25v7q24.9014 0 28 11h-28l16 20h-12l-4 8h31l-16 -21h21z" />
    <glyph glyph-name="uni0224" unicode="&#x224;" horiz-adv-x="48" 
d="M0 0l22 42h-13l-4 8h30l-22 -42l26.7402 -0.00585985v-8.00098q0.000999451 -13.9932 -16.9961 -13.9961v8.00192q8.9971 0.0009799 8.9971 6.00098h-31.7412z" />
    <glyph glyph-name="uni0225" unicode="&#x225;" horiz-adv-x="39" 
d="M-2 0l16 24h-14v8h29l-16 -24h18v-8q0.000999451 -13.9932 -16.9961 -13.9961v8.00196q8.9971 0.000980377 8.9971 6.00098z" />
    <glyph glyph-name="uni0226" unicode="&#x226;" 
d="M22.001 61.0039h7.99805v-8.00391h-7.99805v8.00391zM8 18v-18h-8v19q0 17 11 25q7 5 17 6h8v-50h-8v24h-19q-1 -3 -1 -6zM11 32h17v9q-10 0 -17 -9z" />
    <glyph glyph-name="uni0227" unicode="&#x227;" horiz-adv-x="37" 
d="M11.001 44.0039h7.99805v-8.00391h-7.99805v8.00391zM0 21h21q0 4 -13 4h-8v7h8q21 0 21 -11v-21q-15 0 -20 2q-9 4 -9 12v7zM21 14h-13q0 -3 1 -4q3 -3 12 -3v7z" />
    <glyph glyph-name="uni0228" unicode="&#x228;" 
d="M15.499 -0.000976562l-15.499 0.000976562v50h36v-8h-28v-6h28v-8h-28v-20h28v-8l-12.3301 -0.00585938q3.3301 -1.66128 3.3301 -4.53027q0 -8.35447 -11.0059 -8.35447h-5l0.00590038 5.35447h5q5 0 5 2.5q0 3.03613 -5.501 5.03515z" />
    <glyph glyph-name="uni0229" unicode="&#x229;" horiz-adv-x="38" 
d="M15.875 0q-15.875 4.9375 -15.875 17q0 15 17 15h13v-18h-21q2 -6 16 -6h5v-8h-7q4 -3 4 -5q0 -7 -11 -7h-5v5h5q4.375 0 4.375 2q0.125 2.625 -4.5 5zM22 20v5q-13 0 -13 -5h13z" />
    <glyph glyph-name="uni0232" unicode="&#x232;" horiz-adv-x="48" 
d="M9.5 61.0039h21v-7.00391h-21v7.00391zM20 39l10 11h10l-16 -18v-32h-8v32l-16 18h10z" />
    <glyph glyph-name="uni0233" unicode="&#x233;" horiz-adv-x="36" 
d="M3.5 44.0039h21v-7.00391h-21v7.00391zM20 5q-20 0 -20 27h8q0 -18 12 -18v18h8v-27q0 -19 -18 -19h-5v8h5q10 0 10 11z" />
    <glyph glyph-name="uni018F" unicode="&#x18f;" 
d="M0.000976562 0.00683594l-0.00390625 36.1358h27.0029q-2.1429 4.857 -8.999 5.8574h-18v8h18q18 -3 18 -16t-10 -23t-26 -10.9932zM7.92773 9.71484q6.94937 2.20996 12.0733 7.28516q6.5978 5.5068 6.999 11l-19.001 0.00200081zM27 36.1426z" />
    <glyph glyph-name="uni0190" unicode="&#x190;" 
d="M36 7v-7q-36 6 -36 20q0 8 12 12q-2 2 -2 6q0 12 26 12v-7q-18 0 -18 -6q0 -3 2 -5h16v-8h-24q-4 -1 -4 -4q0 -6 28 -13z" />
    <glyph glyph-name="uni018E" unicode="&#x18e;" 
d="M0 50h36v-50h-36v8h28v20h-28v8h28v6h-28v8z" />
    <glyph glyph-name="uni018B" unicode="&#x18b;" 
d="M28 41l-21 -0.00590134l0.0009799 9.003l28.999 0.00289917v-50q-36 6 -36 20q0 8 11.999 12h16.001v9zM28 24h-16q-4 -1 -4 -4q0 -5 20 -10v14z" />
    <glyph glyph-name="uni018C" unicode="&#x18c;" horiz-adv-x="37" 
d="M29 0h-8q-21 8 -21 19q0 8 6 13h15v10h-13v8h21v-50zM8 19q0 -5 13 -9v14h-11q-2 -2 -2 -5z" />
    <glyph glyph-name="uni0189" unicode="&#x189;" 
d="M0 50h27q9 -5 9 -17.5t-10.5 -22t-25.5 -10.5v50zM8 10q8 1 14 8t6 14q0 6 -5 10h-15l0.14258 -6h13.5v-7.7139h-13.7852z" />
    <glyph glyph-name="uni018A" unicode="&#x18a;" 
d="M0 0v42.0049q-5.99707 -0.00100327 -5.99707 -6.001l-7.99903 0.00680161q-0.000999451 13.9932 13.9961 13.9893h27q9 -5 9 -17.5t-10.5 -22t-25.5 -10.5zM8 42v-32q8 1 14 8t6 14q0 6 -5 10h-15z" />
    <glyph glyph-name="uni0187" unicode="&#x187;" 
d="M18 50l10.002 0.00780106q-0.00200081 5.9961 -6.002 5.9961l0.00779915 8q13.9922 0 13.9922 -14.0039v-8h-18q-10 -2 -10 -8q0 -9 8 -17t20 -9v-8q-16 1 -26 11t-10 23t18 16z" />
    <glyph glyph-name="uni0188" unicode="&#x188;" horiz-adv-x="33" 
d="M15 32l3.002 0.00780106q-0.00200081 5.9961 -6.002 5.9961l0.0078001 8q13.9922 0 13.9922 -14.0039v-8h-11q-7 -1 -7 -5t6 -8q4 -3 12 -3v-8q-11 0 -18.5 5t-7.5 15t15 12z" />
    <glyph glyph-name="uni0186" unicode="&#x186;" horiz-adv-x="48" 
d="M9 13q3 -5 11 -5q12 0 12 12q0 22 -12 22q-8 0 -11 -10h-8q1 5 4 9q7 9 15 9q11 0 15 -9q5 -9 5 -21q0 -20 -20 -20q-16 0 -19 13h8z" />
    <glyph glyph-name="uni0185" unicode="&#x185;" horiz-adv-x="32" 
d="M12 13h-4v-7h4q4 0 4 4q0 3 -4 3zM-6 26.0469v5.95312h14v-13h4q12 0 12 -9q0 -10 -12 -10h-12l-0.0351562 26.0459z" />
    <glyph glyph-name="uni0184" unicode="&#x184;" horiz-adv-x="37" 
d="M0 42.001h-6v7.99902h14v-18h15q6 -5 6 -13q0 -11 -21 -19h-8v42.001zM21 19q0 3 -2 5h-11v-14q13 4 13 9z" />
    <glyph glyph-name="florin" unicode="&#x192;" horiz-adv-x="28" 
d="M-7 -14v8q7 0 7 6v26q0 11 7.5 17.5t12.5 6.5v-8l-4 -1q-2 -1 -5 -5t-3 -10v-5h8v-8h-8v-13q0 -14 -15 -14z" />
    <glyph glyph-name="uni0191" unicode="&#x191;" 
d="M0 0v50h36v-8h-28v-6h28v-8h-28v-28q0 -14 -15 -14v8q7 0 7 6z" />
    <glyph glyph-name="uni018D" unicode="&#x18d;" horiz-adv-x="38" 
d="M20.125 -8.00098l-10.168 0.0175805l0.000979424 8q-9.95801 1.98926 -9.95801 12.9834q0 8 4.5 13.5t10.5 5.5q6 -9.91821e-05 10.5 -5.5q4.5 -5.5 4.5 -13.5q0 -11.0554 -9.875 -13v-8.00098zM8 14q0 -6 7 -6t7 6q-9.91821e-05 10 -7 10q-7 0 -7 -10z" />
    <glyph glyph-name="uni0193" unicode="&#x193;" 
d="M36 50v-8h-18q-10 -2 -10 -12q0 -13 20 -20v18h-8v8h16v-36q-16 3 -26 12t-10 18q0 17 17 20l11.002 0.00780106q-0.00200081 5.9961 -6.002 5.9961l0.00779915 8q13.9922 0 13.9922 -14.0039z" />
    <glyph glyph-name="uni0194" unicode="&#x194;" horiz-adv-x="48" 
d="M19.999 26.0059q-6.999 -8.0069 -6.999 -12.0059q0 -6 7 -6t6.998 6.0068q0 3.9991 -6.999 11.9991zM15 33l-15 17h10l10 -11l10 11h10l-15 -17q0.2006 -0.0229988 5.5 -6.5q4.5 -5.5 4.5 -13.5q0 -13 -15 -13t-15 13q0 8 4.5 13.5q3.2733 4.2861 5.5 6.5z" />
    <glyph glyph-name="uni0197" unicode="&#x197;" horiz-adv-x="24" 
d="M-8 31.9004l8 0.000999451v17.997l7.99805 -0.00579834l-0.000980377 -18.001l8.00293 0.00880051v-8.9004l-8.00293 -0.000999451l0.00488043 -22.999l-8.00586 0.000976562l0.00585937 22.999h-8.00195v8.9004z" />
    <glyph glyph-name="uni0196" unicode="&#x196;" horiz-adv-x="16" 
d="M0 50h8v-50h-8v50z" />
    <glyph glyph-name="uni0195" unicode="&#x195;" horiz-adv-x="57" 
d="M28.166 9.83301q5.0947 3.11619 8.9653 10.2168q3.8707 7.1006 3.8775 11.9502l7.9922 -0.00200081q0 -11.0156 -7.1929 -20.4248q-7.1929 -9.40914 -15.3081 -11.5732h-6.5v14q0 10 -12 10v-24h-8v50h8v-18q19.2829 0 20 -18z" />
    <glyph glyph-name="uni0198" unicode="&#x198;" horiz-adv-x="49" 
d="M13 32l23 -32h-10l-18 25v-25h-8v50h8v-12l15 12h13q9.5 -10 0.173801 -19.8945l-5.6582 5.6582q4.5558 5.2363 -0.7295 9.5215z" />
    <glyph glyph-name="uni0199" unicode="&#x199;" horiz-adv-x="40" 
d="M8.00684 50.0039q13.9932 0.00100327 13.9961 -13.9961h-8.0019q-0.0010004 5.9971 -6.001 5.9971v-18.0049l16 8l3 -7l-14 -7l19 -18h-11l-13 12v-12h-8v50z" />
    <glyph glyph-name="uni019A" unicode="&#x19a;" horiz-adv-x="24" 
d="M0 50l8 -6l-0.00487995 -12.1025l8.00098 -0.000999451l0.00590038 -8.8926l-8.00395 -0.00489998l0.00194979 -22.999h-8l0.0175781 23.002l-8.00586 0.00189972l-0.00586033 8.8897l7.99414 0.108398v17.998z" />
    <glyph glyph-name="uni019B" unicode="&#x19b;" horiz-adv-x="40" 
d="M0 0.000976562l10.3105 22.998l-5.3105 0.00389862l0.00194979 8.8946l6.99785 0.1012l-6.00078 18.0033l8.00098 -0.0019989l6.5319 -18.1441l8.4681 0.1441l0.000999451 -8.9941l-5.2805 -0.00720024l8.2795 -22.9987l-7.9971 0.000976562l-7.0029 18.999
l-7.99707 -19.001z" />
    <glyph glyph-name="uni019C" unicode="&#x19c;" horiz-adv-x="60" 
d="M0 50h8v-26q0 -16 17 -16v42h8v-42h11v42h8v-50h-27q-25 0 -25 24v26z" />
    <glyph glyph-name="uni01BB" unicode="&#x1bb;" horiz-adv-x="48" 
d="M25.5704 23q-4.9736 -6.3672 -12.5704 -15h23l4 -8h-37l-3 7q9.40657 9.4066 15.536 16.1429l-6.536 -0.1429v8.9004l14.1929 0.242498q3.8071 4.9796 3.8071 6.8571q0 3 -8 3h-12l-3 8h15q16 0 16 -11q0 -2.2434 -3.0755 -7.1429l3.0755 0.0433006v-8.9004h-9.4296z" />
    <glyph glyph-name="uni01BC" unicode="&#x1bc;" horiz-adv-x="48" 
d="M16 36q24 -2 24 -14q0 -19 -40 -22v8q9 0 20.5 4t11.5 10t-24 6v22h27l-4 -8h-15v-6z" />
    <glyph glyph-name="uni01BD" unicode="&#x1bd;" horiz-adv-x="37" 
d="M20.999 13.0068l-20.999 -0.0067997v19.001l29 -0.000999451v-7h-21v-5h21v-7q0 -13 -18 -13h-11v7h11q9.9999 0 9.999 6.0068z" />
    <glyph glyph-name="uni01BE" unicode="&#x1be;" horiz-adv-x="38" 
d="M25.1436 43.1426v-7.1426l-9.1329 -0.0019989l-0.0293007 -2.999l5.9922 -6.999q7.9912 -9.3339 7.9903 -15.0029q-0.000999451 -11 -18.9746 -11h-10.9893v8.00098h10.9893q9.9863 0 9.9863 3.99995q0.1884 3.1639 -4.9932 9.001l-7.98924 9l0.0117202 6
l-8.00488 0.000999451v7.1426l7.99609 0.000999451l-0.00293016 6.8584h7.98734l0.0165997 -6.8575z" />
    <glyph glyph-name="uni01BF" unicode="&#x1bf;" horiz-adv-x="37" 
d="M21 19q0 3.0001 -2 5h-11v-21l9.709 9.9004q3.291 3.3559 3.291 6.0996zM28.9541 19.125q-0.0306988 -4.4267 -5.8916 -10.2246l-15.0625 -14.9004v-8h-8v46h23q6.0066 -5 5.9541 -12.875z" />
    <glyph glyph-name="uni01F7" unicode="&#x1f7;" 
d="M23.3571 28.7143q4.6429 3.2477 4.6429 9.2857q0 4 -6 4h-14v-24zM36 38q-0.124802 -10.3725 -8.9286 -16.5714l-19.0714 -13.4286v-8h-8v50h22q14 0 14 -12z" />
    <glyph glyph-name="uni021C" unicode="&#x21c;" 
d="M0 7q28 6 28 13q0 2.75 -9 5l-14 -5v8l11 4q2.0001 2 2 5q0 4 -11 4l0.0009799 -6.001l-7.00293 -3.0019l0.00195312 18.0029q26 0 26 -12q0 -3 -2 -6q12 -4 12 -12q0 -14 -36 -20v7z" />
    <glyph glyph-name="uni021D" unicode="&#x21d;" horiz-adv-x="37" 
d="M26.625 14.9502q2.375 -3.2852 2.375 -9.9502q0 -11 -29 -19v8q21 5.46094 21 11q0.00629997 3.70898 -1 4.6748l-13 -4.6748v8l10 3.1797q3.9825 1.2663 4 4.8203q-0.00569916 1.2042 -2 3h-12l0.0009799 -4l-7.00098 -2.0664v14.0664h23q6 -5 6 -11
q0 -3.1475 -2.375 -6.0498z" />
    <glyph glyph-name="uni0220" unicode="&#x220;" 
d="M35.9893 -0.00292969l0.00780106 -10.001l-7.9971 0.00189972l0.00200081 9.99809q0.0053997 28.0121 -20.002 41.0039v-41h-8v50h8q27.9603 -12.9046 27.9893 -50.0029z" />
    <glyph glyph-name="uni0222" unicode="&#x222;" horiz-adv-x="46" 
d="M14 28q-6 -5 -6 -12.5t11 -7.5t11 7.5t-6 12.5h-10zM20.7861 50.2861q11.8941 -1.8408 11.2139 -18.2861q6 -5 6 -18q0 -14 -19 -14t-19 13.5t6 18.5q-0.8586 16.8271 11.2139 18.2861l0.186501 -8.2861q-2.1861 -0.314301 -2.4004 -6h8q-0.5312 6 -2.4004 6z" />
    <glyph glyph-name="uni0223" unicode="&#x223;" horiz-adv-x="39" 
d="M10 26q-3 -5 -3 -10q0 -8 8.5 -8t8.5 8q0 6 -2 10h-12zM18 50q12 0 9 -18q4 -9 4 -16q0 -16 -15.5 -16t-15.5 14.917q0 8.917 5 17.083q-2.92871 18.0039 9.25 18.0039l0.0010004 -7.9941q-3 -1 -2.251 -8.0098h8q0.981701 7 -2 7.9785v8.0215z" />
    <glyph glyph-name="uni01C0" unicode="&#x1c0;" horiz-adv-x="16" 
d="M0 50h8v-64h-8v64z" />
    <glyph glyph-name="uni01C1" unicode="&#x1c1;" horiz-adv-x="32" 
d="M16 64h8v-64h-8v64zM0 64h8v-64h-8v64z" />
    <glyph glyph-name="uni01C2" unicode="&#x1c2;" horiz-adv-x="32" 
d="M8 50h8l0.00200081 -17.9951l8 -0.00100327l-0.00100136 -5.9951l-8 -0.00200081v-4.0009l8 -0.00300026l0.00100136 -5.9961l-8.002 -0.00289917v-16.0039h-8l0.000980377 16.0039h-8v6h8l-0.000980377 3.8584h-7.99902l0.000976558 6.001l7.99805 -0.00200081v18.1387z
" />
    <glyph glyph-name="uni01BA" unicode="&#x1ba;" horiz-adv-x="39" 
d="M15 11h-17l13 13h-11v8h29l-13 -13h3q10 0 10 -10t-14 -10h-7q0 -5 21 -5v-8q-29 0 -29 11v4q0 6 6 6h9q5 0 5 2t-5 2z" />
    <glyph glyph-name="upsilondieresistonos" unicode="&#x3b0;" horiz-adv-x="37" 
d="M10.2139 46.1172h5.99805l8 10.0039h-9.99805zM17.5 43h8v-8h-8v8zM5.5 43h8v-8h-8v8zM8 14q0 -6 2 -6q11 0 11 24h8q0 -32 -21 -32q-8 0 -8 9v23h8v-18z" />
    <glyph glyph-name="iotadieresistonos" unicode="&#x390;" horiz-adv-x="16" 
d="M-1.28613 46.1172h5.99805l8 10.0039h-9.99805zM6 43h8v-8h-8v8zM-6 43h8v-8h-8v8zM0 32h8v-32h-8v32z" />
    <glyph glyph-name="uni030F" unicode="&#x30f;" horiz-adv-x="38" 
d="M16 63.0039h5.99805l8 -10.0039h-9.99805zM3 63.0039h5.99805l8 -10.0039h-9.99805z" />
    <glyph glyph-name="uni02EE" unicode="&#x2ee;" horiz-adv-x="30" 
d="M14 50h8v-14h-8v14zM0 50h8v-14h-8v14z" />
    <glyph glyph-name="uni01A7" unicode="&#x1a7;" horiz-adv-x="51" 
d="M7 50q33 0 33 -12t-17 -12q-15 0 -15 -5q0 -13 35 -13v-8q-43 0 -43 21q0 13 20 13q12 0 12 4t-25 4v8z" />
    <glyph glyph-name="uni01A8" unicode="&#x1a8;" horiz-adv-x="37" 
d="M6 21h9q5 0 5 2t-5 2h-15v7h15q14 0 14 -9.5t-14 -9.5h-7q0 -5 21 -5v-8q-29 0 -29 11v4q0 6 6 6z" />
    <glyph glyph-name="divide" unicode="&#xf7;" horiz-adv-x="38" 
d="M0 19h30v-6h-30v6zM11 32.0039h7.99805v-8.00391h-7.99805v8.00391zM11 8.00391h7.99805v-8.00391h-7.99805v8.00391z" />
    <glyph glyph-name="onequarter" unicode="&#xbc;" horiz-adv-x="50" 
d="M30 16q0 -4 6 -4v10h6v-22h-6v6q-12 2 -12 10v6h6v-6zM7 0h-10l27 50h10zM0 46l6 4v-18h-6v14z" />
    <glyph glyph-name="onehalf" unicode="&#xbd;" horiz-adv-x="47" 
d="M7 0h-10l27 50h10zM0 46l6 4v-18h-6v14zM34.7129 6.56934l-2.71289 -2.56934h6l4 -4h-16l-3 4l6.01758 4.14258q1.98242 1.36426 1.98242 2.85742q0 2 -3 2h-2l-3 5h5q9 0 9 -7q0 -2.26465 -2.28711 -4.43066z" />
    <glyph glyph-name="threequarters" unicode="&#xbe;" horiz-adv-x="57" 
d="M37 16q0 -4 6 -4v10h6v-22h-6v6q-12 2 -12 10v6h6v-6zM14 0h-10l27 50h10zM9 32h-9v4h9q4 0 4 2q0 1 -2 1h-11v4h8q1 1 0.5 2t-8.5 1v4q14 0 14 -5q0 -1 -1 -2q5 -1 5 -5q0 -6 -9 -6z" />
    <glyph glyph-name="paragraph" unicode="&#xb6;" horiz-adv-x="42" 
d="M24.9941 46.8623l0.0019989 -43.8604l3 0.0009799v43.8575zM14 33h5v9h-5q-6 0 -6 -4q0 -5 6 -5zM19 24h-4q-15 0 -15 13t14 13h20v-50h-15v24z" />
    <glyph glyph-name="uni1F60" unicode="&#x1f60;" horiz-adv-x="50" 
d="M28 50q0 -13 -7 -19l-5 6q4 4 4 13h8zM18 0q-18 0 -18 12.999q0 14.998 12.167 19.001l0.0830078 -8.75q-4.25 -0.945312 -4.25 -9.25q0 -6.81836 9 -6v13h8v-13q9 -1 9 6q0 8.30469 -4.25 9.25l0.0830078 8.75q12.167 -4.00293 12.167 -19.002
q0 -12.998 -17.9893 -12.998h-6.01074z" />
    <glyph glyph-name="uni1F61" unicode="&#x1f61;" horiz-adv-x="50" 
d="M14 50h8q0 -9 4 -13l-5 -6q-7 6 -7 19zM18 0q-18 0 -18 12.999q0 14.998 12.167 19.001l0.0830078 -8.75q-4.25 -0.945312 -4.25 -9.25q0 -6.81836 9 -6v13h8v-13q9 -1 9 6q0 8.30469 -4.25 9.25l0.0830078 8.75q12.167 -4.00293 12.167 -19.002
q0 -12.998 -17.9893 -12.998h-6.01074z" />
    <glyph glyph-name="uni1F62" unicode="&#x1f62;" horiz-adv-x="50" 
d="M18 0q-18 0 -18 12.999q0 14.998 12.167 19.001l0.0830078 -8.75q-4.25 -0.945312 -4.25 -9.25q0 -6.81836 9 -6v13h8v-13q9 -1 9 6q0 8.30469 -4.25 9.25l0.0830078 8.75q12.167 -4.00293 12.167 -19.002q0 -12.998 -17.9893 -12.998h-6.01074zM20 52q0 -13 -7 -19l-5 6
q4 4 4 13h8zM24 47.0039h5.99805l8 -10.0039h-9.99805z" />
    <glyph glyph-name="uni1F63" unicode="&#x1f63;" horiz-adv-x="50" 
d="M8 52h8q0 -9 4 -13l-5 -6q-7 6 -7 19zM23 47.0039h5.99805l8 -10.0039h-9.99805zM18 0q-18 0 -18 12.999q0 14.998 12.167 19.001l0.0830078 -8.75q-4.25 -0.945312 -4.25 -9.25q0 -6.81836 9 -6v13h8v-13q9 -1 9 6q0 8.30469 -4.25 9.25l0.0830078 8.75
q12.167 -4.00293 12.167 -19.002q0 -12.998 -17.9893 -12.998h-6.01074z" />
    <glyph glyph-name="uni1F64" unicode="&#x1f64;" horiz-adv-x="50" 
d="M18 0q-18 0 -18 12.999q0 14.998 12.167 19.001l0.0830078 -8.75q-4.25 -0.945312 -4.25 -9.25q0 -6.81836 9 -6v13h8v-13q9 -1 9 6q0 8.30469 -4.25 9.25l0.0830078 8.75q12.167 -4.00293 12.167 -19.002q0 -12.998 -17.9893 -12.998h-6.01074zM20 51q0 -13 -7 -19l-5 6
q4 4 4 13h8zM23 36h5.99805l8 10.0039h-9.99805z" />
    <glyph glyph-name="uni1F65" unicode="&#x1f65;" horiz-adv-x="50" 
d="M8 50.0039h8q0 -8.86621 4 -12.8066l-5 -5.91113q-7 5.91113 -7 18.7178zM23 35h5.99805l8 10.0039h-9.99805zM18 0q-18 0 -18 12.999q0 14.998 12.167 19.001l0.0830078 -8.75q-4.25 -0.945312 -4.25 -9.25q0 -6.81836 9 -6v13h8v-13q9 -1 9 6q0 8.30469 -4.25 9.25
l0.0830078 8.75q12.167 -4.00293 12.167 -19.002q0 -12.998 -17.9893 -12.998h-6.01074z" />
    <glyph glyph-name="uni1F66" unicode="&#x1f66;" horiz-adv-x="50" 
d="M31.5 48q-4.33008 -4.625 -10.6777 -1.96484q-6.34863 2.66113 -10.3223 -2.03516v8q4.49609 4.625 10.916 1.9375t10.084 2.0625v-8zM18 0q-18 0 -18 12.999q0 14.998 12.167 19.001l0.0830078 -8.75q-4.25 -0.945312 -4.25 -9.25q0 -6.81836 9 -6v13h8v-13q9 -1 9 6
q0 8.30469 -4.25 9.25l0.0830078 8.75q12.167 -4.00293 12.167 -19.002q0 -12.998 -17.9893 -12.998h-6.01074zM27 44q0 -13 -7 -19l-5 6q4 4 4 13h8z" />
    <glyph glyph-name="uni1F67" unicode="&#x1f67;" horiz-adv-x="50" 
d="M16 44h8q0 -9 4 -13l-5 -6q-7 6 -7 19zM18 0q-18 0 -18 12.999q0 14.998 12.167 19.001l0.0830078 -8.75q-4.25 -0.945312 -4.25 -9.25q0 -6.81836 9 -6v13h8v-13q9 -1 9 6q0 8.30469 -4.25 9.25l0.0830078 8.75q12.167 -4.00293 12.167 -19.002
q0 -12.998 -17.9893 -12.998h-6.01074zM29.5 48q-4.33008 -4.625 -10.6777 -1.96484q-6.34863 2.66113 -10.3223 -2.03516v8q4.49609 4.625 10.916 1.9375t10.084 2.0625v-8z" />
    <glyph glyph-name="uni1FA0" unicode="&#x1fa0;" horiz-adv-x="50" 
d="M17 -3h8v-11h-8v11zM18 0q-18 0 -18 12.999q0 14.998 12.167 19.001l0.0830078 -8.75q-4.25 -0.945312 -4.25 -9.25q0 -6.81836 9 -6v13h8v-13q9 -1 9 6q0 8.30469 -4.25 9.25l0.0830078 8.75q12.167 -4.00293 12.167 -19.002q0 -12.998 -17.9893 -12.998h-6.01074z
M28 50q0 -13 -7 -19l-5 6q4 4 4 13h8z" />
    <glyph glyph-name="uni1FFE" unicode="&#x1ffe;" horiz-adv-x="20" 
d="M0 50h8q0 -9 4 -13l-5 -6q-7 6 -7 19z" />
    </font>
</defs>
</svg>
